<svg id="Camada_1" data-name="Camada 1" xmlns="http://www.w3.org/2000/svg" xmlns:xlink="http://www.w3.org/1999/xlink" width="400.06" height="57.97" viewBox="0 0 400.06 57.97"><defs><style>.cls-1,.cls-19{fill:none;}.cls-2{fill:url(#azul_logo);}.cls-3{fill:url(#azul_logo-2);}.cls-4{clip-path:url(#clip-path);}.cls-5{fill:url(#radial-gradient);}.cls-6{clip-path:url(#clip-path-2);}.cls-7{fill:url(#azul_logo-4);}.cls-8{clip-path:url(#clip-path-3);}.cls-9{fill:url(#linear-gradient);}.cls-10{clip-path:url(#clip-path-4);}.cls-11{fill:url(#linear-gradient-2);}.cls-12{clip-path:url(#clip-path-5);}.cls-13{fill:url(#linear-gradient-3);}.cls-14{clip-path:url(#clip-path-6);}.cls-15{fill:url(#linear-gradient-4);}.cls-16{clip-path:url(#clip-path-7);}.cls-17{fill:url(#azul_logo-6);}.cls-18{fill:#01426a;}.cls-19{stroke-miterlimit:10;stroke-width:2px;stroke:url(#Nova_amostra_de_gradiente);}</style><linearGradient id="azul_logo" x1="3.33" y1="29" x2="23.34" y2="29" gradientUnits="userSpaceOnUse"><stop offset="0" stop-color="#0067a0"/><stop offset="1" stop-color="#01426a"/></linearGradient><linearGradient id="azul_logo-2" x1="0" y1="45.56" x2="13.34" y2="45.56" xlink:href="#azul_logo"/><clipPath id="clip-path" transform="translate(0 2.47)"><path class="cls-1" d="M15,7.47a5,5,0,1,0,5-5,5,5,0,0,0-5,5"/></clipPath><radialGradient id="radial-gradient" cx="-651.08" cy="714.71" r="1.34" gradientTransform="matrix(2.64, 2.62, 2.64, -2.62, -150.29, 3585.21)" xlink:href="#azul_logo"/><clipPath id="clip-path-2" transform="translate(0 2.47)"><path class="cls-2" d="M3.33,14.09v6.63H10a6.65,6.65,0,0,1,6.67,6.62V43.91h6.67V27.34A13.3,13.3,0,0,0,10,14.09Z"/></clipPath><linearGradient id="azul_logo-4" x1="-761.41" y1="607.46" x2="-760.08" y2="607.46" gradientTransform="matrix(0, 17.07, 17.07, 0, -10358.7, 13024.29)" xlink:href="#azul_logo"/><clipPath id="clip-path-3" transform="translate(0 2.47)"><path class="cls-1" d="M3.33,14.09v6.63H10c.23,0,.46,0,.68,0A13.29,13.29,0,0,1,23.34,34V27.34A13.3,13.3,0,0,0,10,14.09Z"/></clipPath><linearGradient id="linear-gradient" x1="-734.56" y1="441.03" x2="-733.23" y2="441.03" gradientTransform="matrix(0, -5.15, -5.15, 0, 2283.65, -3757.78)" gradientUnits="userSpaceOnUse"><stop offset="0" stop-color="#01426a"/><stop offset="0.12" stop-color="#014670"/><stop offset="1" stop-color="#0067a0"/></linearGradient><clipPath id="clip-path-4" transform="translate(0 2.47)"><rect class="cls-1" y="24.03" width="13.34" height="6.63"/></clipPath><linearGradient id="linear-gradient-2" x1="-687.09" y1="579.75" x2="-685.75" y2="579.75" gradientTransform="matrix(9.62, 0, 0, -9.62, 6610.18, 5607.16)" gradientUnits="userSpaceOnUse"><stop offset="0" stop-color="#007b5f"/><stop offset="1" stop-color="#00b388"/></linearGradient><clipPath id="clip-path-5" transform="translate(0 2.47)"><rect class="cls-1" x="23.34" y="14.09" width="13.34" height="6.63"/></clipPath><linearGradient id="linear-gradient-3" x1="-687.9" y1="579.82" x2="-686.56" y2="579.82" gradientTransform="matrix(9.83, 0, 0, -9.83, 6784.07, 5718.33)" gradientUnits="userSpaceOnUse"><stop offset="0" stop-color="#fbdb65"/><stop offset="1" stop-color="#ffcd00"/></linearGradient><clipPath id="clip-path-6" transform="translate(0 2.47)"><path class="cls-1" d="M6.67,34v8.28A6.65,6.65,0,0,1,0,48.87V55.5A13.29,13.29,0,0,0,13.34,42.25V34Z"/></clipPath><linearGradient id="linear-gradient-4" x1="-765.66" y1="635.81" x2="-764.33" y2="635.81" gradientTransform="matrix(0, 9.82, 9.82, 0, -6236.01, 7554.16)" gradientUnits="userSpaceOnUse"><stop offset="0" stop-color="#01426a"/><stop offset="1" stop-color="#0067a0"/></linearGradient><clipPath id="clip-path-7" transform="translate(0 2.47)"><path class="cls-3" d="M.68,48.84c-.22,0-.45,0-.68,0V55.5A13.29,13.29,0,0,0,13.34,42.25V35.62A13.27,13.27,0,0,1,.68,48.84"/></clipPath><linearGradient id="azul_logo-6" x1="-738.3" y1="466.32" x2="-738.3" y2="464.22" gradientTransform="matrix(0, -6.34, -6.34, 0, 2956.35, -4632.55)" xlink:href="#azul_logo"/><linearGradient id="Nova_amostra_de_gradiente" x1="110.7" y1="144" x2="112.72" y2="144" gradientTransform="matrix(1, 0, 0, 0.72, -0.87, -73.72)" gradientUnits="userSpaceOnUse"><stop offset="0" stop-color="#0067a0"/><stop offset="0.44" stop-color="#015180"/><stop offset="1" stop-color="#01426a"/></linearGradient></defs><title>Logo-GECJ-TRT-Topo</title><g class="cls-4"><polygon class="cls-5" points="19.96 0 29.97 9.94 19.96 19.88 9.96 9.94 19.96 0"/></g><path class="cls-2" d="M3.33,14.09v6.63H10a6.65,6.65,0,0,1,6.67,6.62V43.91h6.67V27.34A13.3,13.3,0,0,0,10,14.09Z" transform="translate(0 2.47)"/><g class="cls-6"><rect class="cls-7" x="3.33" y="16.56" width="20.01" height="29.81"/></g><g class="cls-8"><rect class="cls-9" x="3.33" y="16.56" width="20.01" height="19.88"/></g><g class="cls-10"><rect class="cls-11" y="26.5" width="13.34" height="6.63"/></g><g class="cls-12"><rect class="cls-13" x="23.34" y="16.56" width="13.34" height="6.63"/></g><g class="cls-14"><rect class="cls-15" y="36.44" width="13.34" height="21.53"/></g><path class="cls-3" d="M.68,48.84c-.22,0-.45,0-.68,0V55.5A13.29,13.29,0,0,0,13.34,42.25V35.62A13.27,13.27,0,0,1,.68,48.84" transform="translate(0 2.47)"/><g class="cls-16"><rect class="cls-17" y="38.09" width="13.34" height="19.88"/></g><path class="cls-18" d="M56.69,27.15V36.6a8.65,8.65,0,0,1-1.57,5.55,5.48,5.48,0,0,1-4.55,1.94A5.49,5.49,0,0,1,46,42.15a8.65,8.65,0,0,1-1.56-5.55V21.1A8.65,8.65,0,0,1,46,15.55a5.52,5.52,0,0,1,4.55-1.94,5.51,5.51,0,0,1,4.55,1.94,8.65,8.65,0,0,1,1.57,5.55V24H52.81V20.81q0-2.94-2.13-2.94c-1.41,0-2.12,1-2.12,2.94V36.9c0,1.93.71,2.89,2.12,2.89s2.13-1,2.13-2.89V31.41H50.94V27.15Z" transform="translate(0 2.47)"/><path class="cls-18" d="M69.06,26.51v4.26H63.43v8.72h7.09v4.26H59.33V14H70.52v4.26H63.43v8.3Z" transform="translate(0 2.47)"/><path class="cls-18" d="M85,36.6a8.59,8.59,0,0,1-1.57,5.55,6.31,6.31,0,0,1-9.1,0,8.65,8.65,0,0,1-1.56-5.55V21.1a8.65,8.65,0,0,1,1.56-5.55,6.31,6.31,0,0,1,9.1,0A8.59,8.59,0,0,1,85,21.1V24H81.07V20.81q0-2.94-2.13-2.94c-1.41,0-2.12,1-2.12,2.94V36.9c0,1.93.71,2.89,2.12,2.89s2.13-1,2.13-2.89V32.64H85Z" transform="translate(0 2.47)"/><path class="cls-18" d="M87.74,39.54a2.36,2.36,0,0,0,1.74-.62,3.16,3.16,0,0,0,.61-2.24V14h4.1V36.34q0,7.5-5.89,7.5a15.88,15.88,0,0,1-2-.09V39.49C86.62,39.52,87.1,39.54,87.74,39.54Z" transform="translate(0 2.47)"/><path class="cls-18" d="M130.38,19.87a6.22,6.22,0,0,1,.85-.07,6.63,6.63,0,0,1,.86.07V24a5.55,5.55,0,0,1-1.28.3,10.49,10.49,0,0,1-1.16.07,4.62,4.62,0,0,1-1.82-.32,3.48,3.48,0,0,1-1.3-.9,3.75,3.75,0,0,1-.78-1.38,5.85,5.85,0,0,1,0-3.48,4,4,0,0,1,.78-1.39,3.55,3.55,0,0,1,1.27-.92,4.21,4.21,0,0,1,1.71-.33,8.54,8.54,0,0,1,1,.07,4.39,4.39,0,0,1,1,.3,2.67,2.67,0,0,1-.15.68c-.08.23-.16.45-.26.68a4.53,4.53,0,0,0-.73-.2,4.1,4.1,0,0,0-.76-.06,2.14,2.14,0,0,0-1.74.73,3.39,3.39,0,0,0-.61,2.18A3.21,3.21,0,0,0,128,22.2a2.17,2.17,0,0,0,1.77.71,2.06,2.06,0,0,0,.36,0l.29-.05Z" transform="translate(0 2.47)"/><path class="cls-18" d="M133.6,18.18l.34-.05.35,0a2.07,2.07,0,0,1,.35,0,1.91,1.91,0,0,1,.33.06.39.39,0,0,1,.07.17,1.55,1.55,0,0,1,.05.23,1.87,1.87,0,0,1,0,.25.88.88,0,0,1,0,.2,3.28,3.28,0,0,1,.64-.65,1.53,1.53,0,0,1,.95-.29l.27,0a.57.57,0,0,1,.22,0,1.93,1.93,0,0,1,0,.27c0,.1,0,.21,0,.32a3.24,3.24,0,0,1,0,.43,3.06,3.06,0,0,1-.06.45,1.29,1.29,0,0,0-.29,0h-.2a2.68,2.68,0,0,0-.45,0,.94.94,0,0,0-.47.21,1.35,1.35,0,0,0-.37.53,2.61,2.61,0,0,0-.15,1v2.88a3,3,0,0,1-.42,0H134a3.49,3.49,0,0,1-.44,0Z" transform="translate(0 2.47)"/><path class="cls-18" d="M141.29,20.26a1,1,0,0,0-.1-.46.68.68,0,0,0-.26-.27,1.16,1.16,0,0,0-.41-.14,4.15,4.15,0,0,0-1.89.21,2.75,2.75,0,0,1-.25-.57,2.1,2.1,0,0,1-.08-.65,6.3,6.3,0,0,1,1-.25,5.63,5.63,0,0,1,1-.09,2.88,2.88,0,0,1,1.92.59,2.31,2.31,0,0,1,.7,1.88V24a9.31,9.31,0,0,1-1,.25,7.6,7.6,0,0,1-1.33.11,5.45,5.45,0,0,1-1.11-.1,2.47,2.47,0,0,1-.86-.35,1.72,1.72,0,0,1-.56-.64,2.09,2.09,0,0,1-.19-.95,1.73,1.73,0,0,1,.24-.94,1.75,1.75,0,0,1,.63-.61,2.43,2.43,0,0,1,.85-.33,4.38,4.38,0,0,1,.95-.1l.76,0Zm0,1.21-.31,0-.3,0a1.7,1.7,0,0,0-.91.21.7.7,0,0,0-.34.66.73.73,0,0,0,.13.47.79.79,0,0,0,.31.24,1.38,1.38,0,0,0,.39.09,2.43,2.43,0,0,0,.36,0,2.19,2.19,0,0,0,.36,0l.31-.05Z" transform="translate(0 2.47)"/><path class="cls-18" d="M144.57,19.45h-.77l-.06-.23L146,16.41h.27v1.77h1.43a2.3,2.3,0,0,1,0,.32,2.71,2.71,0,0,1,0,.29c0,.11,0,.22,0,.32a2.33,2.33,0,0,1,0,.34h-1.43v2.38a2.32,2.32,0,0,0,.06.59.77.77,0,0,0,.18.35.5.5,0,0,0,.27.18,1.48,1.48,0,0,0,.39.05,2,2,0,0,0,.35,0l.3-.06a1.91,1.91,0,0,1,.12.47,3.62,3.62,0,0,1,0,.43c0,.08,0,.16,0,.21a.88.88,0,0,1,0,.17,4.58,4.58,0,0,1-1.12.13,2.37,2.37,0,0,1-1.64-.5,2,2,0,0,1-.57-1.62Z" transform="translate(0 2.47)"/><path class="cls-18" d="M149.26,19.45h-.79a3.06,3.06,0,0,1-.05-.32,1.77,1.77,0,0,1,0-.32,2.65,2.65,0,0,1,.07-.63h2.43v6.07a4.7,4.7,0,0,1-.82.07,4.78,4.78,0,0,1-.82-.07ZM149,17.16a5.26,5.26,0,0,1-.07-.78,5.51,5.51,0,0,1,.07-.79l.43-.05.42,0,.44,0,.44.05c0,.13,0,.26,0,.39s0,.26,0,.4,0,.25,0,.38,0,.27,0,.4a3,3,0,0,1-.43.05h-.86A3,3,0,0,1,149,17.16Z" transform="translate(0 2.47)"/><path class="cls-18" d="M153,19.45h-1c0-.12,0-.24-.05-.34s0-.21,0-.32,0-.2,0-.29,0-.2.05-.32h1v-.29a2.26,2.26,0,0,1,.21-1,2.08,2.08,0,0,1,.56-.74,2.58,2.58,0,0,1,.87-.46,3.59,3.59,0,0,1,1.11-.16,7.31,7.31,0,0,1,1.09.07,4.25,4.25,0,0,1,1,.27,3.86,3.86,0,0,1-.12.72,2.74,2.74,0,0,1-.27.6,4,4,0,0,0-.76-.23,4.23,4.23,0,0,0-.73-.06,2.3,2.3,0,0,0-.45.05.92.92,0,0,0-.4.15.87.87,0,0,0-.29.31,1.08,1.08,0,0,0-.12.52v.25h3.74v6.07a4.84,4.84,0,0,1-1.64,0v-4.8h-2.1v4.8a4.81,4.81,0,0,1-.83.07,4.76,4.76,0,0,1-.84-.07Z" transform="translate(0 2.47)"/><path class="cls-18" d="M164.13,22.82a2.53,2.53,0,0,1,.23.55,2.26,2.26,0,0,1,.1.73,3.3,3.3,0,0,1-.89.24,5.94,5.94,0,0,1-.86.05,3.45,3.45,0,0,1-1.34-.24,2.66,2.66,0,0,1-.94-.66,3,3,0,0,1-.56-1,4.28,4.28,0,0,1-.19-1.27,3.84,3.84,0,0,1,.19-1.24,2.83,2.83,0,0,1,.55-1,2.55,2.55,0,0,1,.93-.68,3.22,3.22,0,0,1,1.29-.25h.48l.42.05.4.1a4.72,4.72,0,0,1,.45.15,3.46,3.46,0,0,1-.07.6,2.71,2.71,0,0,1-.23.64,3.79,3.79,0,0,0-.62-.16,5.35,5.35,0,0,0-.61,0,1.3,1.3,0,0,0-1.1.48,2.15,2.15,0,0,0-.37,1.35,2,2,0,0,0,.4,1.39,1.4,1.4,0,0,0,1.08.43h.33l.29,0,.29-.07Z" transform="translate(0 2.47)"/><path class="cls-18" d="M168.69,20.26a.9.9,0,0,0-.1-.46.68.68,0,0,0-.26-.27,1.11,1.11,0,0,0-.4-.14,4.5,4.5,0,0,0-.54,0,4.29,4.29,0,0,0-1.36.24,3.42,3.42,0,0,1-.25-.57,2.46,2.46,0,0,1-.08-.65,6.55,6.55,0,0,1,1-.25,5.74,5.74,0,0,1,1-.09,2.88,2.88,0,0,1,1.92.59,2.34,2.34,0,0,1,.69,1.88V24a9.31,9.31,0,0,1-1,.25,7.52,7.52,0,0,1-1.33.11,5.52,5.52,0,0,1-1.11-.1,2.47,2.47,0,0,1-.86-.35,1.7,1.7,0,0,1-.55-.64,2.09,2.09,0,0,1-.2-.95,1.73,1.73,0,0,1,.24-.94,1.75,1.75,0,0,1,.63-.61,2.48,2.48,0,0,1,.86-.33,4.29,4.29,0,0,1,.94-.1l.76,0Zm0,1.21-.31,0-.29,0a1.72,1.72,0,0,0-.92.21.72.72,0,0,0-.34.66.8.8,0,0,0,.13.47.75.75,0,0,0,.32.24,1.24,1.24,0,0,0,.39.09,2.3,2.3,0,0,0,.36,0l.35,0,.31-.05Z" transform="translate(0 2.47)"/><path class="cls-18" d="M173.71,24.32a2.93,2.93,0,0,1-1-.39,2.52,2.52,0,0,1-.7-.68,2.86,2.86,0,0,1-.42-.92,4.38,4.38,0,0,1-.14-1.11,4.13,4.13,0,0,1,.19-1.24,3,3,0,0,1,.55-1,2.55,2.55,0,0,1,.93-.68,3.22,3.22,0,0,1,1.29-.25h.48l.42.05.4.1a4.72,4.72,0,0,1,.45.15,3.46,3.46,0,0,1-.07.6,2.71,2.71,0,0,1-.23.64,3.79,3.79,0,0,0-.62-.16,5.19,5.19,0,0,0-.61,0,1.32,1.32,0,0,0-1.1.48,2.15,2.15,0,0,0-.37,1.35,2,2,0,0,0,.4,1.39,1.41,1.41,0,0,0,1.09.43H175l.29,0,.29-.07.35-.12a2.53,2.53,0,0,1,.23.55,2.26,2.26,0,0,1,.1.73,3.71,3.71,0,0,1-.88.23,5.67,5.67,0,0,1-.85.06l-.19.48h.19a1.51,1.51,0,0,1,1,.29.9.9,0,0,1,.35.73,1,1,0,0,1-.51.91,2.58,2.58,0,0,1-1.32.3h-.42a2.8,2.8,0,0,1-.53-.09q0-.19.06-.42a1,1,0,0,1,.15-.41l.38.09.36,0a1.56,1.56,0,0,0,.53-.08.3.3,0,0,0,.2-.28.27.27,0,0,0-.19-.28,1.37,1.37,0,0,0-.5-.08l-.36,0a1.35,1.35,0,0,0-.36.08l-.08-.08Z" transform="translate(0 2.47)"/><path class="cls-18" d="M180.47,20.26a.9.9,0,0,0-.1-.46.65.65,0,0,0-.25-.27,1.24,1.24,0,0,0-.41-.14,4.39,4.39,0,0,0-.54,0,4.29,4.29,0,0,0-1.36.24,3.42,3.42,0,0,1-.25-.57,2.46,2.46,0,0,1-.08-.65,6.55,6.55,0,0,1,1-.25,5.74,5.74,0,0,1,1-.09,2.88,2.88,0,0,1,1.92.59,2.34,2.34,0,0,1,.69,1.88V24a9.69,9.69,0,0,1-1,.25,7.72,7.72,0,0,1-1.34.11,5.35,5.35,0,0,1-1.1-.1,2.44,2.44,0,0,1-.87-.35,1.7,1.7,0,0,1-.55-.64,2.09,2.09,0,0,1-.2-.95,1.65,1.65,0,0,1,.25-.94,1.81,1.81,0,0,1,.62-.61,2.48,2.48,0,0,1,.86-.33,4.29,4.29,0,0,1,.94-.1l.76,0Zm-2.94-4a1.6,1.6,0,0,1,.52-.44,1.47,1.47,0,0,1,.77-.19,1.29,1.29,0,0,1,.43.07l.4.14.42.14a1.61,1.61,0,0,0,.44.06,1.5,1.5,0,0,0,.37-.05,1.36,1.36,0,0,0,.43-.31,2.14,2.14,0,0,1,.32.45,2.47,2.47,0,0,1,.19.49,1.6,1.6,0,0,1-1.3.6,1.31,1.31,0,0,1-.44-.07l-.42-.14-.41-.14a1.52,1.52,0,0,0-.42-.06,1.14,1.14,0,0,0-.39.06,1.59,1.59,0,0,0-.42.3,4.27,4.27,0,0,1-.3-.44A1.26,1.26,0,0,1,177.53,16.31Zm2.94,5.16-.31,0-.29,0a1.74,1.74,0,0,0-.92.21.72.72,0,0,0-.34.66.8.8,0,0,0,.13.47.82.82,0,0,0,.32.24,1.24,1.24,0,0,0,.39.09,2.43,2.43,0,0,0,.36,0,2.07,2.07,0,0,0,.35,0l.31-.05Z" transform="translate(0 2.47)"/><path class="cls-18" d="M186.18,24.39a3.24,3.24,0,0,1-1.3-.24,2.45,2.45,0,0,1-.91-.67,2.84,2.84,0,0,1-.54-1,4.13,4.13,0,0,1-.18-1.24,4.26,4.26,0,0,1,.18-1.26,2.93,2.93,0,0,1,.54-1,2.57,2.57,0,0,1,.91-.67,3.24,3.24,0,0,1,1.3-.25,3.28,3.28,0,0,1,1.3.25,2.61,2.61,0,0,1,.92.67,2.93,2.93,0,0,1,.54,1,4.26,4.26,0,0,1,.18,1.26,4.13,4.13,0,0,1-.18,1.24,2.84,2.84,0,0,1-.54,1,2.49,2.49,0,0,1-.92.67A3.28,3.28,0,0,1,186.18,24.39Zm0-1.26a1,1,0,0,0,.95-.49,2.81,2.81,0,0,0,.29-1.4,2.85,2.85,0,0,0-.29-1.41,1,1,0,0,0-.95-.48,1,1,0,0,0-.94.48,2.75,2.75,0,0,0-.29,1.41,2.71,2.71,0,0,0,.29,1.4A1,1,0,0,0,186.18,23.13Z" transform="translate(0 2.47)"/><path class="cls-18" d="M193,18.17a1.75,1.75,0,0,1,.32,0l.36,0a4,4,0,0,1,.68.07,1.07,1.07,0,0,1,.06.17l.06.24c0,.09,0,.17,0,.26s0,.15,0,.2a2.09,2.09,0,0,1,.26-.37,1.45,1.45,0,0,1,.37-.32,2.22,2.22,0,0,1,.49-.23,1.89,1.89,0,0,1,.6-.09,2.48,2.48,0,0,1,1,.19,2.19,2.19,0,0,1,.78.57,2.58,2.58,0,0,1,.51,1,4.53,4.53,0,0,1,.18,1.36,3.94,3.94,0,0,1-.22,1.37,2.76,2.76,0,0,1-1.69,1.67,3.79,3.79,0,0,1-1.39.23H195l-.33-.05V27a3.34,3.34,0,0,1-.43,0h-.81a3.34,3.34,0,0,1-.43,0ZM194.68,23a2.76,2.76,0,0,0,.74.1,1.38,1.38,0,0,0,1.12-.47,2.21,2.21,0,0,0,.39-1.42,3.58,3.58,0,0,0-.06-.68,1.58,1.58,0,0,0-.2-.53,1,1,0,0,0-.9-.49,1,1,0,0,0-.5.12.89.89,0,0,0-.34.3,1.53,1.53,0,0,0-.19.45,2.53,2.53,0,0,0-.06.56Z" transform="translate(0 2.47)"/><path class="cls-18" d="M202.61,24.39a3.23,3.23,0,0,1-1.29-.24,2.38,2.38,0,0,1-.91-.67,2.84,2.84,0,0,1-.54-1,3.84,3.84,0,0,1-.19-1.24,4,4,0,0,1,.19-1.26,2.93,2.93,0,0,1,.54-1,2.48,2.48,0,0,1,.91-.67,3.48,3.48,0,0,1,2.59,0,2.64,2.64,0,0,1,.93.67,2.93,2.93,0,0,1,.54,1,4.26,4.26,0,0,1,.18,1.26,4.13,4.13,0,0,1-.18,1.24,2.84,2.84,0,0,1-.54,1,2.53,2.53,0,0,1-.93.67A3.24,3.24,0,0,1,202.61,24.39Zm0-1.26a1,1,0,0,0,.95-.49,2.71,2.71,0,0,0,.29-1.4,2.75,2.75,0,0,0-.29-1.41,1.17,1.17,0,0,0-1.89,0,2.85,2.85,0,0,0-.29,1.41,2.81,2.81,0,0,0,.29,1.4A1,1,0,0,0,202.61,23.13Z" transform="translate(0 2.47)"/><path class="cls-18" d="M206.88,18.18l.34-.05.34,0a2,2,0,0,1,.35,0,1.86,1.86,0,0,1,.34.06.63.63,0,0,1,.06.17l.06.23c0,.08,0,.16,0,.25l0,.2a2.81,2.81,0,0,1,.64-.65,1.5,1.5,0,0,1,.94-.29l.27,0a.63.63,0,0,1,.23,0,2,2,0,0,1,0,.27c0,.1,0,.21,0,.32s0,.28,0,.43a3,3,0,0,1-.07.45,1.23,1.23,0,0,0-.29,0H210a2.48,2.48,0,0,0-.45,0,.91.91,0,0,0-.47.21,1.37,1.37,0,0,0-.38.53,2.85,2.85,0,0,0-.14,1v2.88a3.34,3.34,0,0,1-.43,0h-.82a3.34,3.34,0,0,1-.43,0Z" transform="translate(0 2.47)"/><path class="cls-18" d="M214.23,15.81h4.82a3.51,3.51,0,0,1,.07.72,3.57,3.57,0,0,1-.07.74H216V19.1h2.46a3.89,3.89,0,0,1,0,1.47H216V22.8h3.18a3.35,3.35,0,0,1,.07.71,3.51,3.51,0,0,1-.07.74h-4.9Z" transform="translate(0 2.47)"/><path class="cls-18" d="M221.25,21.12l-1.17-2.94a5.65,5.65,0,0,1,.86-.07,7.11,7.11,0,0,1,.91.07l.93,3-1.21,3.1a4.92,4.92,0,0,1-.84.07,5.48,5.48,0,0,1-.88-.07Zm1.62,0,.94-3a6.71,6.71,0,0,1,.91-.07,6.11,6.11,0,0,1,.86.07l-1.18,2.94,1.41,3.13a5.45,5.45,0,0,1-.87.07,4.76,4.76,0,0,1-.84-.07Z" transform="translate(0 2.47)"/><path class="cls-18" d="M228,21.73a1.27,1.27,0,0,0,.5,1,2,2,0,0,0,1.18.32,4.65,4.65,0,0,0,.82-.08,4.1,4.1,0,0,0,.8-.22,2.51,2.51,0,0,1,.22.57,2.63,2.63,0,0,1,.11.7,5.67,5.67,0,0,1-2.08.35,4,4,0,0,1-1.46-.23,2.71,2.71,0,0,1-1-.65,2.57,2.57,0,0,1-.57-1,4.26,4.26,0,0,1-.18-1.26,4,4,0,0,1,.19-1.26,2.81,2.81,0,0,1,.56-1,2.51,2.51,0,0,1,.92-.68,3,3,0,0,1,1.28-.26,2.73,2.73,0,0,1,1.14.23,2.33,2.33,0,0,1,.84.61,2.53,2.53,0,0,1,.53.92,3.53,3.53,0,0,1,.17,1.14c0,.15,0,.3,0,.44s0,.26,0,.35Zm2.4-1.16a1.44,1.44,0,0,0-.31-.91,1,1,0,0,0-.81-.35,1.16,1.16,0,0,0-.9.33,1.58,1.58,0,0,0-.37.93Z" transform="translate(0 2.47)"/><path class="cls-18" d="M233.28,18.18l.33-.05.35,0a2,2,0,0,1,.35,0,1.86,1.86,0,0,1,.34.06.63.63,0,0,1,.06.17l.06.23c0,.08,0,.16,0,.25l0,.2a2.81,2.81,0,0,1,.64-.65,1.5,1.5,0,0,1,.94-.29l.27,0a.67.67,0,0,1,.23,0q0,.12,0,.27c0,.1,0,.21,0,.32s0,.28,0,.43,0,.31-.07.45a1.29,1.29,0,0,0-.29,0h-.19a2.48,2.48,0,0,0-.45,0,.87.87,0,0,0-.47.21,1.37,1.37,0,0,0-.38.53,2.61,2.61,0,0,0-.15,1v2.88a3,3,0,0,1-.42,0h-.82a3.34,3.34,0,0,1-.43,0Z" transform="translate(0 2.47)"/><path class="cls-18" d="M242,22.82a2.53,2.53,0,0,1,.24.55,2.6,2.6,0,0,1,.09.73,3.23,3.23,0,0,1-.88.24,6.17,6.17,0,0,1-.87.05,3.4,3.4,0,0,1-1.33-.24,2.57,2.57,0,0,1-.94-.66,2.73,2.73,0,0,1-.56-1,4,4,0,0,1-.19-1.27,4.13,4.13,0,0,1,.18-1.24,2.85,2.85,0,0,1,.56-1,2.43,2.43,0,0,1,.92-.68,3.22,3.22,0,0,1,1.29-.25h.48l.42.05.4.1a3.39,3.39,0,0,1,.45.15,3,3,0,0,1-.29,1.24,4.16,4.16,0,0,0-.63-.16,5.16,5.16,0,0,0-.6,0,1.32,1.32,0,0,0-1.11.48,2.15,2.15,0,0,0-.37,1.35,2,2,0,0,0,.4,1.39,1.41,1.41,0,0,0,1.09.43H241l.29,0,.29-.07Z" transform="translate(0 2.47)"/><path class="cls-18" d="M243.79,19.45H243a3.06,3.06,0,0,1-.05-.32c0-.11,0-.22,0-.32a3.29,3.29,0,0,1,.07-.63h2.44v6.07a4.9,4.9,0,0,1-1.65,0Zm.71-3.64a8.47,8.47,0,0,1,1.07-.07l.52,0,.46.05-1.79,1.45-.36,0a3.19,3.19,0,0,1-.45,0,5.12,5.12,0,0,1-.77-.07Z" transform="translate(0 2.47)"/><path class="cls-18" d="M251.19,22.82a2.13,2.13,0,0,1,.24.55,2.6,2.6,0,0,1,.09.73,3.23,3.23,0,0,1-.88.24,6.17,6.17,0,0,1-.87.05,3.4,3.4,0,0,1-1.33-.24,2.57,2.57,0,0,1-.94-.66,2.73,2.73,0,0,1-.56-1,4,4,0,0,1-.19-1.27,4.13,4.13,0,0,1,.18-1.24,2.85,2.85,0,0,1,.56-1,2.51,2.51,0,0,1,.92-.68A3.26,3.26,0,0,1,249.7,18h.48l.42.05.4.1a3.39,3.39,0,0,1,.45.15,3,3,0,0,1-.29,1.24,4.39,4.39,0,0,0-.62-.16,5.35,5.35,0,0,0-.61,0,1.32,1.32,0,0,0-1.11.48,2.21,2.21,0,0,0-.37,1.35,2,2,0,0,0,.4,1.39,1.41,1.41,0,0,0,1.09.43h.32l.29,0,.29-.07Z" transform="translate(0 2.47)"/><path class="cls-18" d="M253,19.45h-.8a3.06,3.06,0,0,1-.05-.32c0-.11,0-.22,0-.32a3.29,3.29,0,0,1,.07-.63h2.44v6.07a4.81,4.81,0,0,1-.83.07,4.59,4.59,0,0,1-.81-.07Zm-.25-2.29a4.19,4.19,0,0,1-.07-.78,4.37,4.37,0,0,1,.07-.79l.43-.05.42,0,.44,0,.43.05a2.6,2.6,0,0,1,.05.39c0,.13,0,.26,0,.4s0,.25,0,.38a2.57,2.57,0,0,1-.05.4,2.82,2.82,0,0,1-.43.05h-.86A2.82,2.82,0,0,1,252.79,17.16Z" transform="translate(0 2.47)"/><path class="cls-18" d="M258.92,24.39a3.16,3.16,0,0,1-1.29-.24,2.38,2.38,0,0,1-.91-.67,2.86,2.86,0,0,1-.55-1,4.13,4.13,0,0,1-.18-1.24,4.26,4.26,0,0,1,.18-1.26,3,3,0,0,1,.55-1,2.48,2.48,0,0,1,.91-.67,3.16,3.16,0,0,1,1.29-.25,3.24,3.24,0,0,1,1.3.25,2.52,2.52,0,0,1,.92.67,2.79,2.79,0,0,1,.55,1,4.62,4.62,0,0,1,.17,1.26,4.48,4.48,0,0,1-.17,1.24,2.71,2.71,0,0,1-.55,1,2.41,2.41,0,0,1-.92.67A3.24,3.24,0,0,1,258.92,24.39Zm0-1.26a1,1,0,0,0,.95-.49,2.81,2.81,0,0,0,.29-1.4,2.85,2.85,0,0,0-.29-1.41,1.17,1.17,0,0,0-1.89,0,2.85,2.85,0,0,0-.29,1.41,2.81,2.81,0,0,0,.29,1.4A1,1,0,0,0,258.92,23.13Z" transform="translate(0 2.47)"/><path class="cls-18" d="M271.4,22.66a5.4,5.4,0,0,1,.25.67,4.15,4.15,0,0,1,.15.7,5.16,5.16,0,0,1-1.1.29,7.07,7.07,0,0,1-1.06.07,4.36,4.36,0,0,1-1.76-.32,3.45,3.45,0,0,1-1.27-.9,3.9,3.9,0,0,1-.78-1.38,5.67,5.67,0,0,1-.26-1.74,5.38,5.38,0,0,1,.27-1.74,4.2,4.2,0,0,1,.79-1.39,3.43,3.43,0,0,1,1.26-.92,4.21,4.21,0,0,1,1.71-.33,8.4,8.4,0,0,1,1,.07,4.68,4.68,0,0,1,1,.3,2.29,2.29,0,0,1-.14.68c-.08.23-.17.45-.26.68a4.82,4.82,0,0,0-.73-.2,4.26,4.26,0,0,0-.76-.06,2.13,2.13,0,0,0-1.74.73,3.33,3.33,0,0,0-.61,2.18c0,1.91.81,2.86,2.45,2.86a4.33,4.33,0,0,0,.76-.05A6.09,6.09,0,0,0,271.4,22.66Z" transform="translate(0 2.47)"/><path class="cls-18" d="M272.74,18.18a6.2,6.2,0,0,1,.84-.07,6,6,0,0,1,.84.07V21.4a3.37,3.37,0,0,0,.08.79,1.17,1.17,0,0,0,.24.5.8.8,0,0,0,.39.25,1.84,1.84,0,0,0,.56.08,3,3,0,0,0,.73-.08V18.18a5.93,5.93,0,0,1,.83-.07,6.2,6.2,0,0,1,.84.07V24a9.63,9.63,0,0,1-1,.25,6.91,6.91,0,0,1-1.3.12,7.15,7.15,0,0,1-1.15-.09,2.31,2.31,0,0,1-1-.4A2.08,2.08,0,0,1,273,23a4.17,4.17,0,0,1-.25-1.56Z" transform="translate(0 2.47)"/><path class="cls-18" d="M279.61,18.18l.33-.05.37,0,.35,0,.32.05a.54.54,0,0,1,.07.17c0,.08,0,.16.05.24a2,2,0,0,1,0,.24c0,.08,0,.14,0,.2a1.61,1.61,0,0,1,.25-.35,1.45,1.45,0,0,1,.37-.32,2.28,2.28,0,0,1,.47-.23,1.89,1.89,0,0,1,.6-.09,1.73,1.73,0,0,1,1.83,1.08,2.27,2.27,0,0,1,.67-.75,1.75,1.75,0,0,1,1.09-.33,1.89,1.89,0,0,1,1.53.57,2.67,2.67,0,0,1,.49,1.78v3.86a5,5,0,0,1-1.67,0V20.82a2.47,2.47,0,0,0-.16-1,.64.64,0,0,0-.65-.34,1.32,1.32,0,0,0-.39.06.86.86,0,0,0-.36.22,1.22,1.22,0,0,0-.26.44,2.23,2.23,0,0,0-.1.75v3.27a4.76,4.76,0,0,1-.84.07,4.92,4.92,0,0,1-.84-.07V20.82a2.3,2.3,0,0,0-.16-1,.63.63,0,0,0-.64-.34,1.39,1.39,0,0,0-.4.06.7.7,0,0,0-.36.23,1.23,1.23,0,0,0-.26.47,2.94,2.94,0,0,0-.09.8v3.18a5.07,5.07,0,0,1-1.68,0Z" transform="translate(0 2.47)"/><path class="cls-18" d="M289.89,18.18a6.07,6.07,0,0,1,.84-.07,6,6,0,0,1,.84.07V21.4a2.91,2.91,0,0,0,.08.79,1.29,1.29,0,0,0,.23.5.88.88,0,0,0,.4.25,1.82,1.82,0,0,0,.55.08,3,3,0,0,0,.74-.08V18.18a5,5,0,0,1,1.66,0V24a8.47,8.47,0,0,1-1,.25,6.73,6.73,0,0,1-1.29.12,7.27,7.27,0,0,1-1.16-.09,2.27,2.27,0,0,1-1-.4,2.08,2.08,0,0,1-.67-.89,4,4,0,0,1-.25-1.56Z" transform="translate(0 2.47)"/><path class="cls-18" d="M296.71,15.67a4.76,4.76,0,0,1,.84-.07,4.81,4.81,0,0,1,.83.07v6.16a3.13,3.13,0,0,0,0,.59.75.75,0,0,0,.13.35.44.44,0,0,0,.23.17,1.13,1.13,0,0,0,.35,0l.21,0,.22,0a3.87,3.87,0,0,1,.13.94v.17a.55.55,0,0,1,0,.17,2.29,2.29,0,0,1-.45.08,4.27,4.27,0,0,1-.49,0,2,2,0,0,1-1.46-.5,2.07,2.07,0,0,1-.55-1.62Z" transform="translate(0 2.47)"/><path class="cls-18" d="M303.63,20.26a1,1,0,0,0-.09-.46.68.68,0,0,0-.26-.27,1.16,1.16,0,0,0-.41-.14,4.39,4.39,0,0,0-.54,0,4.28,4.28,0,0,0-1.35.24,2.75,2.75,0,0,1-.25-.57,2.1,2.1,0,0,1-.08-.65,6.43,6.43,0,0,1,1-.25,5.74,5.74,0,0,1,1-.09,2.88,2.88,0,0,1,1.92.59,2.31,2.31,0,0,1,.7,1.88V24a9.31,9.31,0,0,1-1,.25,7.6,7.6,0,0,1-1.33.11,5.45,5.45,0,0,1-1.11-.1,2.47,2.47,0,0,1-.86-.35,1.72,1.72,0,0,1-.56-.64,2.09,2.09,0,0,1-.19-.95,1.73,1.73,0,0,1,.24-.94,1.75,1.75,0,0,1,.63-.61,2.43,2.43,0,0,1,.85-.33,4.38,4.38,0,0,1,.95-.1l.75,0Zm0,1.21-.3,0-.3,0a1.7,1.7,0,0,0-.91.21.7.7,0,0,0-.34.66.73.73,0,0,0,.13.47.79.79,0,0,0,.31.24,1.24,1.24,0,0,0,.39.09,2.43,2.43,0,0,0,.36,0l.36,0,.3-.05Z" transform="translate(0 2.47)"/><path class="cls-18" d="M306.92,19.45h-.77l-.06-.23,2.21-2.81h.27v1.77H310a2.3,2.3,0,0,1,.05.32,2.71,2.71,0,0,1,0,.29c0,.11,0,.22,0,.32a2.33,2.33,0,0,1-.05.34h-1.43v2.38a2.32,2.32,0,0,0,.06.59.88.88,0,0,0,.17.35.57.57,0,0,0,.28.18,1.48,1.48,0,0,0,.39.05,2,2,0,0,0,.35,0l.3-.06a1.91,1.91,0,0,1,.12.47,3.62,3.62,0,0,1,0,.43c0,.08,0,.16,0,.21a.88.88,0,0,1,0,.17,4.64,4.64,0,0,1-1.12.13,2.35,2.35,0,0,1-1.64-.5,2,2,0,0,1-.57-1.62Z" transform="translate(0 2.47)"/><path class="cls-18" d="M311.61,19.45h-.79a1.64,1.64,0,0,1-.05-.32,1.77,1.77,0,0,1,0-.32,2.65,2.65,0,0,1,.07-.63h2.43v6.07a4.84,4.84,0,0,1-1.64,0Zm-.25-2.29a4.19,4.19,0,0,1-.07-.78,4.37,4.37,0,0,1,.07-.79l.43-.05.42,0,.44,0,.44.05a2.58,2.58,0,0,1,0,.39c0,.13,0,.26,0,.4s0,.25,0,.38a2.58,2.58,0,0,1,0,.4,3,3,0,0,1-.43.05h-.86A3,3,0,0,1,311.36,17.16Z" transform="translate(0 2.47)"/><path class="cls-18" d="M314.14,18.2a2.58,2.58,0,0,1,.52-.07l.42,0,.48,0a2,2,0,0,1,.43.05l1.34,4.52,1.31-4.52.43-.05.45,0,.4,0a2.76,2.76,0,0,1,.53.07l-2.32,6.05a3.39,3.39,0,0,1-.47.05h-.81a2.79,2.79,0,0,1-.43-.06Z" transform="translate(0 2.47)"/><path class="cls-18" d="M323.69,24.39a3.24,3.24,0,0,1-1.3-.24,2.45,2.45,0,0,1-.91-.67,2.84,2.84,0,0,1-.54-1,4.13,4.13,0,0,1-.18-1.24,4.26,4.26,0,0,1,.18-1.26,2.93,2.93,0,0,1,.54-1,2.57,2.57,0,0,1,.91-.67,3.24,3.24,0,0,1,1.3-.25,3.28,3.28,0,0,1,1.3.25,2.61,2.61,0,0,1,.92.67,2.93,2.93,0,0,1,.54,1,4.26,4.26,0,0,1,.18,1.26,4.13,4.13,0,0,1-.18,1.24,2.84,2.84,0,0,1-.54,1,2.49,2.49,0,0,1-.92.67A3.28,3.28,0,0,1,323.69,24.39Zm0-1.26a1,1,0,0,0,.95-.49,2.81,2.81,0,0,0,.29-1.4,2.85,2.85,0,0,0-.29-1.41,1,1,0,0,0-.95-.48,1,1,0,0,0-.94.48,2.75,2.75,0,0,0-.29,1.41,2.71,2.71,0,0,0,.29,1.4A1,1,0,0,0,323.69,23.13Z" transform="translate(0 2.47)"/><path class="cls-18" d="M334.22,15.67l.42-.05h.82l.42.05v8.38a8.43,8.43,0,0,1-1.13.26,10.7,10.7,0,0,1-1.38.08,4,4,0,0,1-1.2-.17,2.59,2.59,0,0,1-1-.54,2.43,2.43,0,0,1-.7-.95,3.61,3.61,0,0,1-.25-1.44,3.56,3.56,0,0,1,.22-1.26,2.94,2.94,0,0,1,.62-1,3.15,3.15,0,0,1,1-.69,3.19,3.19,0,0,1,1.29-.25h.44a3.25,3.25,0,0,1,.45.08Zm0,3.77-.39-.08h-.37a1.45,1.45,0,0,0-.68.15,1.52,1.52,0,0,0-.48.43,1.86,1.86,0,0,0-.28.62,3.05,3.05,0,0,0-.08.74,2.43,2.43,0,0,0,.11.82,1.33,1.33,0,0,0,.33.53,1.16,1.16,0,0,0,.49.29,2,2,0,0,0,.61.09l.37,0a2,2,0,0,0,.37-.07Z" transform="translate(0 2.47)"/><path class="cls-18" d="M338.84,21.73a1.26,1.26,0,0,0,.49,1,2,2,0,0,0,1.18.32,4.76,4.76,0,0,0,.83-.08,4,4,0,0,0,.79-.22,3.07,3.07,0,0,1,.23.57,2.63,2.63,0,0,1,.1.7,5.64,5.64,0,0,1-2.08.35,4,4,0,0,1-1.46-.23,2.8,2.8,0,0,1-1-.65,2.69,2.69,0,0,1-.56-1,4.27,4.27,0,0,1,0-2.52,3,3,0,0,1,.56-1,2.6,2.6,0,0,1,.92-.68,3.06,3.06,0,0,1,1.29-.26,2.71,2.71,0,0,1,1.13.23,2.46,2.46,0,0,1,.85.61,2.51,2.51,0,0,1,.52.92,3.54,3.54,0,0,1,.18,1.14c0,.15,0,.3,0,.44a2.43,2.43,0,0,1,0,.35Zm2.4-1.16a1.45,1.45,0,0,0-.32-.91,1,1,0,0,0-.81-.35,1.19,1.19,0,0,0-.9.33,1.58,1.58,0,0,0-.36.93Z" transform="translate(0 2.47)"/><path class="cls-18" d="M348.28,17.27h-1.41a3.48,3.48,0,0,1-.05-.36c0-.13,0-.26,0-.38a3.38,3.38,0,0,1,.07-.72H350V22a2.77,2.77,0,0,1-.2,1.1,2,2,0,0,1-.57.74,2.24,2.24,0,0,1-.85.41,4.08,4.08,0,0,1-1.07.13l-.5,0a5,5,0,0,1-.58-.11c0-.05,0-.11,0-.16a1.09,1.09,0,0,1,0-.18,3.17,3.17,0,0,1,.2-1.08l.28.06a1.75,1.75,0,0,0,.32,0l.43,0a.87.87,0,0,0,.41-.14.91.91,0,0,0,.3-.34,1.33,1.33,0,0,0,.13-.66Z" transform="translate(0 2.47)"/><path class="cls-18" d="M351.49,18.18a6.07,6.07,0,0,1,.84-.07,6,6,0,0,1,.84.07V21.4a2.91,2.91,0,0,0,.08.79,1.29,1.29,0,0,0,.23.5.88.88,0,0,0,.4.25,1.82,1.82,0,0,0,.55.08,3,3,0,0,0,.74-.08V18.18a5,5,0,0,1,1.66,0V24a8.47,8.47,0,0,1-1,.25,6.73,6.73,0,0,1-1.29.12,7.27,7.27,0,0,1-1.16-.09,2.27,2.27,0,0,1-1-.4,2.08,2.08,0,0,1-.67-.89,4,4,0,0,1-.25-1.56Z" transform="translate(0 2.47)"/><path class="cls-18" d="M358.36,18.18l.33-.05.35,0a2,2,0,0,1,.35,0,1.86,1.86,0,0,1,.34.06.63.63,0,0,1,.06.17l.06.23c0,.08,0,.16,0,.25l0,.2a2.81,2.81,0,0,1,.64-.65,1.5,1.5,0,0,1,.94-.29l.27,0a.67.67,0,0,1,.23,0q0,.12,0,.27c0,.1,0,.21,0,.32s0,.28,0,.43,0,.31-.07.45a1.29,1.29,0,0,0-.29,0h-.19a2.48,2.48,0,0,0-.45,0,.87.87,0,0,0-.47.21,1.37,1.37,0,0,0-.38.53,2.63,2.63,0,0,0-.14,1v2.88a3.34,3.34,0,0,1-.43,0h-.82a3.34,3.34,0,0,1-.43,0Z" transform="translate(0 2.47)"/><path class="cls-18" d="M363.44,19.45h-.79a3,3,0,0,1-.06-.32c0-.11,0-.22,0-.32a2.65,2.65,0,0,1,.07-.63h2.43v6.07a4.73,4.73,0,0,1-.83.07,4.59,4.59,0,0,1-.81-.07Zm-.25-2.29a4.19,4.19,0,0,1-.07-.78,4.37,4.37,0,0,1,.07-.79l.43-.05.42,0,.44,0,.43.05a2.6,2.6,0,0,1,0,.39c0,.13,0,.26,0,.4s0,.25,0,.38a2.57,2.57,0,0,1,0,.4,2.68,2.68,0,0,1-.43.05h-.85A2.81,2.81,0,0,1,363.19,17.16Z" transform="translate(0 2.47)"/><path class="cls-18" d="M367.92,21.61a2.3,2.3,0,0,1-1-.56,1.47,1.47,0,0,1-.37-1.11,1.66,1.66,0,0,1,.65-1.39,2.72,2.72,0,0,1,1.75-.51,4.6,4.6,0,0,1,.91.09,5.33,5.33,0,0,1,.91.24,4,4,0,0,1-.12.64,3.39,3.39,0,0,1-.22.57,3.58,3.58,0,0,0-.63-.2,2.84,2.84,0,0,0-.72-.09,1.36,1.36,0,0,0-.63.12.41.41,0,0,0-.22.39.4.4,0,0,0,.16.37,2.18,2.18,0,0,0,.45.2l.68.2a2.9,2.9,0,0,1,.59.23,1.74,1.74,0,0,1,.46.33,1.48,1.48,0,0,1,.29.49,2.18,2.18,0,0,1,.11.72,1.85,1.85,0,0,1-.18.81,2,2,0,0,1-.53.65,3,3,0,0,1-.85.44,3.89,3.89,0,0,1-1.12.15h-.52l-.46-.06-.43-.1a4.27,4.27,0,0,1-.46-.16,3.47,3.47,0,0,1,.11-.63,4.29,4.29,0,0,1,.23-.63,5.15,5.15,0,0,0,.74.23,3.48,3.48,0,0,0,.73.07l.36,0a1.36,1.36,0,0,0,.36-.1,1,1,0,0,0,.28-.2.55.55,0,0,0-.06-.73,2.18,2.18,0,0,0-.48-.22Z" transform="translate(0 2.47)"/><path class="cls-18" d="M375.83,15.67l.42-.05h.83l.42.05v8.38a8.8,8.8,0,0,1-1.13.26,10.75,10.75,0,0,1-1.39.08,4,4,0,0,1-1.2-.17,2.74,2.74,0,0,1-1-.54,2.51,2.51,0,0,1-.69-.95,3.61,3.61,0,0,1-.25-1.44,3.56,3.56,0,0,1,.22-1.26,2.94,2.94,0,0,1,.62-1,3,3,0,0,1,1-.69,3.19,3.19,0,0,1,1.29-.25h.44a3.11,3.11,0,0,1,.44.08Zm0,3.77-.38-.08h-.37a1.45,1.45,0,0,0-.68.15,1.42,1.42,0,0,0-.48.43,1.68,1.68,0,0,0-.28.62,3.06,3.06,0,0,0-.09.74,2.41,2.41,0,0,0,.12.82,1.33,1.33,0,0,0,.33.53,1.11,1.11,0,0,0,.49.29,2,2,0,0,0,.61.09l.37,0a1.75,1.75,0,0,0,.36-.07Z" transform="translate(0 2.47)"/><path class="cls-18" d="M379.45,19.45h-.79a1.64,1.64,0,0,1-.05-.32,1.77,1.77,0,0,1,0-.32,2.65,2.65,0,0,1,.07-.63h2.43v6.07a4.84,4.84,0,0,1-1.64,0Zm-.25-2.29a4.19,4.19,0,0,1-.07-.78,4.37,4.37,0,0,1,.07-.79l.43-.05.42,0,.44,0,.44.05a2.58,2.58,0,0,1,0,.39c0,.13,0,.26,0,.4s0,.25,0,.38a2.58,2.58,0,0,1,0,.4,3,3,0,0,1-.43.05h-.86A3,3,0,0,1,379.2,17.16Z" transform="translate(0 2.47)"/><path class="cls-18" d="M384.65,24.32a2.93,2.93,0,0,1-1-.39,2.52,2.52,0,0,1-.7-.68,2.86,2.86,0,0,1-.42-.92,4.38,4.38,0,0,1-.14-1.11,4.13,4.13,0,0,1,.19-1.24,2.83,2.83,0,0,1,.55-1,2.55,2.55,0,0,1,.93-.68,3.22,3.22,0,0,1,1.29-.25h.48l.42.05.4.1a4.72,4.72,0,0,1,.45.15,3.46,3.46,0,0,1-.07.6,2.71,2.71,0,0,1-.23.64,3.79,3.79,0,0,0-.62-.16,5.35,5.35,0,0,0-.61,0,1.3,1.3,0,0,0-1.1.48,2.15,2.15,0,0,0-.37,1.35,2,2,0,0,0,.4,1.39,1.4,1.4,0,0,0,1.08.43h.33l.29,0,.29-.07.35-.12a2.53,2.53,0,0,1,.23.55,2.26,2.26,0,0,1,.1.73,3.71,3.71,0,0,1-.88.23,5.67,5.67,0,0,1-.85.06l-.19.48h.19a1.51,1.51,0,0,1,1,.29.9.9,0,0,1,.35.73,1,1,0,0,1-.51.91,2.58,2.58,0,0,1-1.32.3h-.42A2.8,2.8,0,0,1,384,27q0-.19.06-.42a1,1,0,0,1,.15-.41l.38.09.36,0a1.6,1.6,0,0,0,.53-.08.3.3,0,0,0,.2-.28.28.28,0,0,0-.19-.28,1.37,1.37,0,0,0-.5-.08l-.36,0a1.35,1.35,0,0,0-.36.08l-.08-.08Z" transform="translate(0 2.47)"/><path class="cls-18" d="M391.41,20.26a.9.9,0,0,0-.1-.46.68.68,0,0,0-.26-.27,1.11,1.11,0,0,0-.4-.14,4.63,4.63,0,0,0-.54,0,4.29,4.29,0,0,0-1.36.24,3.42,3.42,0,0,1-.25-.57,2.46,2.46,0,0,1-.08-.65,6.3,6.3,0,0,1,1-.25,5.65,5.65,0,0,1,1-.09,2.88,2.88,0,0,1,1.92.59,2.34,2.34,0,0,1,.69,1.88V24a9.31,9.31,0,0,1-1,.25,7.52,7.52,0,0,1-1.33.11,5.52,5.52,0,0,1-1.11-.1,2.47,2.47,0,0,1-.86-.35,1.7,1.7,0,0,1-.55-.64,2.09,2.09,0,0,1-.2-.95,1.73,1.73,0,0,1,.24-.94,1.75,1.75,0,0,1,.63-.61,2.48,2.48,0,0,1,.86-.33,4.29,4.29,0,0,1,.94-.1l.76,0Zm-2.94-4a1.51,1.51,0,0,1,.52-.44,1.45,1.45,0,0,1,.76-.19,1.31,1.31,0,0,1,.44.07l.4.14L391,16a1.54,1.54,0,0,0,.43.06,1.52,1.52,0,0,0,.38-.05,1.36,1.36,0,0,0,.43-.31,2.14,2.14,0,0,1,.32.45,1.94,1.94,0,0,1,.18.49,1.64,1.64,0,0,1-.53.43,1.68,1.68,0,0,1-.77.17,1.29,1.29,0,0,1-.43-.07l-.42-.14-.41-.14a1.52,1.52,0,0,0-.42-.06,1.14,1.14,0,0,0-.39.06,1.59,1.59,0,0,0-.42.3,4.27,4.27,0,0,1-.3-.44A1.26,1.26,0,0,1,388.47,16.31Zm2.94,5.16-.31,0-.29,0a1.72,1.72,0,0,0-.92.21.7.7,0,0,0-.34.66.8.8,0,0,0,.13.47A.75.75,0,0,0,390,23a1.24,1.24,0,0,0,.39.09,2.3,2.3,0,0,0,.36,0l.35,0,.31-.05Z" transform="translate(0 2.47)"/><path class="cls-18" d="M397.12,24.39a3.24,3.24,0,0,1-1.3-.24,2.45,2.45,0,0,1-.91-.67,2.84,2.84,0,0,1-.54-1,4.13,4.13,0,0,1-.18-1.24,4.26,4.26,0,0,1,.18-1.26,2.93,2.93,0,0,1,.54-1,2.57,2.57,0,0,1,.91-.67,3.24,3.24,0,0,1,1.3-.25,3.28,3.28,0,0,1,1.3.25,2.61,2.61,0,0,1,.92.67,2.93,2.93,0,0,1,.54,1,4.26,4.26,0,0,1,.18,1.26,4.13,4.13,0,0,1-.18,1.24,2.84,2.84,0,0,1-.54,1,2.49,2.49,0,0,1-.92.67A3.28,3.28,0,0,1,397.12,24.39Zm0-1.26a1,1,0,0,0,.95-.49,2.81,2.81,0,0,0,.29-1.4,2.85,2.85,0,0,0-.29-1.41,1,1,0,0,0-.95-.48,1,1,0,0,0-.94.48,2.75,2.75,0,0,0-.29,1.41,2.71,2.71,0,0,0,.29,1.4A1,1,0,0,0,397.12,23.13Z" transform="translate(0 2.47)"/><path class="cls-18" d="M127.37,34.16h-2.12a3.64,3.64,0,0,1-.07-.74,3.38,3.38,0,0,1,.07-.72h6a4.18,4.18,0,0,1,.07.72,4.53,4.53,0,0,1-.07.74H129.1v7l-.42,0-.42,0h-.43l-.46,0Z" transform="translate(0 2.47)"/><path class="cls-18" d="M132.49,32.7l1-.1c.3,0,.64,0,1,0a6.85,6.85,0,0,1,1.28.12,3.3,3.3,0,0,1,1.14.41,2.35,2.35,0,0,1,.82.81,2.45,2.45,0,0,1,.32,1.3,2.56,2.56,0,0,1-.42,1.46,3.07,3.07,0,0,1-.4.46,3.12,3.12,0,0,1-.4.31l-.2.13,2.07,3.57-.5,0-.53,0a5.26,5.26,0,0,1-.89-.07l-2.22-3.92.28-.14.41-.21a3.22,3.22,0,0,0,.45-.33,1.57,1.57,0,0,0,.37-.47,1.51,1.51,0,0,0-.27-1.73,1.63,1.63,0,0,0-1.1-.35,3.38,3.38,0,0,0-.47,0v7.13l-.43,0-.41,0H133l-.46,0Z" transform="translate(0 2.47)"/><path class="cls-18" d="M141.05,34.16h-2.12a4.53,4.53,0,0,1-.07-.74,4.18,4.18,0,0,1,.07-.72h6a3.38,3.38,0,0,1,.07.72,3.64,3.64,0,0,1-.07.74h-2.11v7l-.43,0-.41,0h-.43l-.47,0Z" transform="translate(0 2.47)"/><path class="cls-18" d="M152.36,32.56l.42-.05h.82l.42.05v8.38a8.62,8.62,0,0,1-1.12.25,9.25,9.25,0,0,1-1.39.09,4.3,4.3,0,0,1-1.2-.17,2.67,2.67,0,0,1-1-.54,2.45,2.45,0,0,1-.69-1,3.89,3.89,0,0,1,0-2.69,2.92,2.92,0,0,1,.63-1,2.83,2.83,0,0,1,1-.68,3.2,3.2,0,0,1,1.29-.26l.44,0a2.11,2.11,0,0,1,.45.08Zm0,3.77a3,3,0,0,0-.39-.08l-.37,0a1.45,1.45,0,0,0-.68.16,1.62,1.62,0,0,0-.48.42,1.79,1.79,0,0,0-.27.63,3,3,0,0,0-.09.74,2.49,2.49,0,0,0,.12.82,1.22,1.22,0,0,0,.32.53,1.16,1.16,0,0,0,.49.29,2,2,0,0,0,.61.09l.37,0a2.07,2.07,0,0,0,.37-.08Z" transform="translate(0 2.47)"/><path class="cls-18" d="M158.69,37.15a1,1,0,0,0-.09-.46.68.68,0,0,0-.26-.27,1,1,0,0,0-.41-.14,4.26,4.26,0,0,0-.54,0,4.37,4.37,0,0,0-1.36.25,3.42,3.42,0,0,1-.25-.57,2.46,2.46,0,0,1-.08-.65,6.59,6.59,0,0,1,1-.26,6.9,6.9,0,0,1,1-.08,2.88,2.88,0,0,1,1.92.59,2.32,2.32,0,0,1,.69,1.87v3.53a9.29,9.29,0,0,1-1,.24,6.81,6.81,0,0,1-1.34.12,5.35,5.35,0,0,1-1.1-.1,2.45,2.45,0,0,1-.87-.36,1.6,1.6,0,0,1-.55-.63,2.12,2.12,0,0,1-.2-.95,1.77,1.77,0,0,1,.25-1,2,2,0,0,1,.62-.61,3,3,0,0,1,.86-.33,5,5,0,0,1,.94-.1c.23,0,.49,0,.76,0Zm0,1.21-.31,0a1.52,1.52,0,0,0-.29,0,1.85,1.85,0,0,0-.92.2.78.78,0,0,0,.11,1.38,1.24,1.24,0,0,0,.39.09l.36,0a2,2,0,0,0,.35,0l.31-.05Z" transform="translate(0 2.47)"/><path class="cls-18" d="M165.57,37.76l1.58-2.84h-2.6a3.42,3.42,0,0,1-.07-.71,3.38,3.38,0,0,1,.07-.72h4.94l.12.2-1.9,3.13h0a1.92,1.92,0,0,1,.84.18,1.8,1.8,0,0,1,.62.46,2,2,0,0,1,.39.66,2.28,2.28,0,0,1,.14.77,3.2,3.2,0,0,1-.26,1.32,2.61,2.61,0,0,1-.72.95,3.23,3.23,0,0,1-1.09.57,4.56,4.56,0,0,1-1.36.2l-.63,0a3,3,0,0,1-.53-.07l-.52-.12-.57-.18a3.11,3.11,0,0,1,.13-.73,3.16,3.16,0,0,1,.28-.64c.3.09.58.17.84.23a4.22,4.22,0,0,0,.92.09,2.71,2.71,0,0,0,.71-.08,1.78,1.78,0,0,0,.59-.27,1.39,1.39,0,0,0,.4-.47,1.55,1.55,0,0,0,.14-.68,1,1,0,0,0-.13-.51,1.16,1.16,0,0,0-.34-.36,1.5,1.5,0,0,0-.5-.2,2.22,2.22,0,0,0-.59-.07h-.41a2.7,2.7,0,0,0-.41.07Z" transform="translate(0 2.47)"/><path class="cls-18" d="M174.06,34.41c0-.27-.08-.45-.25-.52a1.81,1.81,0,0,0-.74-.12,3.08,3.08,0,0,0-.51,0,3.53,3.53,0,0,0-.54.13,1.56,1.56,0,0,1-.22-.45,1.62,1.62,0,0,1-.08-.52,6.39,6.39,0,0,1,.84-.2,4.48,4.48,0,0,1,.77-.07,2.29,2.29,0,0,1,1.51.45,1.77,1.77,0,0,1,.55,1.45v2.67c-.21.06-.47.12-.81.19a5,5,0,0,1-1,.1,4,4,0,0,1-.88-.09,2.14,2.14,0,0,1-.67-.27,1.35,1.35,0,0,1-.43-.49,1.59,1.59,0,0,1-.15-.72,1.34,1.34,0,0,1,.19-.74,1.23,1.23,0,0,1,.49-.47,2.34,2.34,0,0,1,.67-.26,3.88,3.88,0,0,1,.75-.07h.28l.27,0Zm0,.92-.21,0h-.23a1.38,1.38,0,0,0-.7.14.52.52,0,0,0-.25.49.44.44,0,0,0,.1.32.66.66,0,0,0,.24.17l.3.06h.54l.21,0Z" transform="translate(0 2.47)"/><path class="cls-18" d="M180.09,32.7l1-.1c.3,0,.64,0,1,0a6.85,6.85,0,0,1,1.28.12,3.3,3.3,0,0,1,1.14.41,2.35,2.35,0,0,1,.82.81,2.45,2.45,0,0,1,.31,1.3,2.64,2.64,0,0,1-.12.83,2,2,0,0,1-.3.63,2.55,2.55,0,0,1-.39.46,3.12,3.12,0,0,1-.4.31l-.2.13,2.06,3.57-.49,0-.54,0a5.22,5.22,0,0,1-.88-.07l-2.22-3.92.28-.14.4-.21a2.79,2.79,0,0,0,.46-.33,1.75,1.75,0,0,0,.37-.47,1.56,1.56,0,0,0-.27-1.73,1.65,1.65,0,0,0-1.1-.35,3.38,3.38,0,0,0-.47,0v7.13l-.43,0-.41,0h-.43l-.46,0Z" transform="translate(0 2.47)"/><path class="cls-18" d="M188.45,38.62a1.26,1.26,0,0,0,.49,1,2,2,0,0,0,1.18.31,4.62,4.62,0,0,0,.82-.07,4.1,4.1,0,0,0,.8-.22,3.26,3.26,0,0,1,.23.56,2.71,2.71,0,0,1,.1.71,5.85,5.85,0,0,1-2.08.35,4.26,4.26,0,0,1-1.46-.23A2.56,2.56,0,0,1,187,39.4a4.15,4.15,0,0,1-.18-1.25,4,4,0,0,1,.19-1.26,3,3,0,0,1,.56-1,2.75,2.75,0,0,1,.92-.69,3.06,3.06,0,0,1,1.29-.25,2.71,2.71,0,0,1,1.13.22,2.6,2.6,0,0,1,.84.61,2.55,2.55,0,0,1,.53.92,3.6,3.6,0,0,1,.18,1.15c0,.15,0,.3,0,.44s0,.26,0,.35Zm2.39-1.17a1.47,1.47,0,0,0-.31-.91,1,1,0,0,0-.81-.34,1.19,1.19,0,0,0-.9.33,1.55,1.55,0,0,0-.36.92Z" transform="translate(0 2.47)"/><path class="cls-18" d="M197.18,40.13a2.4,2.4,0,0,1,1.58.48,1.62,1.62,0,0,1,.51,1.28,1.66,1.66,0,0,1-.26.9,2.23,2.23,0,0,1-.71.69,3.79,3.79,0,0,1-1.06.43,5.58,5.58,0,0,1-1.33.15,5.22,5.22,0,0,1-1.2-.11,2.54,2.54,0,0,1-.81-.31,1.17,1.17,0,0,1-.45-.49,1.55,1.55,0,0,1-.14-.65,1.43,1.43,0,0,1,.26-.87,2.52,2.52,0,0,1,.68-.6,1.19,1.19,0,0,1-.43-.4,1.08,1.08,0,0,1-.16-.62,1.22,1.22,0,0,1,.19-.72,2,2,0,0,1,.55-.54,2.19,2.19,0,0,1-.64-.72,2.11,2.11,0,0,1,0-1.79,1.88,1.88,0,0,1,.51-.68,2.48,2.48,0,0,1,.82-.45,3.37,3.37,0,0,1,1.09-.17,3.24,3.24,0,0,1,1.09.18,2.8,2.8,0,0,1,.82.47,1.41,1.41,0,0,1,.56-.44,2.22,2.22,0,0,1,.9-.15c0,.1,0,.2,0,.3a3,3,0,0,1,0,.31c0,.13,0,.25,0,.38a2.58,2.58,0,0,1,0,.38h-1a3,3,0,0,1,.11.29,1.69,1.69,0,0,1,0,.43,2,2,0,0,1-.17.85,1.85,1.85,0,0,1-.5.68,2.61,2.61,0,0,1-.81.44,3.31,3.31,0,0,1-1.08.17,3.6,3.6,0,0,1-.91-.11.54.54,0,0,0-.25.28.91.91,0,0,0,0,.27.39.39,0,0,0,.13.31.79.79,0,0,0,.5.13Zm-1.51,1.22a1,1,0,0,0-.44.06.91.91,0,0,0-.27.18.89.89,0,0,0-.14.25.82.82,0,0,0,0,.26.61.61,0,0,0,.34.61,2.2,2.2,0,0,0,.9.16,2.56,2.56,0,0,0,1.2-.24.71.71,0,0,0,.45-.63.85.85,0,0,0,0-.23.34.34,0,0,0-.11-.19.57.57,0,0,0-.23-.15,1.07,1.07,0,0,0-.39-.06Zm.48-3.2a.86.86,0,0,0,.72-.29,1.24,1.24,0,0,0,.21-.77,1.29,1.29,0,0,0-.21-.78,1.05,1.05,0,0,0-1.45,0,1.23,1.23,0,0,0-.23.78,1.18,1.18,0,0,0,.23.77A.87.87,0,0,0,196.15,38.15Z" transform="translate(0 2.47)"/><path class="cls-18" d="M200.77,36.34H200a1.64,1.64,0,0,1,0-.32,1.88,1.88,0,0,1,0-.33,2.56,2.56,0,0,1,.07-.62h2.43v6.07a4.84,4.84,0,0,1-1.64,0Zm-.25-2.29a4.44,4.44,0,0,1,0-1.57c.14,0,.28,0,.43-.06h.86c.16,0,.3,0,.44.06a2.58,2.58,0,0,1,0,.39c0,.13,0,.26,0,.39s0,.26,0,.39a2.71,2.71,0,0,1,0,.4l-.43.05H201Z" transform="translate(0 2.47)"/><path class="cls-18" d="M207.12,37.15a1,1,0,0,0-.1-.46.62.62,0,0,0-.26-.27,1,1,0,0,0-.41-.14,4.24,4.24,0,0,0-.53,0,4.32,4.32,0,0,0-1.36.25,2.75,2.75,0,0,1-.25-.57,2.1,2.1,0,0,1-.08-.65,6.33,6.33,0,0,1,1-.26,6.79,6.79,0,0,1,1-.08,2.92,2.92,0,0,1,1.92.59,2.32,2.32,0,0,1,.69,1.87v3.53a9.53,9.53,0,0,1-1,.24,6.7,6.7,0,0,1-1.33.12,5.52,5.52,0,0,1-1.11-.1,2.48,2.48,0,0,1-.86-.36,1.62,1.62,0,0,1-.56-.63,2.12,2.12,0,0,1-.19-.95,1.76,1.76,0,0,1,.24-1,1.93,1.93,0,0,1,.63-.61,2.89,2.89,0,0,1,.85-.33,5.11,5.11,0,0,1,1-.1c.23,0,.48,0,.76,0Zm-3-4a1.78,1.78,0,0,1,.53-.44,1.55,1.55,0,0,1,.76-.18,1.25,1.25,0,0,1,.43.07,2.83,2.83,0,0,1,.41.14l.41.14a1.67,1.67,0,0,0,.44.06,1.16,1.16,0,0,0,.38-.06,1.18,1.18,0,0,0,.42-.3,1.71,1.71,0,0,1,.32.44,2,2,0,0,1,.19.5,1.64,1.64,0,0,1-.53.43,1.71,1.71,0,0,1-.77.17,1.55,1.55,0,0,1-.43-.07l-.42-.14-.42-.14a1.48,1.48,0,0,0-.42-.07,1.13,1.13,0,0,0-.39.07,1.37,1.37,0,0,0-.41.3c-.11-.14-.21-.29-.31-.44A1.42,1.42,0,0,1,204.17,33.19Zm3,5.17-.31,0a1.62,1.62,0,0,0-.3,0,1.81,1.81,0,0,0-.91.2.72.72,0,0,0-.34.67.73.73,0,0,0,.13.47.79.79,0,0,0,.31.24,1.38,1.38,0,0,0,.39.09l.36,0,.36,0,.31-.05Z" transform="translate(0 2.47)"/><path class="cls-18" d="M212.82,41.28a3.23,3.23,0,0,1-1.29-.24,2.38,2.38,0,0,1-.91-.67,2.84,2.84,0,0,1-.54-1,3.9,3.9,0,0,1-.19-1.25,3.94,3.94,0,0,1,.19-1.25,2.93,2.93,0,0,1,.54-1,2.48,2.48,0,0,1,.91-.67,3.48,3.48,0,0,1,2.59,0,2.52,2.52,0,0,1,.92.67,2.79,2.79,0,0,1,.55,1,4.24,4.24,0,0,1,.18,1.25,4.2,4.2,0,0,1-.18,1.25,2.71,2.71,0,0,1-.55,1,2.41,2.41,0,0,1-.92.67A3.24,3.24,0,0,1,212.82,41.28Zm0-1.27a1,1,0,0,0,1-.48,2.75,2.75,0,0,0,.29-1.41,2.71,2.71,0,0,0-.29-1.4,1.16,1.16,0,0,0-1.89,0,2.81,2.81,0,0,0-.29,1.4,2.85,2.85,0,0,0,.29,1.41A1,1,0,0,0,212.82,40Z" transform="translate(0 2.47)"/><path class="cls-18" d="M220.82,43.1a9,9,0,0,1-.52-1,8,8,0,0,1-.43-1.23,11.13,11.13,0,0,1-.31-1.51,14.95,14.95,0,0,1,0-3.62,11.13,11.13,0,0,1,.31-1.51A8,8,0,0,1,220.3,33a9.84,9.84,0,0,1,.52-1,1.65,1.65,0,0,1,.33-.05l.46,0,.48,0,.4.05a7.9,7.9,0,0,0-.37.7,7.8,7.8,0,0,0-.43,1.16,12.22,12.22,0,0,0-.38,1.6,13.47,13.47,0,0,0,0,4.14,12.57,12.57,0,0,0,.38,1.62,8.07,8.07,0,0,0,.43,1.15,7.9,7.9,0,0,0,.37.7l-.4,0a3.85,3.85,0,0,1-.48,0,3.39,3.39,0,0,1-.46,0A1.65,1.65,0,0,1,220.82,43.1Z" transform="translate(0 2.47)"/><path class="cls-18" d="M224.14,32.7a5.84,5.84,0,0,1,.91-.07,5.49,5.49,0,0,1,.91.07l1.95,4.84,2-4.84a4.18,4.18,0,0,1,.82-.07,4.83,4.83,0,0,1,.86.07l.4,8.44a5.12,5.12,0,0,1-.85.07,4.15,4.15,0,0,1-.79-.07l-.21-5.73-1.73,4-.34,0-.36,0h-.3l-.32,0-1.61-4.05-.16,5.81a3.85,3.85,0,0,1-.74.07,4.26,4.26,0,0,1-.78-.07Z" transform="translate(0 2.47)"/><path class="cls-18" d="M238.23,36.76a5,5,0,0,1,.85-.07,5.15,5.15,0,0,1,.86.07v4.15a6,6,0,0,1-1.28.29,8.58,8.58,0,0,1-1.16.08,4.81,4.81,0,0,1-1.82-.32,3.5,3.5,0,0,1-1.3-.91,3.63,3.63,0,0,1-.78-1.37,5.88,5.88,0,0,1,0-3.49,4.11,4.11,0,0,1,.78-1.39,3.65,3.65,0,0,1,1.27-.91,4.21,4.21,0,0,1,1.71-.33,6.94,6.94,0,0,1,1,.07,4.34,4.34,0,0,1,1,.29,2.65,2.65,0,0,1-.15.69,6.16,6.16,0,0,1-.26.67,4.4,4.4,0,0,0-.73-.19,4.06,4.06,0,0,0-.75-.06,2.15,2.15,0,0,0-1.75.73,3.37,3.37,0,0,0-.61,2.18,3.26,3.26,0,0,0,.61,2.15,2.2,2.2,0,0,0,1.77.71l.36,0,.29-.05Z" transform="translate(0 2.47)"/><path class="cls-18" d="M241.22,43.1c.09-.16.22-.39.36-.7a8,8,0,0,0,.44-1.15,12.68,12.68,0,0,0,.37-1.62,13.47,13.47,0,0,0,0-4.14,12.32,12.32,0,0,0-.37-1.6,7.71,7.71,0,0,0-.44-1.16c-.14-.31-.27-.54-.36-.7a3.34,3.34,0,0,1,.4-.05l.47,0,.47,0a1.53,1.53,0,0,1,.32.05,8.13,8.13,0,0,1,.53,1,8,8,0,0,1,.43,1.23,9.83,9.83,0,0,1,.3,1.51,13.71,13.71,0,0,1,0,3.62,9.83,9.83,0,0,1-.3,1.51,8,8,0,0,1-.43,1.23,7.59,7.59,0,0,1-.53,1,1.53,1.53,0,0,1-.32,0,3.54,3.54,0,0,1-.47,0,3.77,3.77,0,0,1-.47,0Z" transform="translate(0 2.47)"/><line class="cls-19" x1="110.49" y1="10.16" x2="110.33" y2="52"/></svg>