<svg id="Camada_1" data-name="Camada 1" xmlns="http://www.w3.org/2000/svg" xmlns:xlink="http://www.w3.org/1999/xlink" width="386.06" height="58.35" viewBox="0 0 386.06 58.35"><defs><style>.cls-1{fill:#fff;}.cls-2{fill:none;}.cls-3{clip-path:url(#clip-path);}.cls-4{clip-path:url(#clip-path-2);}.cls-5{clip-path:url(#clip-path-3);}.cls-6{clip-path:url(#clip-path-4);}.cls-7{fill:url(#linear-gradient);}.cls-8{clip-path:url(#clip-path-5);}.cls-9{fill:url(#linear-gradient-2);}.cls-10{clip-path:url(#clip-path-6);}.cls-11{clip-path:url(#clip-path-7);}</style><clipPath id="clip-path" transform="translate(0 2.5)"><path class="cls-1" d="M15,7.5a5,5,0,1,0,5-5,5,5,0,0,0-5,5"/></clipPath><clipPath id="clip-path-2" transform="translate(0 2.5)"><path class="cls-1" d="M3.33,14.17v6.67H10a6.67,6.67,0,0,1,6.67,6.67V44.18h6.67V27.51A13.34,13.34,0,0,0,10,14.17Z"/></clipPath><clipPath id="clip-path-3" transform="translate(0 2.5)"><path class="cls-1" d="M3.33,14.17v6.67H10a5.07,5.07,0,0,1,.68,0,13.32,13.32,0,0,1,12.66,13.3V27.51A13.34,13.34,0,0,0,10,14.17Z"/></clipPath><clipPath id="clip-path-4" transform="translate(0 2.5)"><rect class="cls-2" y="24.17" width="13.34" height="6.67"/></clipPath><linearGradient id="linear-gradient" x1="-549.21" y1="514.19" x2="-547.87" y2="514.19" gradientTransform="matrix(9.62, 0, 0, -9.62, 5283.78, 4976.66)" gradientUnits="userSpaceOnUse"><stop offset="0" stop-color="#007b5f"/><stop offset="1" stop-color="#00b388"/></linearGradient><clipPath id="clip-path-5" transform="translate(0 2.5)"><rect class="cls-2" x="23.34" y="14.17" width="13.34" height="6.67"/></clipPath><linearGradient id="linear-gradient-2" x1="-549.68" y1="514.4" x2="-548.34" y2="514.4" gradientTransform="matrix(9.83, 0, 0, -9.83, 5425.7, 5075.49)" gradientUnits="userSpaceOnUse"><stop offset="0" stop-color="#fbdb65"/><stop offset="1" stop-color="#ffcd00"/></linearGradient><clipPath id="clip-path-6" transform="translate(0 2.5)"><path class="cls-1" d="M6.67,34.18v8.34A6.67,6.67,0,0,1,0,49.18v6.67A13.33,13.33,0,0,0,13.34,42.52V34.18Z"/></clipPath><clipPath id="clip-path-7" transform="translate(0 2.5)"><path class="cls-1" d="M.68,49.15c-.22,0-.45,0-.68,0v6.67A13.33,13.33,0,0,0,13.34,42.52V35.85A13.32,13.32,0,0,1,.68,49.15"/></clipPath></defs><title>Logo-GECJ-TRT-Rodape</title><path class="cls-1" d="M15,7.5a5,5,0,1,0,5-5,5,5,0,0,0-5,5" transform="translate(0 2.5)"/><g class="cls-3"><rect class="cls-1" x="12.89" y="0.43" width="14.15" height="14.15" transform="translate(0.54 18.82) rotate(-45)"/></g><path class="cls-1" d="M3.33,14.17v6.67H10a6.67,6.67,0,0,1,6.67,6.67V44.18h6.67V27.51A13.34,13.34,0,0,0,10,14.17Z" transform="translate(0 2.5)"/><g class="cls-4"><rect class="cls-1" x="3.33" y="16.67" width="20.01" height="30.01"/></g><path class="cls-1" d="M3.33,14.17v6.67H10a5.07,5.07,0,0,1,.68,0,13.32,13.32,0,0,1,12.66,13.3V27.51A13.34,13.34,0,0,0,10,14.17Z" transform="translate(0 2.5)"/><g class="cls-5"><rect class="cls-1" x="3.33" y="16.67" width="20.01" height="20.01"/></g><g class="cls-6"><rect class="cls-7" y="26.68" width="13.34" height="6.67"/></g><g class="cls-8"><rect class="cls-9" x="23.34" y="16.67" width="13.34" height="6.67"/></g><path class="cls-1" d="M6.67,34.18v8.34A6.67,6.67,0,0,1,0,49.18v6.67A13.33,13.33,0,0,0,13.34,42.52V34.18Z" transform="translate(0 2.5)"/><g class="cls-10"><rect class="cls-1" y="36.68" width="13.34" height="21.67"/></g><path class="cls-1" d="M.68,49.15c-.22,0-.45,0-.68,0v6.67A13.33,13.33,0,0,0,13.34,42.52V35.85A13.32,13.32,0,0,1,.68,49.15" transform="translate(0 2.5)"/><g class="cls-11"><rect class="cls-1" y="38.35" width="13.34" height="20.01"/></g><path class="cls-1" d="M56.69,27.31v9.52a8.76,8.76,0,0,1-1.57,5.59,5.49,5.49,0,0,1-4.55,1.95A5.5,5.5,0,0,1,46,42.42a8.76,8.76,0,0,1-1.56-5.59V21.23A8.76,8.76,0,0,1,46,15.64a5.5,5.5,0,0,1,4.55-2,5.49,5.49,0,0,1,4.55,2,8.76,8.76,0,0,1,1.57,5.59v2.91H52.81V20.93c0-2-.71-3-2.13-3s-2.12,1-2.12,3v16.2c0,1.94.71,2.91,2.12,2.91s2.13-1,2.13-2.91V31.6H50.94V27.31Z" transform="translate(0 2.5)"/><path class="cls-1" d="M69.06,26.67V31H63.43v8.78h7.09V44H59.33V14H70.52v4.29H63.43v8.35Z" transform="translate(0 2.5)"/><path class="cls-1" d="M85,36.83a8.7,8.7,0,0,1-1.57,5.59,6.28,6.28,0,0,1-9.1,0,8.76,8.76,0,0,1-1.56-5.59V21.23a8.76,8.76,0,0,1,1.56-5.59,6.28,6.28,0,0,1,9.1,0A8.7,8.7,0,0,1,85,21.23v2.91H81.07V20.93c0-2-.71-3-2.13-3s-2.12,1-2.12,3v16.2c0,1.94.71,2.91,2.12,2.91s2.13-1,2.13-2.91V32.84H85Z" transform="translate(0 2.5)"/><path class="cls-1" d="M87.74,39.79a2.32,2.32,0,0,0,1.74-.63,3.17,3.17,0,0,0,.61-2.25V14h4.1V36.57q0,7.55-5.89,7.54a18.73,18.73,0,0,1-2-.08V39.74C86.62,39.77,87.1,39.79,87.74,39.79Z" transform="translate(0 2.5)"/><path class="cls-1" d="M116.38,21a5,5,0,0,1,.85-.07,5.24,5.24,0,0,1,.86.07v4.17a5.55,5.55,0,0,1-1.28.3,10.77,10.77,0,0,1-1.16.08,4.62,4.62,0,0,1-1.82-.33,3.29,3.29,0,0,1-1.3-.91,3.68,3.68,0,0,1-.78-1.38,5.49,5.49,0,0,1-.26-1.75,5.55,5.55,0,0,1,.27-1.76,4.16,4.16,0,0,1,.78-1.4,3.67,3.67,0,0,1,1.27-.92,4.21,4.21,0,0,1,1.71-.33,6.94,6.94,0,0,1,1,.07,4.39,4.39,0,0,1,1,.3,2.85,2.85,0,0,1-.15.69c-.08.22-.16.45-.26.68a4.53,4.53,0,0,0-.73-.2,4.06,4.06,0,0,0-.75-.06A2.12,2.12,0,0,0,114,19a3.4,3.4,0,0,0-.61,2.19,3.27,3.27,0,0,0,.61,2.17,2.2,2.2,0,0,0,1.77.71l.36,0,.29-.05Z" transform="translate(0 2.5)"/><path class="cls-1" d="M119.6,19.29l.34-.05a1.94,1.94,0,0,1,.35,0l.35,0,.34.06a1.07,1.07,0,0,1,.06.17,2,2,0,0,1,0,.24,1.87,1.87,0,0,1,0,.25.88.88,0,0,1,0,.2,3.28,3.28,0,0,1,.64-.65,1.47,1.47,0,0,1,1-.29H123a.78.78,0,0,1,.22,0,1.56,1.56,0,0,1,0,.27c0,.1,0,.21,0,.32a3.24,3.24,0,0,1,0,.43,3.06,3.06,0,0,1-.06.45l-.29,0h-.2a2.57,2.57,0,0,0-.45,0,1.06,1.06,0,0,0-.47.22,1.28,1.28,0,0,0-.37.53,2.64,2.64,0,0,0-.15,1v2.91l-.42.05H120l-.44-.05Z" transform="translate(0 2.5)"/><path class="cls-1" d="M127.29,21.38a1,1,0,0,0-.1-.46.7.7,0,0,0-.26-.28,1.16,1.16,0,0,0-.41-.13,2.93,2.93,0,0,0-.53,0,4.05,4.05,0,0,0-1.36.25,3.07,3.07,0,0,1-.25-.58,2.1,2.1,0,0,1-.08-.65,6.33,6.33,0,0,1,1-.26,5.56,5.56,0,0,1,1-.08,2.87,2.87,0,0,1,1.93.59,2.35,2.35,0,0,1,.69,1.89v3.54a9.31,9.31,0,0,1-1,.25,6.7,6.7,0,0,1-1.33.12,4.8,4.8,0,0,1-1.11-.11,2.47,2.47,0,0,1-.86-.35,1.72,1.72,0,0,1-.56-.64,2.13,2.13,0,0,1-.19-1,1.79,1.79,0,0,1,.24-.95,1.84,1.84,0,0,1,.63-.61,2.43,2.43,0,0,1,.85-.33,4.38,4.38,0,0,1,1-.1l.76,0Zm0,1.22-.31,0a1.62,1.62,0,0,0-.3,0,1.7,1.7,0,0,0-.91.21.7.7,0,0,0-.34.66.74.74,0,0,0,.13.48.79.79,0,0,0,.31.24,1.38,1.38,0,0,0,.39.09l.36,0a2.19,2.19,0,0,0,.36,0l.31-.05Z" transform="translate(0 2.5)"/><path class="cls-1" d="M130.57,20.57h-.77l-.06-.24L132,17.51h.28v1.78h1.42a2.09,2.09,0,0,1,0,.32,2.71,2.71,0,0,1,0,.29c0,.11,0,.22,0,.32a2.45,2.45,0,0,1,0,.35h-1.42V23a2.34,2.34,0,0,0,.05.59.87.87,0,0,0,.18.36.56.56,0,0,0,.27.18,1.51,1.51,0,0,0,.39,0,2,2,0,0,0,.35,0l.3-.05a1.91,1.91,0,0,1,.12.47,2.29,2.29,0,0,1,0,.43c0,.09,0,.16,0,.22a1,1,0,0,1,0,.17,4.58,4.58,0,0,1-1.12.13,2.42,2.42,0,0,1-1.64-.5,2.09,2.09,0,0,1-.57-1.64Z" transform="translate(0 2.5)"/><path class="cls-1" d="M135.26,20.57h-.79c0-.11,0-.22-.05-.33s0-.22,0-.32a2.59,2.59,0,0,1,.07-.63h2.43V25.4a4.62,4.62,0,0,1-.82.07,4.78,4.78,0,0,1-.82-.07ZM135,18.26a5.39,5.39,0,0,1-.07-.79,5.51,5.51,0,0,1,.07-.79c.14,0,.28,0,.44-.06h.85c.16,0,.3,0,.44.06s0,.26,0,.39,0,.27,0,.4,0,.26,0,.39,0,.27,0,.4l-.43,0h-.86Z" transform="translate(0 2.5)"/><path class="cls-1" d="M139,20.57h-1c0-.13,0-.24-.05-.35s0-.21,0-.32,0-.2,0-.29,0-.2.05-.32h1V19a2.37,2.37,0,0,1,.21-1,2.17,2.17,0,0,1,.56-.74,2.41,2.41,0,0,1,.87-.46,3.59,3.59,0,0,1,1.11-.16,7.31,7.31,0,0,1,1.09.07,4.25,4.25,0,0,1,1,.27,3.86,3.86,0,0,1-.12.72,2.74,2.74,0,0,1-.27.6,3.91,3.91,0,0,0-.76-.22,4.23,4.23,0,0,0-.73-.06,2.28,2.28,0,0,0-.45,0,1.09,1.09,0,0,0-.4.16.87.87,0,0,0-.29.31,1.11,1.11,0,0,0-.12.52v.26h3.74V25.4a4.84,4.84,0,0,1-1.64,0V20.57h-2.1V25.4a4.81,4.81,0,0,1-.83.07,4.76,4.76,0,0,1-.84-.07Z" transform="translate(0 2.5)"/><path class="cls-1" d="M150.13,24a2.33,2.33,0,0,1,.23.55,2.26,2.26,0,0,1,.1.73,3.76,3.76,0,0,1-.89.25,7.81,7.81,0,0,1-.86.05,3.45,3.45,0,0,1-1.34-.24,2.68,2.68,0,0,1-.94-.67,3,3,0,0,1-.56-1,4.28,4.28,0,0,1-.19-1.27,4.15,4.15,0,0,1,.19-1.25,2.79,2.79,0,0,1,.55-1,2.55,2.55,0,0,1,.93-.68,3.06,3.06,0,0,1,1.29-.25h.48a3,3,0,0,1,.42.05l.4.09.45.15a3.46,3.46,0,0,1-.07.61,3,3,0,0,1-.23.65,3.79,3.79,0,0,0-.62-.16,3.74,3.74,0,0,0-.61,0,1.32,1.32,0,0,0-1.1.47,2.19,2.19,0,0,0-.37,1.37,2,2,0,0,0,.4,1.39,1.37,1.37,0,0,0,1.08.44h.33l.29,0a1.82,1.82,0,0,0,.29-.08Z" transform="translate(0 2.5)"/><path class="cls-1" d="M154.69,21.38a.9.9,0,0,0-.1-.46.7.7,0,0,0-.26-.28,1.11,1.11,0,0,0-.4-.13,3,3,0,0,0-.54,0,4.05,4.05,0,0,0-1.36.25,3.9,3.9,0,0,1-.25-.58,2.46,2.46,0,0,1-.08-.65,6.59,6.59,0,0,1,1-.26,5.67,5.67,0,0,1,1-.08,2.83,2.83,0,0,1,1.92.59,2.35,2.35,0,0,1,.69,1.89v3.54a9.31,9.31,0,0,1-1,.25,6.63,6.63,0,0,1-1.33.12,4.86,4.86,0,0,1-1.11-.11,2.47,2.47,0,0,1-.86-.35,1.7,1.7,0,0,1-.55-.64,2.13,2.13,0,0,1-.2-1,1.79,1.79,0,0,1,.24-.95,1.93,1.93,0,0,1,.63-.61,2.48,2.48,0,0,1,.86-.33,4.29,4.29,0,0,1,.94-.1l.76,0Zm0,1.22-.31,0a1.57,1.57,0,0,0-.29,0,1.72,1.72,0,0,0-.92.21.72.72,0,0,0-.34.66.81.81,0,0,0,.13.48.75.75,0,0,0,.32.24,1.24,1.24,0,0,0,.39.09l.36,0,.35,0,.31-.05Z" transform="translate(0 2.5)"/><path class="cls-1" d="M159.71,25.47a2.75,2.75,0,0,1-1-.4,2.52,2.52,0,0,1-.7-.68,2.82,2.82,0,0,1-.42-.93,4.44,4.44,0,0,1-.13-1.11,4.15,4.15,0,0,1,.18-1.25,3,3,0,0,1,.55-1,2.55,2.55,0,0,1,.93-.68,3.06,3.06,0,0,1,1.29-.25h.48a3,3,0,0,1,.42.05,2.88,2.88,0,0,1,.4.09l.45.15a3.46,3.46,0,0,1-.07.61,2.52,2.52,0,0,1-.23.65,3.79,3.79,0,0,0-.62-.16,3.67,3.67,0,0,0-.61,0,1.34,1.34,0,0,0-1.1.47,2.19,2.19,0,0,0-.37,1.37,2,2,0,0,0,.4,1.39,1.38,1.38,0,0,0,1.09.44H161l.29,0a1.57,1.57,0,0,0,.29-.08l.35-.11a2.33,2.33,0,0,1,.23.55,2.26,2.26,0,0,1,.1.73,4.43,4.43,0,0,1-.87.24,5.9,5.9,0,0,1-.86.06l-.18.48h.18a1.51,1.51,0,0,1,1,.29.92.92,0,0,1,.35.74,1,1,0,0,1-.51.91,2.58,2.58,0,0,1-1.32.31l-.42,0a2.18,2.18,0,0,1-.53-.09q0-.2.06-.42a1,1,0,0,1,.15-.41l.38.09.36,0a1.56,1.56,0,0,0,.53-.08.3.3,0,0,0,.2-.29.29.29,0,0,0-.19-.28,1.4,1.4,0,0,0-.5-.07l-.36,0a1.9,1.9,0,0,0-.36.08l-.08-.08Z" transform="translate(0 2.5)"/><path class="cls-1" d="M166.47,21.38a.9.9,0,0,0-.1-.46.68.68,0,0,0-.25-.28,1.23,1.23,0,0,0-.41-.13,3,3,0,0,0-.54,0,4.05,4.05,0,0,0-1.36.25,3.9,3.9,0,0,1-.25-.58,2.46,2.46,0,0,1-.08-.65,6.59,6.59,0,0,1,1-.26,5.67,5.67,0,0,1,1-.08,2.83,2.83,0,0,1,1.92.59,2.35,2.35,0,0,1,.69,1.89v3.54a9.69,9.69,0,0,1-1,.25,6.81,6.81,0,0,1-1.34.12,4.71,4.71,0,0,1-1.1-.11,2.44,2.44,0,0,1-.87-.35,1.7,1.7,0,0,1-.55-.64,2.13,2.13,0,0,1-.2-1,1.7,1.7,0,0,1,.25-.95,1.9,1.9,0,0,1,.62-.61,2.48,2.48,0,0,1,.86-.33,4.29,4.29,0,0,1,.94-.1l.76,0Zm-2.94-4a1.6,1.6,0,0,1,.52-.44,1.47,1.47,0,0,1,.77-.19,1.29,1.29,0,0,1,.43.07l.4.14.42.14a1.62,1.62,0,0,0,.44.07,1.1,1.1,0,0,0,.37-.06,1.36,1.36,0,0,0,.43-.31,2.14,2.14,0,0,1,.32.45,2.47,2.47,0,0,1,.19.49,1.64,1.64,0,0,1-.53.44,1.74,1.74,0,0,1-.77.17,1.31,1.31,0,0,1-.44-.07l-.42-.14-.41-.14a1.54,1.54,0,0,0-.42-.07,1.13,1.13,0,0,0-.39.07,1.39,1.39,0,0,0-.42.3,4.27,4.27,0,0,1-.3-.44A1.38,1.38,0,0,1,163.53,17.4Zm2.94,5.2-.31,0a1.57,1.57,0,0,0-.29,0,1.74,1.74,0,0,0-.92.21.72.72,0,0,0-.34.66.81.81,0,0,0,.13.48.82.82,0,0,0,.32.24,1.24,1.24,0,0,0,.39.09l.36,0a2.07,2.07,0,0,0,.35,0l.31-.05Z" transform="translate(0 2.5)"/><path class="cls-1" d="M172.18,25.54a3.24,3.24,0,0,1-1.3-.24,2.48,2.48,0,0,1-.91-.68,2.8,2.8,0,0,1-.54-1,4.15,4.15,0,0,1-.18-1.25,4.26,4.26,0,0,1,.18-1.26,2.89,2.89,0,0,1,.54-1,2.57,2.57,0,0,1,.91-.67,3.08,3.08,0,0,1,1.3-.25,3.11,3.11,0,0,1,1.3.25,2.61,2.61,0,0,1,.92.67,2.89,2.89,0,0,1,.54,1,4.26,4.26,0,0,1,.18,1.26,4.15,4.15,0,0,1-.18,1.25,2.8,2.8,0,0,1-.54,1,2.51,2.51,0,0,1-.92.68A3.28,3.28,0,0,1,172.18,25.54Zm0-1.28a1,1,0,0,0,.95-.49,2.8,2.8,0,0,0,.29-1.41,2.85,2.85,0,0,0-.29-1.41,1,1,0,0,0-.95-.49,1,1,0,0,0-.94.49,2.75,2.75,0,0,0-.29,1.41,2.7,2.7,0,0,0,.29,1.41A1,1,0,0,0,172.18,24.26Z" transform="translate(0 2.5)"/><path class="cls-1" d="M179,19.28a1.92,1.92,0,0,1,.32-.05h.36a3.21,3.21,0,0,1,.68.07,1.07,1.07,0,0,1,.06.17l.06.24a2.38,2.38,0,0,1,0,.26c0,.08,0,.15,0,.2a2.09,2.09,0,0,1,.26-.37,1.45,1.45,0,0,1,.37-.32,1.84,1.84,0,0,1,.49-.23,1.89,1.89,0,0,1,.6-.09,2.3,2.3,0,0,1,1,.19,2,2,0,0,1,.78.57,2.75,2.75,0,0,1,.51,1,4.69,4.69,0,0,1,.18,1.37,4,4,0,0,1-.22,1.38,2.79,2.79,0,0,1-.65,1,2.73,2.73,0,0,1-1,.66,4,4,0,0,1-1.39.23l-.4,0-.32,0V28.2l-.44.05h-.81L179,28.2Zm1.68,4.82a2.65,2.65,0,0,0,.73.09,1.35,1.35,0,0,0,1.12-.47,2.2,2.2,0,0,0,.39-1.43,3.66,3.66,0,0,0-.06-.68,1.64,1.64,0,0,0-.2-.54,1,1,0,0,0-.36-.35,1,1,0,0,0-.54-.13,1.12,1.12,0,0,0-.5.11,1,1,0,0,0-.34.31,1.53,1.53,0,0,0-.19.45,2.54,2.54,0,0,0-.05.56Z" transform="translate(0 2.5)"/><path class="cls-1" d="M188.61,25.54a3.23,3.23,0,0,1-1.29-.24,2.4,2.4,0,0,1-.91-.68,2.8,2.8,0,0,1-.54-1,3.86,3.86,0,0,1-.19-1.25,4,4,0,0,1,.19-1.26,2.89,2.89,0,0,1,.54-1,2.48,2.48,0,0,1,.91-.67,3.48,3.48,0,0,1,2.59,0,2.64,2.64,0,0,1,.93.67,2.89,2.89,0,0,1,.54,1,4.26,4.26,0,0,1,.18,1.26,4.15,4.15,0,0,1-.18,1.25,2.8,2.8,0,0,1-.54,1,2.55,2.55,0,0,1-.93.68A3.24,3.24,0,0,1,188.61,25.54Zm0-1.28a1,1,0,0,0,.95-.49,2.7,2.7,0,0,0,.29-1.41,2.75,2.75,0,0,0-.29-1.41,1.16,1.16,0,0,0-1.89,0,2.85,2.85,0,0,0-.29,1.41,2.8,2.8,0,0,0,.29,1.41A1,1,0,0,0,188.61,24.26Z" transform="translate(0 2.5)"/><path class="cls-1" d="M192.88,19.29l.34-.05a1.83,1.83,0,0,1,.34,0l.35,0,.34.06a.56.56,0,0,1,.06.17l.06.24c0,.08,0,.16,0,.25s0,.15,0,.2a3,3,0,0,1,.64-.65,1.45,1.45,0,0,1,.94-.29h.27a.88.88,0,0,1,.23,0,1.7,1.7,0,0,1,0,.27c0,.1,0,.21,0,.32s0,.28,0,.43a2.12,2.12,0,0,1-.07.45l-.29,0H196a2.57,2.57,0,0,0-.45,0,1,1,0,0,0-.47.22,1.2,1.2,0,0,0-.37.53,2.64,2.64,0,0,0-.15,1v2.91l-.43.05h-.82l-.43-.05Z" transform="translate(0 2.5)"/><path class="cls-1" d="M200.23,16.9h4.82a3.51,3.51,0,0,1,.07.72,3.67,3.67,0,0,1-.07.75H202v1.84h2.46a3.95,3.95,0,0,1,0,1.48H202v2.24h3.18a3.51,3.51,0,0,1,.07.72,3.67,3.67,0,0,1-.07.75h-4.9Z" transform="translate(0 2.5)"/><path class="cls-1" d="M207.25,22.24l-1.17-2.95a4.61,4.61,0,0,1,.86-.07,5.67,5.67,0,0,1,.91.07l.93,3-1.21,3.12a4.92,4.92,0,0,1-.84.07,5.48,5.48,0,0,1-.88-.07Zm1.62,0,.94-3a5.41,5.41,0,0,1,.91-.07,4.91,4.91,0,0,1,.86.07l-1.18,2.95,1.41,3.16a5.45,5.45,0,0,1-.87.07,4.76,4.76,0,0,1-.84-.07Z" transform="translate(0 2.5)"/><path class="cls-1" d="M214,22.86a1.3,1.3,0,0,0,.5,1,2,2,0,0,0,1.18.32,4.65,4.65,0,0,0,.82-.08,4.94,4.94,0,0,0,.8-.22,2.51,2.51,0,0,1,.22.57,2.64,2.64,0,0,1,.11.71,5.89,5.89,0,0,1-2.08.35,4,4,0,0,1-1.46-.24,2.48,2.48,0,0,1-1-.65,2.54,2.54,0,0,1-.57-1,4.28,4.28,0,0,1-.18-1.27,4,4,0,0,1,.19-1.26,2.86,2.86,0,0,1,.56-1,2.65,2.65,0,0,1,.92-.69,3,3,0,0,1,1.28-.25,2.73,2.73,0,0,1,1.14.22,2.48,2.48,0,0,1,.84.62,2.71,2.71,0,0,1,.53.92,3.66,3.66,0,0,1,.18,1.16c0,.15,0,.29,0,.44s0,.26,0,.35Zm2.4-1.17a1.47,1.47,0,0,0-.31-.92,1,1,0,0,0-.81-.35,1.17,1.17,0,0,0-.9.33,1.61,1.61,0,0,0-.37.94Z" transform="translate(0 2.5)"/><path class="cls-1" d="M219.28,19.29l.33-.05a2,2,0,0,1,.35,0l.35,0,.34.06a1.07,1.07,0,0,1,.06.17l.06.24c0,.08,0,.16,0,.25s0,.15,0,.2a2.81,2.81,0,0,1,.64-.65,1.45,1.45,0,0,1,.94-.29h.27a.88.88,0,0,1,.23,0q0,.11,0,.27c0,.1,0,.21,0,.32s0,.28,0,.43a3,3,0,0,1-.07.45l-.29,0h-.19a2.42,2.42,0,0,0-.45,0,1,1,0,0,0-.47.22,1.3,1.3,0,0,0-.38.53,2.67,2.67,0,0,0-.14,1v2.91l-.43.05h-.82l-.43-.05Z" transform="translate(0 2.5)"/><path class="cls-1" d="M228,24a2.33,2.33,0,0,1,.24.55,2.6,2.6,0,0,1,.09.73,3.69,3.69,0,0,1-.88.25,8.14,8.14,0,0,1-.87.05,3.4,3.4,0,0,1-1.33-.24,2.6,2.6,0,0,1-.94-.67,2.69,2.69,0,0,1-.56-1,4,4,0,0,1-.19-1.27,4.15,4.15,0,0,1,.18-1.25,2.81,2.81,0,0,1,.56-1,2.51,2.51,0,0,1,.92-.68,3.06,3.06,0,0,1,1.29-.25h.48a2.68,2.68,0,0,1,.42.05,2.88,2.88,0,0,1,.4.09l.45.15a2.72,2.72,0,0,1-.07.61,2.93,2.93,0,0,1-.22.65,4.39,4.39,0,0,0-.62-.16,3.74,3.74,0,0,0-.61,0,1.34,1.34,0,0,0-1.11.47,2.19,2.19,0,0,0-.37,1.37,2,2,0,0,0,.4,1.39,1.38,1.38,0,0,0,1.09.44H227l.29,0a1.57,1.57,0,0,0,.29-.08Z" transform="translate(0 2.5)"/><path class="cls-1" d="M229.79,20.57H229c0-.11,0-.22-.05-.33s0-.22,0-.32a3.2,3.2,0,0,1,.07-.63h2.44V25.4a4.9,4.9,0,0,1-1.65,0Zm.71-3.67a6.94,6.94,0,0,1,1.07-.07l.52,0,.46,0-1.79,1.46-.36,0a3.19,3.19,0,0,1-.45,0,5.12,5.12,0,0,1-.77-.07Z" transform="translate(0 2.5)"/><path class="cls-1" d="M237.19,24a2,2,0,0,1,.24.55,2.6,2.6,0,0,1,.09.73,3.69,3.69,0,0,1-.88.25,8.14,8.14,0,0,1-.87.05,3.4,3.4,0,0,1-1.33-.24,2.6,2.6,0,0,1-.94-.67,2.69,2.69,0,0,1-.56-1,4,4,0,0,1-.19-1.27,4.15,4.15,0,0,1,.18-1.25,2.81,2.81,0,0,1,.56-1,2.47,2.47,0,0,1,.93-.68,3,3,0,0,1,1.28-.25h.48a2.68,2.68,0,0,1,.42.05,2.59,2.59,0,0,1,.4.09l.45.15a2.72,2.72,0,0,1-.07.61,2.93,2.93,0,0,1-.22.65,4.39,4.39,0,0,0-.62-.16,3.74,3.74,0,0,0-.61,0,1.34,1.34,0,0,0-1.11.47,2.19,2.19,0,0,0-.37,1.37,2,2,0,0,0,.4,1.39,1.38,1.38,0,0,0,1.09.44h.32l.29,0a1.38,1.38,0,0,0,.29-.08Z" transform="translate(0 2.5)"/><path class="cls-1" d="M239,20.57h-.8c0-.11,0-.22-.05-.33s0-.22,0-.32a3.2,3.2,0,0,1,.07-.63h2.44V25.4a4.81,4.81,0,0,1-.83.07,4.59,4.59,0,0,1-.81-.07Zm-.25-2.31a4.29,4.29,0,0,1-.07-.79,4.37,4.37,0,0,1,.07-.79c.13,0,.27,0,.43-.06h.86c.15,0,.3,0,.43.06a2.6,2.6,0,0,1,.05.39c0,.13,0,.27,0,.4s0,.26,0,.39a2.73,2.73,0,0,1-.05.4l-.43,0h-.86Z" transform="translate(0 2.5)"/><path class="cls-1" d="M244.92,25.54a3.16,3.16,0,0,1-1.29-.24,2.4,2.4,0,0,1-.91-.68,2.82,2.82,0,0,1-.55-1,4.15,4.15,0,0,1-.18-1.25,4.26,4.26,0,0,1,.18-1.26,2.91,2.91,0,0,1,.55-1,2.48,2.48,0,0,1,.91-.67,3,3,0,0,1,1.29-.25,3.08,3.08,0,0,1,1.3.25,2.52,2.52,0,0,1,.92.67,2.76,2.76,0,0,1,.55,1,4.62,4.62,0,0,1,.17,1.26,4.5,4.5,0,0,1-.17,1.25,2.67,2.67,0,0,1-.55,1,2.43,2.43,0,0,1-.92.68A3.24,3.24,0,0,1,244.92,25.54Zm0-1.28a1,1,0,0,0,1-.49,2.8,2.8,0,0,0,.29-1.41,2.85,2.85,0,0,0-.29-1.41A1.16,1.16,0,0,0,244,21a2.85,2.85,0,0,0-.29,1.41,2.8,2.8,0,0,0,.29,1.41A1,1,0,0,0,244.92,24.26Z" transform="translate(0 2.5)"/><path class="cls-1" d="M257.4,23.79a4.28,4.28,0,0,1,.25.68,4.37,4.37,0,0,1,.15.7,5.93,5.93,0,0,1-1.1.3,7.07,7.07,0,0,1-1.06.07,4.35,4.35,0,0,1-1.76-.33,3.26,3.26,0,0,1-1.27-.91,3.82,3.82,0,0,1-.78-1.38,5.78,5.78,0,0,1-.26-1.75,5.55,5.55,0,0,1,.27-1.76,4.35,4.35,0,0,1,.79-1.4,3.55,3.55,0,0,1,1.26-.92,4.21,4.21,0,0,1,1.71-.33,6.85,6.85,0,0,1,1,.07,4.68,4.68,0,0,1,1,.3,2.42,2.42,0,0,1-.14.69c-.08.22-.17.45-.26.68a4.82,4.82,0,0,0-.73-.2,4.26,4.26,0,0,0-.76-.06,2.1,2.1,0,0,0-1.74.74,3.35,3.35,0,0,0-.61,2.19c0,1.92.82,2.88,2.45,2.88a4.26,4.26,0,0,0,.76-.06A4.71,4.71,0,0,0,257.4,23.79Z" transform="translate(0 2.5)"/><path class="cls-1" d="M258.75,19.29a5,5,0,0,1,1.67,0v3.24a3.37,3.37,0,0,0,.08.79,1.11,1.11,0,0,0,.24.5.87.87,0,0,0,.39.26,1.89,1.89,0,0,0,.56.08,2.55,2.55,0,0,0,.73-.09V19.29a4.73,4.73,0,0,1,.83-.07,4.92,4.92,0,0,1,.84.07v5.87a9.33,9.33,0,0,1-1,.26,6.91,6.91,0,0,1-1.3.12,7.15,7.15,0,0,1-1.15-.09,2.33,2.33,0,0,1-1-.41,2.08,2.08,0,0,1-.67-.89,4.3,4.3,0,0,1-.24-1.58Z" transform="translate(0 2.5)"/><path class="cls-1" d="M265.61,19.29l.33-.05a2.12,2.12,0,0,1,.37,0,1.89,1.89,0,0,1,.35,0l.32.05a.54.54,0,0,1,.07.17c0,.08,0,.15.05.24a2,2,0,0,1,0,.24c0,.08,0,.15,0,.2a1.61,1.61,0,0,1,.25-.35,1.45,1.45,0,0,1,.37-.32,1.87,1.87,0,0,1,.47-.23,1.89,1.89,0,0,1,.6-.09,1.73,1.73,0,0,1,1.83,1.08,2.4,2.4,0,0,1,.67-.76,1.81,1.81,0,0,1,1.09-.32,1.89,1.89,0,0,1,1.53.57,2.7,2.7,0,0,1,.49,1.79V25.4a5,5,0,0,1-1.67,0V22a2.49,2.49,0,0,0-.16-1,.65.65,0,0,0-.65-.35,1.32,1.32,0,0,0-.39.06,1,1,0,0,0-.36.22,1.37,1.37,0,0,0-.26.45,2.52,2.52,0,0,0-.1.75v3.3a4.76,4.76,0,0,1-.84.07,4.92,4.92,0,0,1-.84-.07V22a2.32,2.32,0,0,0-.16-1,.63.63,0,0,0-.64-.35,1.39,1.39,0,0,0-.4.06.77.77,0,0,0-.36.23,1.36,1.36,0,0,0-.26.48,3,3,0,0,0-.09.81v3.2a5.07,5.07,0,0,1-1.68,0Z" transform="translate(0 2.5)"/><path class="cls-1" d="M275.89,19.29a4.92,4.92,0,0,1,.84-.07,4.76,4.76,0,0,1,.84.07v3.24a3.37,3.37,0,0,0,.08.79,1.22,1.22,0,0,0,.23.5.9.9,0,0,0,.4.26,1.82,1.82,0,0,0,.55.08,2.58,2.58,0,0,0,.74-.09V19.29a4.7,4.7,0,0,1,.82-.07,4.76,4.76,0,0,1,.84.07v5.87a8.21,8.21,0,0,1-1,.26,6.73,6.73,0,0,1-1.29.12,7.27,7.27,0,0,1-1.16-.09,2.28,2.28,0,0,1-1-.41,2.08,2.08,0,0,1-.67-.89,4.28,4.28,0,0,1-.25-1.58Z" transform="translate(0 2.5)"/><path class="cls-1" d="M282.71,16.76a4.76,4.76,0,0,1,.84-.07,4.81,4.81,0,0,1,.83.07V23a3.07,3.07,0,0,0,0,.59.88.88,0,0,0,.13.35.39.39,0,0,0,.23.17.89.89,0,0,0,.35.05h.21l.22,0a4,4,0,0,1,.13.95v.17a.55.55,0,0,1,0,.17,2.23,2.23,0,0,1-.45.09l-.49,0a1.85,1.85,0,0,1-2-2.14Z" transform="translate(0 2.5)"/><path class="cls-1" d="M289.63,21.38a1,1,0,0,0-.09-.46.7.7,0,0,0-.26-.28,1.16,1.16,0,0,0-.41-.13,3,3,0,0,0-.54,0,4,4,0,0,0-1.35.25,3.07,3.07,0,0,1-.25-.58,2.08,2.08,0,0,1-.09-.65,6.71,6.71,0,0,1,1.05-.26,5.48,5.48,0,0,1,1-.08,2.83,2.83,0,0,1,1.92.59,2.32,2.32,0,0,1,.7,1.89v3.54a9.94,9.94,0,0,1-1,.25,6.7,6.7,0,0,1-1.33.12,4.8,4.8,0,0,1-1.11-.11,2.47,2.47,0,0,1-.86-.35,1.72,1.72,0,0,1-.56-.64,2.13,2.13,0,0,1-.19-1,1.79,1.79,0,0,1,.24-.95,1.84,1.84,0,0,1,.63-.61,2.43,2.43,0,0,1,.85-.33,4.38,4.38,0,0,1,.95-.1l.75,0Zm0,1.22-.3,0a1.62,1.62,0,0,0-.3,0,1.7,1.7,0,0,0-.91.21.7.7,0,0,0-.34.66.74.74,0,0,0,.13.48.79.79,0,0,0,.31.24,1.24,1.24,0,0,0,.39.09l.36,0,.36,0,.3-.05Z" transform="translate(0 2.5)"/><path class="cls-1" d="M292.92,20.57h-.77l-.06-.24,2.21-2.82h.27v1.78H296a2.09,2.09,0,0,1,.05.32,2.71,2.71,0,0,1,0,.29c0,.11,0,.22,0,.32a2.45,2.45,0,0,1-.05.35h-1.43V23a2.27,2.27,0,0,0,.06.59,1,1,0,0,0,.17.36.64.64,0,0,0,.28.18,1.51,1.51,0,0,0,.39,0,2,2,0,0,0,.35,0l.3-.05a1.91,1.91,0,0,1,.12.47,3.62,3.62,0,0,1,0,.43c0,.09,0,.16,0,.22a1,1,0,0,1,0,.17,4.58,4.58,0,0,1-1.12.13,2.42,2.42,0,0,1-1.64-.5,2.09,2.09,0,0,1-.57-1.64Z" transform="translate(0 2.5)"/><path class="cls-1" d="M297.61,20.57h-.79c0-.11,0-.22-.05-.33a1.77,1.77,0,0,1,0-.32,2.59,2.59,0,0,1,.07-.63h2.43V25.4a4.84,4.84,0,0,1-1.64,0Zm-.25-2.31a5.39,5.39,0,0,1-.07-.79,5.51,5.51,0,0,1,.07-.79c.14,0,.28,0,.43-.06h.86c.16,0,.3,0,.44.06s0,.26.05.39,0,.27,0,.4,0,.26,0,.39,0,.27-.05.4l-.43,0h-.86Z" transform="translate(0 2.5)"/><path class="cls-1" d="M300.14,19.3a3.51,3.51,0,0,1,.53-.07h.89a2.92,2.92,0,0,1,.44.06l1.33,4.55,1.31-4.55.43-.05a3.39,3.39,0,0,1,.45,0h.4a3.88,3.88,0,0,1,.53.07l-2.32,6.1-.47.05h-.81a2.79,2.79,0,0,1-.43-.06Z" transform="translate(0 2.5)"/><path class="cls-1" d="M309.69,25.54a3.24,3.24,0,0,1-1.3-.24,2.48,2.48,0,0,1-.91-.68,2.8,2.8,0,0,1-.54-1,4.15,4.15,0,0,1-.18-1.25,4.26,4.26,0,0,1,.18-1.26,2.89,2.89,0,0,1,.54-1,2.57,2.57,0,0,1,.91-.67,3.08,3.08,0,0,1,1.3-.25,3.11,3.11,0,0,1,1.3.25,2.52,2.52,0,0,1,.92.67,2.89,2.89,0,0,1,.54,1,4.26,4.26,0,0,1,.18,1.26,4.15,4.15,0,0,1-.18,1.25,2.8,2.8,0,0,1-.54,1,2.43,2.43,0,0,1-.92.68A3.28,3.28,0,0,1,309.69,25.54Zm0-1.28a1,1,0,0,0,.95-.49,2.8,2.8,0,0,0,.29-1.41,2.85,2.85,0,0,0-.29-1.41,1,1,0,0,0-.95-.49,1,1,0,0,0-.94.49,2.85,2.85,0,0,0-.29,1.41,2.8,2.8,0,0,0,.29,1.41A1,1,0,0,0,309.69,24.26Z" transform="translate(0 2.5)"/><path class="cls-1" d="M320.22,16.76l.42-.05h.82l.42.05V25.2a8.41,8.41,0,0,1-1.13.25,9,9,0,0,1-1.38.09,4.3,4.3,0,0,1-1.2-.17,2.73,2.73,0,0,1-1-.54,2.5,2.5,0,0,1-.7-1,3.61,3.61,0,0,1-.25-1.44,3.57,3.57,0,0,1,.22-1.27,2.78,2.78,0,0,1,.63-1,2.88,2.88,0,0,1,1-.7,3.37,3.37,0,0,1,1.29-.25l.44,0a2.23,2.23,0,0,1,.45.08Zm0,3.79a2.73,2.73,0,0,0-.39-.07,2,2,0,0,0-.37,0,1.34,1.34,0,0,0-.68.16,1.49,1.49,0,0,0-.48.42,2,2,0,0,0-.28.63,3.67,3.67,0,0,0-.08.75,2.76,2.76,0,0,0,.11.82,1.31,1.31,0,0,0,.33.54,1.28,1.28,0,0,0,.49.29,2,2,0,0,0,.61.09l.37,0a2.07,2.07,0,0,0,.37-.08Z" transform="translate(0 2.5)"/><path class="cls-1" d="M324.84,22.86a1.29,1.29,0,0,0,.49,1,2,2,0,0,0,1.18.32,4.76,4.76,0,0,0,.83-.08,4.82,4.82,0,0,0,.79-.22,3.07,3.07,0,0,1,.23.57,2.65,2.65,0,0,1,.1.71,5.85,5.85,0,0,1-2.08.35,3.93,3.93,0,0,1-1.45-.24,2.52,2.52,0,0,1-1-.65,2.65,2.65,0,0,1-.56-1,4,4,0,0,1-.19-1.27,4.31,4.31,0,0,1,.19-1.26,3,3,0,0,1,.56-1,2.75,2.75,0,0,1,.92-.69,3.06,3.06,0,0,1,1.29-.25,2.71,2.71,0,0,1,1.13.22,2.63,2.63,0,0,1,.85.62,2.68,2.68,0,0,1,.52.92,3.66,3.66,0,0,1,.18,1.16c0,.15,0,.29,0,.44a2.43,2.43,0,0,1,0,.35Zm2.4-1.17a1.48,1.48,0,0,0-.32-.92,1,1,0,0,0-.81-.35,1.19,1.19,0,0,0-.9.33,1.61,1.61,0,0,0-.36.94Z" transform="translate(0 2.5)"/><path class="cls-1" d="M334.28,18.37h-1.41a3.48,3.48,0,0,1-.05-.36c0-.13,0-.26,0-.39a3.38,3.38,0,0,1,.07-.72H336v6.24a2.86,2.86,0,0,1-.2,1.11,2,2,0,0,1-.57.74,2.34,2.34,0,0,1-.85.42,4.08,4.08,0,0,1-1.07.13l-.5,0a5,5,0,0,1-.58-.11c0-.06,0-.11,0-.17a.91.91,0,0,1,0-.17,3.18,3.18,0,0,1,.2-1.09l.28.06a1.73,1.73,0,0,0,.32,0l.43,0a1,1,0,0,0,.41-.14,1,1,0,0,0,.3-.35,1.31,1.31,0,0,0,.13-.66Z" transform="translate(0 2.5)"/><path class="cls-1" d="M337.49,19.29a4.92,4.92,0,0,1,.84-.07,4.76,4.76,0,0,1,.84.07v3.24a3.37,3.37,0,0,0,.08.79,1.22,1.22,0,0,0,.23.5.9.9,0,0,0,.4.26,1.82,1.82,0,0,0,.55.08,2.58,2.58,0,0,0,.74-.09V19.29a4.7,4.7,0,0,1,.82-.07,4.76,4.76,0,0,1,.84.07v5.87a8.21,8.21,0,0,1-1,.26,6.73,6.73,0,0,1-1.29.12,7.27,7.27,0,0,1-1.16-.09,2.28,2.28,0,0,1-1-.41,2.08,2.08,0,0,1-.67-.89,4.28,4.28,0,0,1-.25-1.58Z" transform="translate(0 2.5)"/><path class="cls-1" d="M344.36,19.29l.33-.05a2,2,0,0,1,.35,0l.35,0,.34.06a1.07,1.07,0,0,1,.06.17l.06.24c0,.08,0,.16,0,.25s0,.15,0,.2a2.81,2.81,0,0,1,.64-.65,1.45,1.45,0,0,1,.94-.29h.27a.88.88,0,0,1,.23,0q0,.11,0,.27c0,.1,0,.21,0,.32s0,.28,0,.43a3,3,0,0,1-.07.45l-.29,0h-.19a2.42,2.42,0,0,0-.45,0,1,1,0,0,0-.47.22,1.3,1.3,0,0,0-.38.53,2.67,2.67,0,0,0-.14,1v2.91l-.43.05h-.82l-.43-.05Z" transform="translate(0 2.5)"/><path class="cls-1" d="M349.44,20.57h-.79c0-.11,0-.22-.06-.33s0-.22,0-.32a2.59,2.59,0,0,1,.07-.63h2.43V25.4a4.73,4.73,0,0,1-.83.07,4.59,4.59,0,0,1-.81-.07Zm-.25-2.31a4.29,4.29,0,0,1-.07-.79,4.37,4.37,0,0,1,.07-.79c.13,0,.28,0,.43-.06h.86c.16,0,.3,0,.44.06a2.58,2.58,0,0,1,0,.39c0,.13,0,.27,0,.4s0,.26,0,.39a2.71,2.71,0,0,1,0,.4l-.44,0h-.85Z" transform="translate(0 2.5)"/><path class="cls-1" d="M353.92,22.74a2.4,2.4,0,0,1-1-.56,1.56,1.56,0,0,1-.37-1.12,1.67,1.67,0,0,1,.65-1.4,2.72,2.72,0,0,1,1.75-.51,4.6,4.6,0,0,1,.91.08,6.52,6.52,0,0,1,.91.25,4,4,0,0,1-.12.64,3.52,3.52,0,0,1-.22.58,4.65,4.65,0,0,0-.63-.21,2.84,2.84,0,0,0-.72-.09,1.36,1.36,0,0,0-.63.12.43.43,0,0,0-.22.4.42.42,0,0,0,.16.37,2.46,2.46,0,0,0,.45.2l.68.2a2.9,2.9,0,0,1,.59.23,1.57,1.57,0,0,1,.46.34,1.39,1.39,0,0,1,.29.49,2,2,0,0,1,.11.72,1.89,1.89,0,0,1-.18.82,1.83,1.83,0,0,1-.53.65,2.73,2.73,0,0,1-.85.44,3.52,3.52,0,0,1-1.12.16l-.52,0a3.4,3.4,0,0,1-.46-.06,3.34,3.34,0,0,1-.43-.1l-.46-.15a3.57,3.57,0,0,1,.11-.64,4.88,4.88,0,0,1,.23-.64,4.14,4.14,0,0,0,.74.23,3.47,3.47,0,0,0,.73.08l.36,0a1.08,1.08,0,0,0,.36-.11.8.8,0,0,0,.28-.2.55.55,0,0,0-.06-.73,2.18,2.18,0,0,0-.48-.22Z" transform="translate(0 2.5)"/><path class="cls-1" d="M361.83,16.76l.42-.05h.82l.43.05V25.2a8.77,8.77,0,0,1-1.13.25,9.07,9.07,0,0,1-1.39.09,4.4,4.4,0,0,1-1.2-.17,2.81,2.81,0,0,1-1-.54,2.59,2.59,0,0,1-.69-1,3.61,3.61,0,0,1-.25-1.44,3.57,3.57,0,0,1,.22-1.27,2.9,2.9,0,0,1,.62-1,2.83,2.83,0,0,1,1-.7,3.37,3.37,0,0,1,1.29-.25l.44,0a2.14,2.14,0,0,1,.44.08Zm0,3.79a2.41,2.41,0,0,0-.38-.07,2,2,0,0,0-.37,0,1.34,1.34,0,0,0-.68.16,1.49,1.49,0,0,0-.48.42,1.81,1.81,0,0,0-.28.63,3.08,3.08,0,0,0-.09.75,2.45,2.45,0,0,0,.12.82,1.31,1.31,0,0,0,.33.54,1.21,1.21,0,0,0,.49.29,2,2,0,0,0,.61.09l.37,0a1.82,1.82,0,0,0,.36-.08Z" transform="translate(0 2.5)"/><path class="cls-1" d="M365.45,20.57h-.79l-.06-.33c0-.11,0-.22,0-.32a2.59,2.59,0,0,1,.07-.63h2.43V25.4a4.84,4.84,0,0,1-1.64,0Zm-.25-2.31a4.29,4.29,0,0,1-.07-.79,4.37,4.37,0,0,1,.07-.79c.14,0,.28,0,.43-.06h.86c.16,0,.3,0,.44.06s0,.26.05.39,0,.27,0,.4,0,.26,0,.39,0,.27-.05.4l-.43,0h-.86Z" transform="translate(0 2.5)"/><path class="cls-1" d="M370.65,25.47a2.75,2.75,0,0,1-1-.4,2.52,2.52,0,0,1-.7-.68,2.82,2.82,0,0,1-.42-.93,4.44,4.44,0,0,1-.14-1.11,4.15,4.15,0,0,1,.19-1.25,2.79,2.79,0,0,1,.55-1,2.55,2.55,0,0,1,.93-.68,3.06,3.06,0,0,1,1.29-.25h.48a3,3,0,0,1,.42.05l.4.09.45.15a3.46,3.46,0,0,1-.07.61,3,3,0,0,1-.23.65,3.79,3.79,0,0,0-.62-.16,3.67,3.67,0,0,0-.61,0,1.34,1.34,0,0,0-1.1.47,2.19,2.19,0,0,0-.37,1.37,2,2,0,0,0,.4,1.39,1.38,1.38,0,0,0,1.09.44h.32l.29,0a1.82,1.82,0,0,0,.29-.08l.35-.11a2.33,2.33,0,0,1,.23.55,2.26,2.26,0,0,1,.1.73,4.33,4.33,0,0,1-.88.24,5.67,5.67,0,0,1-.85.06l-.19.48h.19a1.51,1.51,0,0,1,1,.29.92.92,0,0,1,.35.74,1,1,0,0,1-.51.91,2.59,2.59,0,0,1-1.33.31l-.41,0a2.18,2.18,0,0,1-.53-.09q0-.2.06-.42a1,1,0,0,1,.15-.41l.38.09.35,0a1.58,1.58,0,0,0,.54-.08.31.31,0,0,0,0-.57,1.4,1.4,0,0,0-.5-.07l-.36,0a1.9,1.9,0,0,0-.36.08l-.08-.08Z" transform="translate(0 2.5)"/><path class="cls-1" d="M377.41,21.38a.9.9,0,0,0-.1-.46.7.7,0,0,0-.26-.28,1.11,1.11,0,0,0-.4-.13,3,3,0,0,0-.54,0,4.05,4.05,0,0,0-1.36.25,3.9,3.9,0,0,1-.25-.58,2.46,2.46,0,0,1-.08-.65,6.59,6.59,0,0,1,1-.26,5.67,5.67,0,0,1,1-.08,2.83,2.83,0,0,1,1.92.59,2.35,2.35,0,0,1,.69,1.89v3.54a9.69,9.69,0,0,1-1,.25,6.81,6.81,0,0,1-1.34.12,4.71,4.71,0,0,1-1.1-.11,2.44,2.44,0,0,1-.87-.35,1.7,1.7,0,0,1-.55-.64,2.13,2.13,0,0,1-.2-1,1.79,1.79,0,0,1,.24-.95,1.93,1.93,0,0,1,.63-.61,2.48,2.48,0,0,1,.86-.33,4.29,4.29,0,0,1,.94-.1l.76,0Zm-2.94-4A1.6,1.6,0,0,1,375,17a1.45,1.45,0,0,1,.76-.19,1.31,1.31,0,0,1,.44.07l.4.14.42.14a1.55,1.55,0,0,0,.43.07,1.16,1.16,0,0,0,.38-.06,1.36,1.36,0,0,0,.43-.31,2.14,2.14,0,0,1,.32.45,2.47,2.47,0,0,1,.19.49,1.61,1.61,0,0,1-1.3.61,1.31,1.31,0,0,1-.44-.07l-.42-.14-.41-.14a1.54,1.54,0,0,0-.42-.07,1.13,1.13,0,0,0-.39.07,1.39,1.39,0,0,0-.42.3,4.27,4.27,0,0,1-.3-.44A1.38,1.38,0,0,1,374.47,17.4Zm2.94,5.2-.31,0a1.57,1.57,0,0,0-.29,0,1.72,1.72,0,0,0-.92.21.72.72,0,0,0-.34.66.81.81,0,0,0,.13.48.75.75,0,0,0,.32.24,1.24,1.24,0,0,0,.39.09l.36,0a2.07,2.07,0,0,0,.35,0l.31-.05Z" transform="translate(0 2.5)"/><path class="cls-1" d="M383.12,25.54a3.24,3.24,0,0,1-1.3-.24,2.48,2.48,0,0,1-.91-.68,2.8,2.8,0,0,1-.54-1,4.15,4.15,0,0,1-.18-1.25,4.26,4.26,0,0,1,.18-1.26,2.89,2.89,0,0,1,.54-1,2.57,2.57,0,0,1,.91-.67,3.08,3.08,0,0,1,1.3-.25,3.11,3.11,0,0,1,1.3.25,2.61,2.61,0,0,1,.92.67,2.89,2.89,0,0,1,.54,1,4.26,4.26,0,0,1,.18,1.26,4.15,4.15,0,0,1-.18,1.25,2.8,2.8,0,0,1-.54,1,2.51,2.51,0,0,1-.92.68A3.28,3.28,0,0,1,383.12,25.54Zm0-1.28a1,1,0,0,0,.95-.49,2.8,2.8,0,0,0,.29-1.41,2.85,2.85,0,0,0-.29-1.41,1,1,0,0,0-.95-.49,1,1,0,0,0-.94.49,2.75,2.75,0,0,0-.29,1.41,2.7,2.7,0,0,0,.29,1.41A1,1,0,0,0,383.12,24.26Z" transform="translate(0 2.5)"/><path class="cls-1" d="M113.37,35.37h-2.12a3.67,3.67,0,0,1-.07-.75,3.51,3.51,0,0,1,.07-.72h6a3.51,3.51,0,0,1,.07.72,3.67,3.67,0,0,1-.07.75H115.1v7l-.42,0-.42,0h-.43l-.46-.05Z" transform="translate(0 2.5)"/><path class="cls-1" d="M118.49,33.9l1-.1c.3,0,.64,0,1,0a6.85,6.85,0,0,1,1.28.12,3.53,3.53,0,0,1,1.14.42,2.35,2.35,0,0,1,.82.81,2.49,2.49,0,0,1,.32,1.31,2.56,2.56,0,0,1-.42,1.46,2.73,2.73,0,0,1-.4.47,2.42,2.42,0,0,1-.4.31l-.2.13,2.07,3.6-.5,0a4.58,4.58,0,0,1-.53,0,6.54,6.54,0,0,1-.89-.07l-2.22-4,.28-.14.41-.21a3.22,3.22,0,0,0,.45-.33,1.71,1.71,0,0,0,.37-.47,1.29,1.29,0,0,0,.16-.66,1.33,1.33,0,0,0-.43-1.09,1.69,1.69,0,0,0-1.1-.35,2.29,2.29,0,0,0-.47,0V42.4l-.43,0-.41,0H119l-.46-.05Z" transform="translate(0 2.5)"/><path class="cls-1" d="M127.05,35.37h-2.12a4.54,4.54,0,0,1-.07-.75,4.39,4.39,0,0,1,.07-.72h6a3.51,3.51,0,0,1,.07.72,3.67,3.67,0,0,1-.07.75h-2.11v7l-.43,0-.41,0h-.43l-.47-.05Z" transform="translate(0 2.5)"/><path class="cls-1" d="M138.36,33.76l.42,0h.82l.42,0V42.2a8.62,8.62,0,0,1-1.12.25,9.25,9.25,0,0,1-1.39.09,4.3,4.3,0,0,1-1.2-.17,2.81,2.81,0,0,1-1-.54,2.48,2.48,0,0,1-.69-1,4,4,0,0,1,0-2.71,2.92,2.92,0,0,1,.63-1,2.88,2.88,0,0,1,1-.7,3.37,3.37,0,0,1,1.29-.25l.44,0a2.11,2.11,0,0,1,.45.08Zm0,3.79a2.73,2.73,0,0,0-.39-.07,2,2,0,0,0-.37,0,1.34,1.34,0,0,0-.68.16,1.49,1.49,0,0,0-.48.42,1.79,1.79,0,0,0-.27.63,3.08,3.08,0,0,0-.09.75,2.45,2.45,0,0,0,.12.82,1.2,1.2,0,0,0,.32.54,1.28,1.28,0,0,0,.49.29,2,2,0,0,0,.61.09l.37,0a2.07,2.07,0,0,0,.37-.08Z" transform="translate(0 2.5)"/><path class="cls-1" d="M144.69,38.38a1,1,0,0,0-.09-.46.78.78,0,0,0-.26-.28,1.16,1.16,0,0,0-.41-.13,3,3,0,0,0-.54,0,4.1,4.1,0,0,0-1.36.25,3.9,3.9,0,0,1-.25-.58,2.46,2.46,0,0,1-.08-.65,6.59,6.59,0,0,1,1-.26,5.67,5.67,0,0,1,1-.08,2.83,2.83,0,0,1,1.92.59,2.35,2.35,0,0,1,.69,1.89v3.54a9.07,9.07,0,0,1-1,.25,6.81,6.81,0,0,1-1.34.12,4.71,4.71,0,0,1-1.1-.11,2.44,2.44,0,0,1-.87-.35,1.7,1.7,0,0,1-.55-.64,2.13,2.13,0,0,1-.2-1,1.79,1.79,0,0,1,.25-.95,1.9,1.9,0,0,1,.62-.61,2.48,2.48,0,0,1,.86-.33,4.32,4.32,0,0,1,.95-.1l.75,0Zm0,1.22-.31,0a1.52,1.52,0,0,0-.29,0,1.74,1.74,0,0,0-.92.21.71.71,0,0,0-.33.66.74.74,0,0,0,.13.48.73.73,0,0,0,.31.24,1.24,1.24,0,0,0,.39.09l.36,0a2,2,0,0,0,.35,0l.31-.05Z" transform="translate(0 2.5)"/><path class="cls-1" d="M151.57,39l1.58-2.87h-2.6a4.15,4.15,0,0,1-.07-.7,4.42,4.42,0,0,1,.07-.74h4.94l.12.2-1.9,3.16h0a1.92,1.92,0,0,1,.84.18,1.8,1.8,0,0,1,.62.46,2.14,2.14,0,0,1,.39.67,2.28,2.28,0,0,1,.14.77,3.25,3.25,0,0,1-.26,1.33,2.64,2.64,0,0,1-.72,1,3.25,3.25,0,0,1-1.09.58,4.56,4.56,0,0,1-1.36.19l-.63,0a4.52,4.52,0,0,1-.53-.06,4.77,4.77,0,0,1-.51-.13l-.58-.18a3.11,3.11,0,0,1,.13-.73,3.26,3.26,0,0,1,.28-.65c.3.09.58.17.84.23a3.65,3.65,0,0,0,.92.1,2.84,2.84,0,0,0,.72-.09,1.82,1.82,0,0,0,.58-.27,1.31,1.31,0,0,0,.4-.47,1.59,1.59,0,0,0,.14-.68,1,1,0,0,0-.13-.52,1.16,1.16,0,0,0-.34-.36,1.75,1.75,0,0,0-.5-.21,2.74,2.74,0,0,0-.59-.06h-.41a1.85,1.85,0,0,0-.41.07Z" transform="translate(0 2.5)"/><path class="cls-1" d="M160.06,35.63c0-.28-.08-.46-.25-.53a1.81,1.81,0,0,0-.74-.12,3.16,3.16,0,0,0-.51,0,3.53,3.53,0,0,0-.54.13,1.61,1.61,0,0,1-.22-.46,1.64,1.64,0,0,1-.07-.52,7.72,7.72,0,0,1,.83-.2,5.78,5.78,0,0,1,.77-.07,2.23,2.23,0,0,1,1.51.46,1.78,1.78,0,0,1,.55,1.46V38.5a7.68,7.68,0,0,1-.81.19,5,5,0,0,1-1,.1,4.79,4.79,0,0,1-.88-.08,2.15,2.15,0,0,1-.67-.28,1.35,1.35,0,0,1-.43-.49,1.64,1.64,0,0,1-.15-.73,1.35,1.35,0,0,1,.68-1.22,2.28,2.28,0,0,1,.68-.25,3.81,3.81,0,0,1,.74-.08h.28l.27,0Zm0,.92-.21,0h-.23a1.38,1.38,0,0,0-.7.14.52.52,0,0,0-.25.49.48.48,0,0,0,.1.33.63.63,0,0,0,.24.16,1.09,1.09,0,0,0,.3.07h.54l.21,0Z" transform="translate(0 2.5)"/><path class="cls-1" d="M166.09,33.9l1-.1c.3,0,.64,0,1,0a6.85,6.85,0,0,1,1.28.12,3.53,3.53,0,0,1,1.14.42,2.35,2.35,0,0,1,.82.81,2.49,2.49,0,0,1,.31,1.31,3,3,0,0,1-.11.83,2.8,2.8,0,0,1-.7,1.1,2.42,2.42,0,0,1-.4.31l-.2.13,2.06,3.6-.49,0a4.75,4.75,0,0,1-.54,0,6.52,6.52,0,0,1-.88-.07l-2.22-4,.28-.14.4-.21a2.79,2.79,0,0,0,.46-.33,1.92,1.92,0,0,0,.37-.47,1.4,1.4,0,0,0,.15-.66,1.33,1.33,0,0,0-.42-1.09,1.7,1.7,0,0,0-1.1-.35,2.29,2.29,0,0,0-.47,0V42.4l-.43,0-.41,0h-.43l-.46-.05Z" transform="translate(0 2.5)"/><path class="cls-1" d="M174.45,39.86a1.29,1.29,0,0,0,.49,1,2,2,0,0,0,1.18.32,4.56,4.56,0,0,0,.82-.08,4.94,4.94,0,0,0,.8-.22,3.07,3.07,0,0,1,.23.57,2.65,2.65,0,0,1,.1.71,5.85,5.85,0,0,1-2.08.35,4,4,0,0,1-1.46-.24,2.55,2.55,0,0,1-1-.65,2.81,2.81,0,0,1-.57-1,4.28,4.28,0,0,1-.18-1.27,4,4,0,0,1,.19-1.26,3,3,0,0,1,.56-1,2.75,2.75,0,0,1,.92-.69,3.06,3.06,0,0,1,1.29-.25,2.71,2.71,0,0,1,1.13.22,2.63,2.63,0,0,1,.85.62,2.68,2.68,0,0,1,.52.92,3.66,3.66,0,0,1,.18,1.16c0,.15,0,.29,0,.44s0,.26,0,.35Zm2.39-1.17a1.47,1.47,0,0,0-.31-.92,1,1,0,0,0-.81-.35,1.19,1.19,0,0,0-.9.33,1.61,1.61,0,0,0-.36.94Z" transform="translate(0 2.5)"/><path class="cls-1" d="M183.18,41.38a2.46,2.46,0,0,1,1.58.48,1.63,1.63,0,0,1,.51,1.29,1.67,1.67,0,0,1-.26.91,2.23,2.23,0,0,1-.71.69,3.52,3.52,0,0,1-1.06.44,5.58,5.58,0,0,1-1.33.15,5.84,5.84,0,0,1-1.2-.11,2.8,2.8,0,0,1-.81-.31,1.19,1.19,0,0,1-.45-.5,1.55,1.55,0,0,1-.14-.65,1.44,1.44,0,0,1,.26-.88,2.36,2.36,0,0,1,.68-.6,1.21,1.21,0,0,1-.43-.41,1.06,1.06,0,0,1-.16-.62,1.26,1.26,0,0,1,.19-.73,2,2,0,0,1,.55-.54,2.19,2.19,0,0,1-.64-.72,2,2,0,0,1-.22-1,2.07,2.07,0,0,1,.18-.86,1.88,1.88,0,0,1,.51-.68,2.5,2.5,0,0,1,.82-.46,3.38,3.38,0,0,1,1.09-.16,3.24,3.24,0,0,1,1.09.18,2.6,2.6,0,0,1,.82.47,1.33,1.33,0,0,1,.56-.44,2.22,2.22,0,0,1,.9-.15c0,.1,0,.2,0,.3a3,3,0,0,1,0,.31c0,.13,0,.26,0,.38a2.58,2.58,0,0,1,0,.39h-1a2.74,2.74,0,0,1,.11.28,1.78,1.78,0,0,1,0,.44,2.06,2.06,0,0,1-.17.86,1.85,1.85,0,0,1-.5.68,2.43,2.43,0,0,1-.81.45,3.31,3.31,0,0,1-1.08.16,3.62,3.62,0,0,1-.91-.1.52.52,0,0,0-.25.27,1,1,0,0,0,0,.28.39.39,0,0,0,.13.31.79.79,0,0,0,.5.13Zm-1.51,1.23a1,1,0,0,0-.44.06.91.91,0,0,0-.27.18.89.89,0,0,0-.14.25.84.84,0,0,0,0,.27.61.61,0,0,0,.34.61,2.2,2.2,0,0,0,.9.16,2.56,2.56,0,0,0,1.2-.24.72.72,0,0,0,.45-.64.78.78,0,0,0,0-.22.37.37,0,0,0-.11-.2.57.57,0,0,0-.23-.15,1.07,1.07,0,0,0-.39-.06Zm.48-3.23a.86.86,0,0,0,.72-.28,1.55,1.55,0,0,0,0-1.56,1.05,1.05,0,0,0-1.45,0,1.44,1.44,0,0,0,0,1.56A.87.87,0,0,0,182.15,39.38Z" transform="translate(0 2.5)"/><path class="cls-1" d="M186.77,37.57H186c0-.11,0-.22,0-.33a1.77,1.77,0,0,1,0-.32,2.59,2.59,0,0,1,.07-.63h2.43V42.4a4.84,4.84,0,0,1-1.64,0Zm-.25-2.31a5.39,5.39,0,0,1-.07-.79,5.51,5.51,0,0,1,.07-.79c.14,0,.28,0,.43-.06h.86c.16,0,.3,0,.44.06s0,.26.05.39,0,.27,0,.4,0,.26,0,.39,0,.27-.05.4l-.43.05H187Z" transform="translate(0 2.5)"/><path class="cls-1" d="M193.12,38.38a1,1,0,0,0-.1-.46.7.7,0,0,0-.26-.28,1.1,1.1,0,0,0-.41-.13,2.93,2.93,0,0,0-.53,0,4.05,4.05,0,0,0-1.36.25,3.07,3.07,0,0,1-.25-.58,2.1,2.1,0,0,1-.08-.65,6.33,6.33,0,0,1,1-.26,5.59,5.59,0,0,1,1-.08,2.86,2.86,0,0,1,1.92.59,2.35,2.35,0,0,1,.69,1.89v3.54a9.31,9.31,0,0,1-1,.25,6.7,6.7,0,0,1-1.33.12,4.86,4.86,0,0,1-1.11-.11,2.47,2.47,0,0,1-.86-.35,1.72,1.72,0,0,1-.56-.64,2.13,2.13,0,0,1-.19-1,1.79,1.79,0,0,1,.24-.95,1.84,1.84,0,0,1,.63-.61,2.43,2.43,0,0,1,.85-.33,4.38,4.38,0,0,1,1-.1l.76,0Zm-3-4a1.64,1.64,0,0,1,.53-.44,1.45,1.45,0,0,1,.76-.19,1.21,1.21,0,0,1,.43.07l.41.14.41.14a1.68,1.68,0,0,0,.44.07,1.16,1.16,0,0,0,.38-.06,1.36,1.36,0,0,0,.43-.31,1.8,1.8,0,0,1,.31.45,2,2,0,0,1,.19.49,1.54,1.54,0,0,1-.53.44,1.71,1.71,0,0,1-.77.17,1.25,1.25,0,0,1-.43-.07l-.42-.14-.42-.14a1.42,1.42,0,0,0-.42-.07,1.13,1.13,0,0,0-.39.07,1.37,1.37,0,0,0-.41.3c-.11-.14-.21-.29-.31-.44A1.92,1.92,0,0,1,190.17,34.4Zm3,5.2-.31,0a1.62,1.62,0,0,0-.3,0,1.7,1.7,0,0,0-.91.21.7.7,0,0,0-.34.66.74.74,0,0,0,.13.48.79.79,0,0,0,.31.24,1.38,1.38,0,0,0,.39.09l.36,0,.36,0,.31-.05Z" transform="translate(0 2.5)"/><path class="cls-1" d="M198.82,42.54a3.23,3.23,0,0,1-1.29-.24,2.4,2.4,0,0,1-.91-.68,2.8,2.8,0,0,1-.54-1,3.86,3.86,0,0,1-.19-1.25,4,4,0,0,1,.19-1.26,2.89,2.89,0,0,1,.54-1,2.48,2.48,0,0,1,.91-.67,3.48,3.48,0,0,1,2.59,0,2.64,2.64,0,0,1,.93.67,2.89,2.89,0,0,1,.54,1,4.26,4.26,0,0,1,.18,1.26,4.15,4.15,0,0,1-.18,1.25,2.8,2.8,0,0,1-.54,1,2.55,2.55,0,0,1-.93.68A3.24,3.24,0,0,1,198.82,42.54Zm0-1.28a1,1,0,0,0,1-.49,2.7,2.7,0,0,0,.29-1.41,2.75,2.75,0,0,0-.29-1.41,1.16,1.16,0,0,0-1.89,0,2.85,2.85,0,0,0-.29,1.41,2.8,2.8,0,0,0,.29,1.41A1,1,0,0,0,198.82,41.26Z" transform="translate(0 2.5)"/><path class="cls-1" d="M206.82,44.37a8.12,8.12,0,0,1-.95-2.23,12,12,0,0,1-.31-1.52,14.64,14.64,0,0,1-.11-1.83,14.47,14.47,0,0,1,.11-1.82,11.62,11.62,0,0,1,.31-1.52,8.53,8.53,0,0,1,.43-1.24,9.84,9.84,0,0,1,.52-1l.33-.06h.94l.4.06a7.61,7.61,0,0,0-.8,1.87,12.4,12.4,0,0,0-.38,1.61,13.67,13.67,0,0,0,0,4.17,12.75,12.75,0,0,0,.38,1.63,8.25,8.25,0,0,0,.43,1.16,7.9,7.9,0,0,0,.37.7,2.07,2.07,0,0,1-.4.05,3.77,3.77,0,0,1-.47,0,3.47,3.47,0,0,1-.47,0A1.14,1.14,0,0,1,206.82,44.37Z" transform="translate(0 2.5)"/><path class="cls-1" d="M210.14,33.9a5.84,5.84,0,0,1,.91-.07,5.49,5.49,0,0,1,.91.07l1.95,4.87,2-4.87a4.18,4.18,0,0,1,.82-.07,4.83,4.83,0,0,1,.86.07l.4,8.5a5.12,5.12,0,0,1-.85.07,4.15,4.15,0,0,1-.79-.07l-.21-5.77-1.73,4-.34,0h-.66a1.75,1.75,0,0,1-.32,0l-1.61-4.08-.16,5.85a3.85,3.85,0,0,1-.74.07,4.26,4.26,0,0,1-.78-.07Z" transform="translate(0 2.5)"/><path class="cls-1" d="M224.23,38a5,5,0,0,1,.85-.07,5.15,5.15,0,0,1,.86.07v4.17a5.43,5.43,0,0,1-1.28.3,10.6,10.6,0,0,1-1.16.08,4.62,4.62,0,0,1-1.82-.33,3.29,3.29,0,0,1-1.3-.91,3.68,3.68,0,0,1-.78-1.38,5.49,5.49,0,0,1-.26-1.75,5.55,5.55,0,0,1,.27-1.76,4.16,4.16,0,0,1,.78-1.4,3.67,3.67,0,0,1,1.27-.92,4.21,4.21,0,0,1,1.71-.33,6.94,6.94,0,0,1,1,.07,4.39,4.39,0,0,1,1,.3,2.85,2.85,0,0,1-.15.69,7.23,7.23,0,0,1-.26.68,4.53,4.53,0,0,0-.73-.2,4.06,4.06,0,0,0-.75-.06,2.12,2.12,0,0,0-1.75.74,3.4,3.4,0,0,0-.61,2.19,3.27,3.27,0,0,0,.61,2.17,2.2,2.2,0,0,0,1.77.71l.36,0,.29-.05Z" transform="translate(0 2.5)"/><path class="cls-1" d="M227.22,44.37c.09-.16.22-.39.37-.7a8.25,8.25,0,0,0,.43-1.16,12.86,12.86,0,0,0,.37-1.63,13.67,13.67,0,0,0,0-4.17A12.5,12.5,0,0,0,228,35.1a8,8,0,0,0-.43-1.17c-.15-.31-.28-.54-.37-.7l.4-.06h.94l.33.06a9.84,9.84,0,0,1,.52,1,8.53,8.53,0,0,1,.43,1.24,10.23,10.23,0,0,1,.3,1.52,12.73,12.73,0,0,1,.12,1.82,12.88,12.88,0,0,1-.12,1.83,10.49,10.49,0,0,1-.3,1.52,8.12,8.12,0,0,1-1,2.23,1.21,1.21,0,0,1-.33.05,3.54,3.54,0,0,1-.47,0,3.77,3.77,0,0,1-.47,0A2.07,2.07,0,0,1,227.22,44.37Z" transform="translate(0 2.5)"/></svg>