<svg id="Camada_1" data-name="Camada 1" xmlns="http://www.w3.org/2000/svg" xmlns:xlink="http://www.w3.org/1999/xlink" width="244.7" height="63.79" viewBox="0 0 244.7 63.79"><defs><style>.cls-1{fill:none;}.cls-2{fill:url(#azul_logo);}.cls-3{fill:url(#azul_logo-2);}.cls-4{clip-path:url(#clip-path);}.cls-5{fill:url(#radial-gradient);}.cls-6{clip-path:url(#clip-path-2);}.cls-7{fill:url(#azul_logo-4);}.cls-8{clip-path:url(#clip-path-3);}.cls-9{fill:url(#linear-gradient);}.cls-10{clip-path:url(#clip-path-4);}.cls-11{fill:url(#linear-gradient-2);}.cls-12{clip-path:url(#clip-path-5);}.cls-13{fill:url(#linear-gradient-3);}.cls-14{clip-path:url(#clip-path-6);}.cls-15{fill:url(#linear-gradient-4);}.cls-16{clip-path:url(#clip-path-7);}.cls-17{fill:url(#azul_logo-6);}.cls-18{fill:#01426a;}</style><linearGradient id="azul_logo" x1="3.65" y1="33.89" x2="25.52" y2="33.89" gradientUnits="userSpaceOnUse"><stop offset="0" stop-color="#0067a0"/><stop offset="1" stop-color="#01426a"/></linearGradient><linearGradient id="azul_logo-2" x1="0" y1="52.12" x2="14.58" y2="52.12" xlink:href="#azul_logo"/><clipPath id="clip-path" transform="translate(0 0.73)"><path class="cls-1" d="M16.36,10.2a5.47,5.47,0,1,0,5.46-5.47,5.47,5.47,0,0,0-5.46,5.47"/></clipPath><radialGradient id="radial-gradient" cx="-711.91" cy="734.88" r="1.47" gradientTransform="matrix(0, 3.73, 3.73, 0, -2718.77, 2661.23)" xlink:href="#azul_logo"/><clipPath id="clip-path-2" transform="translate(0 0.73)"><path class="cls-2" d="M3.65,17.49v7.29h7.28a7.29,7.29,0,0,1,7.29,7.29V50.3h7.3V32.07A14.59,14.59,0,0,0,10.93,17.49Z"/></clipPath><linearGradient id="azul_logo-4" x1="-836.34" y1="617.12" x2="-834.87" y2="617.12" gradientTransform="matrix(0, 17.07, 17.07, 0, -10522.28, 14305.91)" xlink:href="#azul_logo"/><clipPath id="clip-path-3" transform="translate(0 0.73)"><path class="cls-1" d="M3.65,17.49v7.29h7.28c.26,0,.5,0,.75,0A14.57,14.57,0,0,1,25.52,39.36V32.07A14.59,14.59,0,0,0,10.93,17.49Z"/></clipPath><linearGradient id="linear-gradient" x1="-809.21" y1="431.45" x2="-807.74" y2="431.45" gradientTransform="matrix(0, -5.15, -5.15, 0, 2235.54, -4139.67)" gradientUnits="userSpaceOnUse"><stop offset="0" stop-color="#01426a"/><stop offset="0.12" stop-color="#014670"/><stop offset="1" stop-color="#0067a0"/></linearGradient><clipPath id="clip-path-4" transform="translate(0 0.73)"><rect class="cls-1" y="28.43" width="14.58" height="7.29"/></clipPath><linearGradient id="linear-gradient-2" x1="-754.17" y1="585" x2="-752.7" y2="585" gradientTransform="matrix(9.62, 0, 0, -9.62, 7255.48, 5660.61)" gradientUnits="userSpaceOnUse"><stop offset="0" stop-color="#007b5f"/><stop offset="1" stop-color="#00b388"/></linearGradient><clipPath id="clip-path-5" transform="translate(0 0.73)"><rect class="cls-1" x="25.52" y="17.49" width="14.58" height="7.29"/></clipPath><linearGradient id="linear-gradient-3" x1="-754.92" y1="585.16" x2="-753.45" y2="585.16" gradientTransform="matrix(9.83, 0, 0, -9.83, 7444.93, 5772.86)" gradientUnits="userSpaceOnUse"><stop offset="0" stop-color="#fbdb65"/><stop offset="1" stop-color="#ffcd00"/></linearGradient><clipPath id="clip-path-6" transform="translate(0 0.73)"><path class="cls-1" d="M7.29,39.36v9.11A7.29,7.29,0,0,1,0,55.76v7.29A14.58,14.58,0,0,0,14.58,48.47V39.36Z"/></clipPath><linearGradient id="linear-gradient-4" x1="-840.5" y1="648.69" x2="-839.04" y2="648.69" gradientTransform="matrix(0, 9.82, 9.82, 0, -6361.89, 8292.62)" gradientUnits="userSpaceOnUse"><stop offset="0" stop-color="#01426a"/><stop offset="1" stop-color="#0067a0"/></linearGradient><clipPath id="clip-path-7" transform="translate(0 0.73)"><path class="cls-3" d="M.74,55.73c-.24,0-.49,0-.74,0v7.29A14.58,14.58,0,0,0,14.58,48.47V41.18A14.57,14.57,0,0,1,.74,55.73"/></clipPath><linearGradient id="azul_logo-6" x1="-813.37" y1="459.71" x2="-813.37" y2="457.41" gradientTransform="matrix(0, -6.34, -6.34, 0, 2914.44, -5103.67)" xlink:href="#azul_logo"/></defs><title>Logo-GECJ-TRT-TopoMobile</title><g class="cls-4"><rect class="cls-5" x="14.09" y="2.47" width="15.46" height="15.46" transform="translate(-0.82 19.15) rotate(-45)"/></g><path class="cls-2" d="M3.65,17.49v7.29h7.28a7.29,7.29,0,0,1,7.29,7.29V50.3h7.3V32.07A14.59,14.59,0,0,0,10.93,17.49Z" transform="translate(0 0.73)"/><g class="cls-6"><rect class="cls-7" x="3.65" y="18.23" width="21.87" height="32.8"/></g><g class="cls-8"><rect class="cls-9" x="3.65" y="18.23" width="21.87" height="21.87"/></g><g class="cls-10"><rect class="cls-11" y="29.16" width="14.58" height="7.29"/></g><g class="cls-12"><rect class="cls-13" x="25.52" y="18.23" width="14.58" height="7.29"/></g><g class="cls-14"><rect class="cls-15" y="40.1" width="14.58" height="23.69"/></g><path class="cls-3" d="M.74,55.73c-.24,0-.49,0-.74,0v7.29A14.58,14.58,0,0,0,14.58,48.47V41.18A14.57,14.57,0,0,1,.74,55.73" transform="translate(0 0.73)"/><g class="cls-16"><rect class="cls-17" y="41.92" width="14.58" height="21.87"/></g><path class="cls-18" d="M63,32.21V42.6a9.57,9.57,0,0,1-1.71,6.12,6,6,0,0,1-5,2.13,6,6,0,0,1-5-2.13,9.51,9.51,0,0,1-1.72-6.12v-17a9.5,9.5,0,0,1,1.72-6.11,6,6,0,0,1,5-2.13,6,6,0,0,1,5,2.13A9.56,9.56,0,0,1,63,25.55v3.19H58.72V25.23C58.72,23.07,58,22,56.4,22s-2.32,1.08-2.32,3.24v17.7c0,2.13.77,3.19,2.32,3.19s2.32-1.06,2.32-3.19v-6h-2V32.21Z" transform="translate(0 0.73)"/><path class="cls-18" d="M76.49,31.5v4.69H70.34v9.6h7.74v4.68H65.86V17.68H78.08v4.69H70.34V31.5Z" transform="translate(0 0.73)"/><path class="cls-18" d="M93.85,42.6a9.57,9.57,0,0,1-1.71,6.12,6.86,6.86,0,0,1-9.94,0,9.57,9.57,0,0,1-1.71-6.12v-17a9.56,9.56,0,0,1,1.71-6.11,6.86,6.86,0,0,1,9.94,0,9.56,9.56,0,0,1,1.71,6.11v3.19H89.61V25.23c0-2.16-.77-3.24-2.32-3.24S85,23.07,85,25.23v17.7c0,2.13.77,3.19,2.32,3.19s2.32-1.06,2.32-3.19V38.25h4.24Z" transform="translate(0 0.73)"/><path class="cls-18" d="M96.91,45.84a2.57,2.57,0,0,0,1.9-.68,3.53,3.53,0,0,0,.67-2.46v-25H104V42.32q0,8.25-6.44,8.25a16.68,16.68,0,0,1-2.16-.1V45.79C95.69,45.82,96.2,45.84,96.91,45.84Z" transform="translate(0 0.73)"/><path class="cls-18" d="M122.31,20.62a4.29,4.29,0,0,1,.79-.07,4.56,4.56,0,0,1,.8.07V24.5a5.29,5.29,0,0,1-1.19.28,9.23,9.23,0,0,1-1.09.07,4.4,4.4,0,0,1-1.69-.3,3.2,3.2,0,0,1-1.21-.85,3.55,3.55,0,0,1-.73-1.29,5.54,5.54,0,0,1,0-3.26,3.77,3.77,0,0,1,.74-1.3,3.24,3.24,0,0,1,1.17-.86,3.86,3.86,0,0,1,1.59-.31,6.15,6.15,0,0,1,1,.07,3.7,3.7,0,0,1,1,.27,2.69,2.69,0,0,1-.13.64l-.24.64a5.27,5.27,0,0,0-.69-.19,3.51,3.51,0,0,0-.7-.06,2,2,0,0,0-1.62.69,3.14,3.14,0,0,0-.57,2,3.1,3.1,0,0,0,.56,2,2,2,0,0,0,1.65.67,1.72,1.72,0,0,0,.34,0l.27,0Z" transform="translate(0 0.73)"/><path class="cls-18" d="M125.31,19l.31-.05H126a1.72,1.72,0,0,1,.32,0,2.84,2.84,0,0,1,.31.06.35.35,0,0,1,.07.15c0,.07,0,.15,0,.22a2,2,0,0,1,0,.24c0,.07,0,.14,0,.19a2.67,2.67,0,0,1,.6-.61,1.37,1.37,0,0,1,.87-.27h.26l.21,0,0,.25c0,.1,0,.2,0,.3s0,.26,0,.41a2.65,2.65,0,0,1-.06.42,1.12,1.12,0,0,0-.27,0h-.18a3.66,3.66,0,0,0-.42,0,1,1,0,0,0-.43.21,1.17,1.17,0,0,0-.35.49,2.52,2.52,0,0,0-.14.93v2.7l-.39.05h-.77l-.4-.05Z" transform="translate(0 0.73)"/><path class="cls-18" d="M132.46,21a.89.89,0,0,0-.09-.43.75.75,0,0,0-.24-.26,1,1,0,0,0-.38-.12,2.6,2.6,0,0,0-.5,0,4,4,0,0,0-1.27.23,3.27,3.27,0,0,1-.23-.53,2.18,2.18,0,0,1-.07-.61,5.62,5.62,0,0,1,1-.24,6.12,6.12,0,0,1,.91-.08,2.69,2.69,0,0,1,1.78.55,2.21,2.21,0,0,1,.65,1.76v3.3a8.66,8.66,0,0,1-.94.23,5.83,5.83,0,0,1-1.24.11,4.74,4.74,0,0,1-1-.1,2,2,0,0,1-.8-.33,1.48,1.48,0,0,1-.52-.59,2,2,0,0,1-.18-.89,1.66,1.66,0,0,1,.22-.89,1.89,1.89,0,0,1,.59-.57,2.89,2.89,0,0,1,.79-.31,4.46,4.46,0,0,1,.88-.09l.71,0Zm0,1.13-.29,0a1.32,1.32,0,0,0-.27,0,1.58,1.58,0,0,0-.85.19.68.68,0,0,0-.32.62.7.7,0,0,0,.12.44.71.71,0,0,0,.29.23,1.18,1.18,0,0,0,.37.09h.33l.33,0,.29-.05Z" transform="translate(0 0.73)"/><path class="cls-18" d="M135.52,20.22h-.72l-.05-.22,2.05-2.63h.26V19h1.33c0,.11,0,.21,0,.3a2.53,2.53,0,0,1,0,.28,2.71,2.71,0,0,1,0,.29c0,.1,0,.2,0,.32h-1.33v2.24a2.15,2.15,0,0,0,.05.55,1,1,0,0,0,.16.33.54.54,0,0,0,.26.16,1.28,1.28,0,0,0,.36,0l.33,0,.28-.05a2.09,2.09,0,0,1,.11.43,3.15,3.15,0,0,1,0,.4v.21s0,.1,0,.16a4.57,4.57,0,0,1-1.05.12,2.28,2.28,0,0,1-1.53-.47,1.94,1.94,0,0,1-.52-1.52Z" transform="translate(0 0.73)"/><path class="cls-18" d="M139.88,20.22h-.73a1.34,1.34,0,0,1-.05-.3c0-.11,0-.21,0-.3a2.32,2.32,0,0,1,.07-.59h2.26v5.69a5.12,5.12,0,0,1-.77.07,5.24,5.24,0,0,1-.76-.07Zm-.23-2.14a4.71,4.71,0,0,1-.06-.74,4.91,4.91,0,0,1,.06-.74l.4-.05h.8l.41.05a2.46,2.46,0,0,1,0,.37c0,.12,0,.24,0,.37s0,.24,0,.36a2.45,2.45,0,0,1,0,.38l-.4,0h-.8Z" transform="translate(0 0.73)"/><path class="cls-18" d="M143.33,20.22h-.91c0-.12,0-.22,0-.32a2.71,2.71,0,0,1,0-.29,2.53,2.53,0,0,1,0-.28c0-.09,0-.19,0-.3h.91v-.27a2.16,2.16,0,0,1,.19-.94,1.83,1.83,0,0,1,.53-.69,2.24,2.24,0,0,1,.81-.43,3.37,3.37,0,0,1,1-.15,7.84,7.84,0,0,1,1,.06,3.57,3.57,0,0,1,.9.26,2.84,2.84,0,0,1-.11.67,2.58,2.58,0,0,1-.25.56,4.12,4.12,0,0,0-.7-.21,3.8,3.8,0,0,0-.69-.05,2.83,2.83,0,0,0-.41,0,1.16,1.16,0,0,0-.38.15.76.76,0,0,0-.27.29,1,1,0,0,0-.11.48V19h3.48v5.69a5.12,5.12,0,0,1-.77.07,5,5,0,0,1-.75-.07v-4.5h-2v4.5a5.24,5.24,0,0,1-.77.07,5.14,5.14,0,0,1-.78-.07Z" transform="translate(0 0.73)"/><path class="cls-18" d="M153.72,23.38a2.26,2.26,0,0,1,.31,1.2,3.11,3.11,0,0,1-.83.22,5.13,5.13,0,0,1-.8.05,3.12,3.12,0,0,1-1.24-.22,2.46,2.46,0,0,1-.88-.62,2.78,2.78,0,0,1-.52-.94,3.81,3.81,0,0,1-.17-1.19,3.62,3.62,0,0,1,.17-1.16,2.64,2.64,0,0,1,.51-.95,2.46,2.46,0,0,1,.87-.64,3,3,0,0,1,1.2-.23h.44a2.3,2.3,0,0,1,.39.05,2.62,2.62,0,0,1,.38.09,3.34,3.34,0,0,1,.41.14,2.89,2.89,0,0,1-.06.56,3,3,0,0,1-.21.6,3.51,3.51,0,0,0-1.15-.18,1.23,1.23,0,0,0-1,.44,2,2,0,0,0-.35,1.27,1.87,1.87,0,0,0,.37,1.3,1.33,1.33,0,0,0,1,.41h.3l.27,0a1.31,1.31,0,0,0,.27-.06Z" transform="translate(0 0.73)"/><path class="cls-18" d="M158,21a.89.89,0,0,0-.09-.43.75.75,0,0,0-.24-.26,1.06,1.06,0,0,0-.38-.12,2.6,2.6,0,0,0-.5,0,4,4,0,0,0-1.27.23,3.27,3.27,0,0,1-.23-.53,2.15,2.15,0,0,1-.08-.61,6,6,0,0,1,1-.24,6.11,6.11,0,0,1,.9-.08,2.7,2.7,0,0,1,1.79.55,2.2,2.2,0,0,1,.64,1.76v3.3a7.89,7.89,0,0,1-.93.23,5.9,5.9,0,0,1-1.24.11,4.67,4.67,0,0,1-1-.1,2,2,0,0,1-.8-.33,1.48,1.48,0,0,1-.52-.59,2,2,0,0,1-.18-.89,1.66,1.66,0,0,1,.22-.89,1.79,1.79,0,0,1,.59-.57,2.77,2.77,0,0,1,.79-.31,4.46,4.46,0,0,1,.88-.09l.71,0Zm0,1.13-.29,0a1.32,1.32,0,0,0-.27,0,1.64,1.64,0,0,0-.86.19.68.68,0,0,0-.31.62.7.7,0,0,0,.12.44.71.71,0,0,0,.29.23,1.18,1.18,0,0,0,.37.09h.33l.33,0,.29-.05Z" transform="translate(0 0.73)"/><path class="cls-18" d="M162.64,24.79a2.82,2.82,0,0,1-.92-.37,2.33,2.33,0,0,1-.65-.64,2.5,2.5,0,0,1-.39-.86,4.13,4.13,0,0,1,0-2.2,2.82,2.82,0,0,1,.52-.95,2.52,2.52,0,0,1,.86-.64,3,3,0,0,1,1.2-.23h.45a2.6,2.6,0,0,1,.39.05,2.49,2.49,0,0,1,.37.09,3,3,0,0,1,.42.14,2.32,2.32,0,0,1-.07.56,2.14,2.14,0,0,1-.21.6,3.12,3.12,0,0,0-.57-.14,3.32,3.32,0,0,0-.57,0,1.25,1.25,0,0,0-1,.44,2,2,0,0,0-.34,1.27,1.87,1.87,0,0,0,.37,1.3,1.32,1.32,0,0,0,1,.41h.3a1.12,1.12,0,0,0,.27,0,1.31,1.31,0,0,0,.27-.06l.33-.11a2.26,2.26,0,0,1,.31,1.2,4.39,4.39,0,0,1-.82.22,6.56,6.56,0,0,1-.79.05l-.18.45h.18a1.39,1.39,0,0,1,.91.27.87.87,0,0,1,.32.69,1,1,0,0,1-.47.85,2.38,2.38,0,0,1-1.23.28h-.39a2.32,2.32,0,0,1-.49-.09c0-.11,0-.24.05-.39a1,1,0,0,1,.14-.38l.36.08.33,0a1.14,1.14,0,0,0,.49-.08.26.26,0,0,0,.19-.26.27.27,0,0,0-.18-.26,1.17,1.17,0,0,0-.46-.07l-.33,0a1.54,1.54,0,0,0-.34.08l-.08-.08Z" transform="translate(0 0.73)"/><path class="cls-18" d="M168.93,21a1,1,0,0,0-.08-.43.69.69,0,0,0-.25-.26,1,1,0,0,0-.38-.12,2.53,2.53,0,0,0-.5,0,4,4,0,0,0-1.26.23,3.27,3.27,0,0,1-.23-.53,2.15,2.15,0,0,1-.08-.61,5.72,5.72,0,0,1,1-.24,5.88,5.88,0,0,1,.9-.08,2.72,2.72,0,0,1,1.79.55,2.2,2.2,0,0,1,.64,1.76v3.3a9,9,0,0,1-.93.23,5.93,5.93,0,0,1-1.25.11,4.64,4.64,0,0,1-1-.1,2,2,0,0,1-.81-.33,1.53,1.53,0,0,1-.51-.59,1.86,1.86,0,0,1-.19-.89,1.66,1.66,0,0,1,.23-.89,1.76,1.76,0,0,1,.58-.57,3,3,0,0,1,.8-.31,4.38,4.38,0,0,1,.88-.09l.7,0Zm-2.74-3.71a1.65,1.65,0,0,1,.49-.41,1.49,1.49,0,0,1,.71-.17,1.4,1.4,0,0,1,.41.06l.38.13.38.14a1.4,1.4,0,0,0,.41.06,1,1,0,0,0,.35-.06,1.18,1.18,0,0,0,.4-.29,2.18,2.18,0,0,1,.47.88,1.45,1.45,0,0,1-.5.41,1.58,1.58,0,0,1-.71.16,1.4,1.4,0,0,1-.41-.06l-.39-.14-.38-.13a1.34,1.34,0,0,0-.4-.06,1,1,0,0,0-.36.06,1.43,1.43,0,0,0-.38.28,3.81,3.81,0,0,1-.29-.41A1.25,1.25,0,0,1,166.19,17.27Zm2.74,4.84-.28,0a1.42,1.42,0,0,0-.28,0,1.6,1.6,0,0,0-.85.19.68.68,0,0,0-.31.62.7.7,0,0,0,.12.44.71.71,0,0,0,.29.23,1.06,1.06,0,0,0,.36.09h.34l.33,0,.28-.05Z" transform="translate(0 0.73)"/><path class="cls-18" d="M174.25,24.85a3,3,0,0,1-1.21-.22,2.33,2.33,0,0,1-.85-.63,2.74,2.74,0,0,1-.5-.94,4,4,0,0,1-.17-1.17,4,4,0,0,1,.17-1.17,2.61,2.61,0,0,1,.5-.95,2.48,2.48,0,0,1,.85-.64,3,3,0,0,1,1.21-.23,3,3,0,0,1,1.21.23,2.52,2.52,0,0,1,.86.64,2.61,2.61,0,0,1,.5.95,4,4,0,0,1,.17,1.17,4,4,0,0,1-.17,1.17,2.74,2.74,0,0,1-.5.94,2.37,2.37,0,0,1-.86.63A3,3,0,0,1,174.25,24.85Zm0-1.18a1,1,0,0,0,.88-.46,2.63,2.63,0,0,0,.27-1.32,2.59,2.59,0,0,0-.27-1.31,1.07,1.07,0,0,0-1.76,0,2.59,2.59,0,0,0-.27,1.31,2.63,2.63,0,0,0,.27,1.32A1,1,0,0,0,174.25,23.67Z" transform="translate(0 0.73)"/><path class="cls-18" d="M180.6,19l.31,0h.33a3.36,3.36,0,0,1,.63.06.91.91,0,0,1,.06.16,1.55,1.55,0,0,1,0,.23,2,2,0,0,1,.05.24c0,.07,0,.14,0,.19a1.82,1.82,0,0,1,.24-.35,1.49,1.49,0,0,1,.35-.3,1.88,1.88,0,0,1,.45-.22,2,2,0,0,1,.56-.08,2.21,2.21,0,0,1,.89.18,2,2,0,0,1,.72.53,2.75,2.75,0,0,1,.48.9,4.34,4.34,0,0,1,.17,1.27,3.71,3.71,0,0,1-.21,1.29,2.67,2.67,0,0,1-.61,1,2.63,2.63,0,0,1-1,.61,3.81,3.81,0,0,1-1.3.21h-.37l-.3,0v2.53l-.4,0H181l-.41,0Zm1.57,4.49a2.29,2.29,0,0,0,.68.09,1.28,1.28,0,0,0,1-.44,2,2,0,0,0,.37-1.33,3.06,3.06,0,0,0-.06-.63,1.46,1.46,0,0,0-.19-.51,1,1,0,0,0-.33-.33,1,1,0,0,0-.5-.12,1,1,0,0,0-.47.11.84.84,0,0,0-.31.28,1.5,1.5,0,0,0-.18.43,2.76,2.76,0,0,0-.05.51Z" transform="translate(0 0.73)"/><path class="cls-18" d="M189.55,24.85a3,3,0,0,1-1.21-.22,2.22,2.22,0,0,1-.84-.63,2.6,2.6,0,0,1-.51-.94,4,4,0,0,1-.17-1.17,4,4,0,0,1,.17-1.17,2.48,2.48,0,0,1,.51-.95,2.35,2.35,0,0,1,.84-.64,3,3,0,0,1,1.21-.23,3,3,0,0,1,1.21.23,2.52,2.52,0,0,1,.86.64,2.61,2.61,0,0,1,.5.95,4,4,0,0,1,.17,1.17,4,4,0,0,1-.17,1.17,2.74,2.74,0,0,1-.5.94,2.37,2.37,0,0,1-.86.63A3,3,0,0,1,189.55,24.85Zm0-1.18a1,1,0,0,0,.88-.46,2.63,2.63,0,0,0,.27-1.32,2.59,2.59,0,0,0-.27-1.31,1.07,1.07,0,0,0-1.76,0,2.59,2.59,0,0,0-.27,1.31,2.63,2.63,0,0,0,.27,1.32A1,1,0,0,0,189.55,23.67Z" transform="translate(0 0.73)"/><path class="cls-18" d="M193.52,19l.31-.05h.33a1.72,1.72,0,0,1,.32,0,2.84,2.84,0,0,1,.31.06.35.35,0,0,1,.07.15c0,.07,0,.15,0,.22a2,2,0,0,1,0,.24c0,.07,0,.14,0,.19a2.84,2.84,0,0,1,.59-.61,1.42,1.42,0,0,1,.88-.27h.26l.21,0,0,.25c0,.1,0,.2,0,.3s0,.26,0,.41a2.65,2.65,0,0,1-.06.42,1.12,1.12,0,0,0-.27,0h-.18a3.66,3.66,0,0,0-.42,0,1,1,0,0,0-.44.21,1.25,1.25,0,0,0-.34.49,2.52,2.52,0,0,0-.14.93v2.7l-.4.05h-.76l-.4-.05Z" transform="translate(0 0.73)"/><path class="cls-18" d="M200.36,16.81h4.49a3.79,3.79,0,0,1,.06.67,4,4,0,0,1-.06.7H202v1.71h2.28a3.44,3.44,0,0,1,0,1.38H202v2.09h3A3.71,3.71,0,0,1,205,24a3.85,3.85,0,0,1-.06.69h-4.57Z" transform="translate(0 0.73)"/><path class="cls-18" d="M206.89,21.78,205.81,19a4.92,4.92,0,0,1,.8-.06,5.93,5.93,0,0,1,.84.06l.87,2.79-1.13,2.9a5.14,5.14,0,0,1-.78.07,5.78,5.78,0,0,1-.81-.07Zm1.51,0,.88-2.79a5.77,5.77,0,0,1,.85-.06,5.29,5.29,0,0,1,.8.06l-1.1,2.75,1.31,2.94a6,6,0,0,1-.81.07,5.39,5.39,0,0,1-.79-.07Z" transform="translate(0 0.73)"/><path class="cls-18" d="M213.15,22.36a1.21,1.21,0,0,0,.46.95,1.87,1.87,0,0,0,1.11.3,4.06,4.06,0,0,0,.76-.07,5.33,5.33,0,0,0,.74-.2,2.55,2.55,0,0,1,.21.52,2.84,2.84,0,0,1,.1.66,5.37,5.37,0,0,1-1.94.33,3.64,3.64,0,0,1-1.35-.22,2.36,2.36,0,0,1-.93-.61,2.51,2.51,0,0,1-.53-.93,4,4,0,0,1-.17-1.17,3.79,3.79,0,0,1,.18-1.18,2.78,2.78,0,0,1,.52-1,2.52,2.52,0,0,1,.86-.64,2.78,2.78,0,0,1,1.19-.24,2.54,2.54,0,0,1,1.06.21,2.39,2.39,0,0,1,.79.57,2.45,2.45,0,0,1,.48.87,3.12,3.12,0,0,1,.17,1.07c0,.14,0,.28,0,.41s0,.25,0,.33Zm2.24-1.09a1.46,1.46,0,0,0-.3-.86.94.94,0,0,0-.75-.32,1.05,1.05,0,0,0-.83.31,1.39,1.39,0,0,0-.35.87Z" transform="translate(0 0.73)"/><path class="cls-18" d="M218.09,19l.32-.05h.32a1.67,1.67,0,0,1,.32,0,3,3,0,0,1,.32.06.57.57,0,0,1,.06.15c0,.07,0,.15,0,.22s0,.16,0,.24a1.54,1.54,0,0,1,0,.19,2.89,2.89,0,0,1,.6-.61A1.4,1.4,0,0,1,221,19h.25l.21,0a1.9,1.9,0,0,1,0,.25c0,.1,0,.2,0,.3s0,.26,0,.41a2.65,2.65,0,0,1-.06.42,1.12,1.12,0,0,0-.27,0H221a3.29,3.29,0,0,0-.42,0,1,1,0,0,0-.44.21,1.17,1.17,0,0,0-.35.49,2.52,2.52,0,0,0-.14.93v2.7l-.39.05h-.77l-.4-.05Z" transform="translate(0 0.73)"/><path class="cls-18" d="M226.17,23.38a3,3,0,0,1,.22.51,2.78,2.78,0,0,1,.08.69,3,3,0,0,1-.82.22,5.29,5.29,0,0,1-.8.05,3.17,3.17,0,0,1-1.25-.22,2.42,2.42,0,0,1-.87-.62,2.62,2.62,0,0,1-.52-.94,3.8,3.8,0,0,1-.18-1.19,3.92,3.92,0,0,1,.17-1.16,2.66,2.66,0,0,1,.52-.95,2.52,2.52,0,0,1,.86-.64,3,3,0,0,1,1.2-.23h.45a2.6,2.6,0,0,1,.39.05l.37.09a4.11,4.11,0,0,1,.42.14,2.32,2.32,0,0,1-.07.56,2.14,2.14,0,0,1-.21.6,3.4,3.4,0,0,0-1.14-.18,1.23,1.23,0,0,0-1,.44,2,2,0,0,0-.35,1.27,1.87,1.87,0,0,0,.38,1.3,1.3,1.3,0,0,0,1,.41h.3l.27,0a1.31,1.31,0,0,0,.27-.06Z" transform="translate(0 0.73)"/><path class="cls-18" d="M227.88,20.22h-.73a1.34,1.34,0,0,1-.05-.3,1.62,1.62,0,0,1,0-.3,2.32,2.32,0,0,1,.07-.59h2.26v5.69a5.12,5.12,0,0,1-.77.07,5.24,5.24,0,0,1-.76-.07Zm.66-3.41a7.52,7.52,0,0,1,1-.06H230l.42,0-1.66,1.36-.34,0-.41,0a4.37,4.37,0,0,1-.72-.06Z" transform="translate(0 0.73)"/><path class="cls-18" d="M234.77,23.38a2.26,2.26,0,0,1,.31,1.2,3.21,3.21,0,0,1-.83.22,5.21,5.21,0,0,1-.8.05,3.21,3.21,0,0,1-1.25-.22,2.42,2.42,0,0,1-.87-.62,2.78,2.78,0,0,1-.52-.94,3.8,3.8,0,0,1-.18-1.19,3.92,3.92,0,0,1,.17-1.16,2.82,2.82,0,0,1,.52-.95,2.52,2.52,0,0,1,.86-.64,3,3,0,0,1,1.2-.23h.45a2.6,2.6,0,0,1,.39.05,2.49,2.49,0,0,1,.37.09,3,3,0,0,1,.42.14,2.32,2.32,0,0,1-.07.56,2.14,2.14,0,0,1-.21.6,3.12,3.12,0,0,0-.57-.14,3.32,3.32,0,0,0-.57,0,1.25,1.25,0,0,0-1,.44,2,2,0,0,0-.34,1.27,1.87,1.87,0,0,0,.37,1.3,1.32,1.32,0,0,0,1,.41h.3a1.12,1.12,0,0,0,.27,0,1.31,1.31,0,0,0,.27-.06Z" transform="translate(0 0.73)"/><path class="cls-18" d="M236.48,20.22h-.73a2.34,2.34,0,0,1-.05-.3c0-.11,0-.21,0-.3a2.32,2.32,0,0,1,.07-.59H238v5.69a5.12,5.12,0,0,1-.77.07,5.24,5.24,0,0,1-.76-.07Zm-.23-2.14a4.71,4.71,0,0,1-.06-.74,4.91,4.91,0,0,1,.06-.74l.4-.05h.8l.41.05a2.46,2.46,0,0,1,0,.37c0,.12,0,.24,0,.37s0,.24,0,.36a2.45,2.45,0,0,1,0,.38l-.4,0h-.8Z" transform="translate(0 0.73)"/><path class="cls-18" d="M242,24.85a3,3,0,0,1-1.2-.22,2.25,2.25,0,0,1-.85-.63,2.94,2.94,0,0,1-.51-.94,4,4,0,0,1-.17-1.17,4,4,0,0,1,.17-1.17,2.79,2.79,0,0,1,.51-.95,2.39,2.39,0,0,1,.85-.64,3,3,0,0,1,1.2-.23,3,3,0,0,1,1.21.23,2.42,2.42,0,0,1,.86.64,2.48,2.48,0,0,1,.51.95,4,4,0,0,1,.16,1.17,4,4,0,0,1-.16,1.17A2.6,2.6,0,0,1,244,24a2.29,2.29,0,0,1-.86.63A3,3,0,0,1,242,24.85Zm0-1.18a1,1,0,0,0,.89-.46,2.63,2.63,0,0,0,.27-1.32,2.59,2.59,0,0,0-.27-1.31,1,1,0,0,0-.89-.46.94.94,0,0,0-.87.46,2.59,2.59,0,0,0-.27,1.31,2.63,2.63,0,0,0,.27,1.32A.94.94,0,0,0,242,23.67Z" transform="translate(0 0.73)"/><path class="cls-18" d="M123.19,36.42a4.88,4.88,0,0,1,.23.64,4.69,4.69,0,0,1,.14.65,5.54,5.54,0,0,1-1,.28,7.47,7.47,0,0,1-1,.06,4.14,4.14,0,0,1-1.64-.3,3.09,3.09,0,0,1-1.18-.85,3.71,3.71,0,0,1-.73-1.29,5.31,5.31,0,0,1-.24-1.63,5.06,5.06,0,0,1,.26-1.63,3.6,3.6,0,0,1,.73-1.3,3.24,3.24,0,0,1,1.17-.86,3.86,3.86,0,0,1,1.59-.31,5.94,5.94,0,0,1,1,.07,4,4,0,0,1,1,.27,2.28,2.28,0,0,1-.13.64l-.24.64a5.27,5.27,0,0,0-.69-.19,3.58,3.58,0,0,0-.7,0,2,2,0,0,0-1.62.68,3.14,3.14,0,0,0-.57,2c0,1.79.76,2.69,2.28,2.69a3.69,3.69,0,0,0,.71-.06A3.91,3.91,0,0,0,123.19,36.42Z" transform="translate(0 0.73)"/><path class="cls-18" d="M124.44,32.23a5.1,5.1,0,0,1,1.56,0v3a3.64,3.64,0,0,0,.07.74,1.1,1.1,0,0,0,.22.46.75.75,0,0,0,.37.24,1.62,1.62,0,0,0,.52.08,2.59,2.59,0,0,0,.68-.08V32.23a5,5,0,0,1,1.55,0V37.7a7.59,7.59,0,0,1-.93.24,6.61,6.61,0,0,1-1.2.11A6.21,6.21,0,0,1,126.2,38a2,2,0,0,1-.91-.37,1.92,1.92,0,0,1-.62-.83,4,4,0,0,1-.23-1.47Z" transform="translate(0 0.73)"/><path class="cls-18" d="M130.83,32.23l.31,0h.67l.3,0a.91.91,0,0,1,.06.16c0,.07,0,.15.05.22a1.57,1.57,0,0,0,0,.23,1.37,1.37,0,0,1,0,.19,2.19,2.19,0,0,1,.23-.33,1.72,1.72,0,0,1,.35-.3,2,2,0,0,1,.44-.22,1.94,1.94,0,0,1,.56-.08,1.61,1.61,0,0,1,1.7,1,2.3,2.3,0,0,1,.62-.71,1.67,1.67,0,0,1,1-.3,1.74,1.74,0,0,1,1.42.54,2.48,2.48,0,0,1,.46,1.66v3.62a4.38,4.38,0,0,1-1.56,0V34.71a2.17,2.17,0,0,0-.15-.91.59.59,0,0,0-.6-.32,1.57,1.57,0,0,0-.37.05.84.84,0,0,0-.33.21,1,1,0,0,0-.24.41,2.29,2.29,0,0,0-.09.7v3.07a4.44,4.44,0,0,1-1.57,0V34.71a2.19,2.19,0,0,0-.14-.91.59.59,0,0,0-.6-.32,1.65,1.65,0,0,0-.38.05.77.77,0,0,0-.33.22,1.08,1.08,0,0,0-.24.44,2.56,2.56,0,0,0-.09.75v3a5.14,5.14,0,0,1-.78.07,5.38,5.38,0,0,1-.78-.07Z" transform="translate(0 0.73)"/><path class="cls-18" d="M140.4,32.23a5.22,5.22,0,0,1,.78-.06,5.12,5.12,0,0,1,.78.06v3A3.64,3.64,0,0,0,142,36a1.1,1.1,0,0,0,.22.46.75.75,0,0,0,.37.24,1.62,1.62,0,0,0,.52.08,2.59,2.59,0,0,0,.68-.08V32.23a5.19,5.19,0,0,1,.77-.06,5.12,5.12,0,0,1,.78.06V37.7a7.59,7.59,0,0,1-.93.24,6.61,6.61,0,0,1-1.2.11,6.3,6.3,0,0,1-1.08-.09,2,2,0,0,1-.91-.37,2,2,0,0,1-.62-.83,4,4,0,0,1-.23-1.47Z" transform="translate(0 0.73)"/><path class="cls-18" d="M146.75,29.88a5.14,5.14,0,0,1,.78-.07,5.24,5.24,0,0,1,.77.07v5.78a2.81,2.81,0,0,0,0,.55.71.71,0,0,0,.12.32.37.37,0,0,0,.21.16,1.06,1.06,0,0,0,.33,0h.19l.21,0a3.39,3.39,0,0,1,.12.88v.16a1,1,0,0,1,0,.16,2.27,2.27,0,0,1-.43.07l-.45,0a1.94,1.94,0,0,1-1.36-.47,2,2,0,0,1-.51-1.52Z" transform="translate(0 0.73)"/><path class="cls-18" d="M153.19,34.18a1.06,1.06,0,0,0-.08-.43.69.69,0,0,0-.25-.26,1,1,0,0,0-.38-.12,2.53,2.53,0,0,0-.5,0,4,4,0,0,0-1.26.23,3.27,3.27,0,0,1-.23-.53,2.15,2.15,0,0,1-.08-.61,5.72,5.72,0,0,1,1-.24,5.88,5.88,0,0,1,.9-.08,2.72,2.72,0,0,1,1.79.55,2.2,2.2,0,0,1,.64,1.76v3.3a9,9,0,0,1-.93.23,5.93,5.93,0,0,1-1.25.11,4.64,4.64,0,0,1-1-.1,2,2,0,0,1-.81-.33,1.53,1.53,0,0,1-.51-.59,1.86,1.86,0,0,1-.19-.89,1.66,1.66,0,0,1,.23-.89,1.76,1.76,0,0,1,.58-.57,3,3,0,0,1,.8-.31,4.38,4.38,0,0,1,.88-.09l.7,0Zm0,1.13-.28,0a1.42,1.42,0,0,0-.28,0,1.6,1.6,0,0,0-.85.19.68.68,0,0,0-.31.62.7.7,0,0,0,.12.44.71.71,0,0,0,.29.23,1.06,1.06,0,0,0,.36.09h.34l.33,0,.28,0Z" transform="translate(0 0.73)"/><path class="cls-18" d="M156.25,33.42h-.71l-.06-.22,2.06-2.63h.25v1.66h1.33c0,.11,0,.21,0,.3s0,.18,0,.28,0,.2,0,.29,0,.2,0,.32h-1.33v2.24a2.09,2.09,0,0,0,.06.55.85.85,0,0,0,.16.33.51.51,0,0,0,.25.16,1.4,1.4,0,0,0,.37,0l.32,0,.28,0a2.09,2.09,0,0,1,.11.43,3.37,3.37,0,0,1,0,.4c0,.08,0,.15,0,.21a1,1,0,0,1,0,.16,4.42,4.42,0,0,1-1,.12,2.24,2.24,0,0,1-1.53-.47,1.94,1.94,0,0,1-.53-1.52Z" transform="translate(0 0.73)"/><path class="cls-18" d="M160.62,33.42h-.74a2.34,2.34,0,0,1,0-.3c0-.11,0-.21,0-.3a2.88,2.88,0,0,1,.06-.59h2.27v5.69a5.24,5.24,0,0,1-.77.07,5.11,5.11,0,0,1-.76-.07Zm-.23-2.14a3.78,3.78,0,0,1-.07-.74,3.93,3.93,0,0,1,.07-.74l.4-.05h.8l.4.05a2.52,2.52,0,0,1,0,.37c0,.12,0,.25,0,.37s0,.24,0,.36a2.47,2.47,0,0,1,0,.38l-.4,0h-.8Z" transform="translate(0 0.73)"/><path class="cls-18" d="M163,32.25a3.2,3.2,0,0,1,.49-.07h.83l.41,0,1.24,4.24,1.22-4.24.4,0h.8a3.59,3.59,0,0,1,.49.07l-2.16,5.67a3.13,3.13,0,0,1-.44,0l-.38,0-.38,0a1.6,1.6,0,0,1-.39-.05Z" transform="translate(0 0.73)"/><path class="cls-18" d="M171.86,38.05a3,3,0,0,1-1.2-.22,2.18,2.18,0,0,1-.85-.63,2.76,2.76,0,0,1-.51-.94,4,4,0,0,1-.17-1.17,4,4,0,0,1,.17-1.17,2.63,2.63,0,0,1,.51-1,2.3,2.3,0,0,1,.85-.64,3,3,0,0,1,1.2-.23,3,3,0,0,1,1.21.23,2.52,2.52,0,0,1,.86.64,2.61,2.61,0,0,1,.5,1,4,4,0,0,1,.17,1.17,4,4,0,0,1-.17,1.17,2.74,2.74,0,0,1-.5.94,2.37,2.37,0,0,1-.86.63A3,3,0,0,1,171.86,38.05Zm0-1.18a1,1,0,0,0,.89-.46,2.63,2.63,0,0,0,.27-1.32,2.59,2.59,0,0,0-.27-1.31,1,1,0,0,0-.89-.46.93.93,0,0,0-.87.46,2.59,2.59,0,0,0-.27,1.31,2.63,2.63,0,0,0,.27,1.32A.93.93,0,0,0,171.86,36.87Z" transform="translate(0 0.73)"/><path class="cls-18" d="M181.66,29.88a2.58,2.58,0,0,1,.39,0h.77a2.58,2.58,0,0,1,.39,0v7.85a6.15,6.15,0,0,1-1.05.24,8,8,0,0,1-1.29.08,3.79,3.79,0,0,1-1.12-.16,2.51,2.51,0,0,1-.94-.5,2.41,2.41,0,0,1-.64-.9,3.34,3.34,0,0,1-.24-1.34,3.29,3.29,0,0,1,.21-1.18,2.88,2.88,0,0,1,.58-1,2.76,2.76,0,0,1,.92-.64,2.92,2.92,0,0,1,1.2-.24l.41,0a1.85,1.85,0,0,1,.41.07Zm0,3.53a2.23,2.23,0,0,0-.36-.07l-.34,0a1.25,1.25,0,0,0-1.08.55,1.71,1.71,0,0,0-.26.58,3.19,3.19,0,0,0-.08.7,2.14,2.14,0,0,0,.11.76,1.17,1.17,0,0,0,.3.5,1,1,0,0,0,.46.27,1.7,1.7,0,0,0,.57.09l.34,0a2.58,2.58,0,0,0,.34-.07Z" transform="translate(0 0.73)"/><path class="cls-18" d="M186,35.56a1.21,1.21,0,0,0,.46.95,1.86,1.86,0,0,0,1.1.3,4.08,4.08,0,0,0,.77-.07,5.33,5.33,0,0,0,.74-.2,2.55,2.55,0,0,1,.21.52,2.84,2.84,0,0,1,.1.66,5.37,5.37,0,0,1-1.94.33,3.69,3.69,0,0,1-1.36-.22,2.39,2.39,0,0,1-.92-.61,2.51,2.51,0,0,1-.53-.93,4,4,0,0,1-.17-1.17,3.79,3.79,0,0,1,.18-1.18,2.62,2.62,0,0,1,.52-1,2.52,2.52,0,0,1,.86-.64,2.78,2.78,0,0,1,1.19-.24,2.54,2.54,0,0,1,1.06.21,2.25,2.25,0,0,1,.78.57,2.4,2.4,0,0,1,.49.87,3.38,3.38,0,0,1,.17,1.07c0,.14,0,.28,0,.41a2.11,2.11,0,0,1,0,.33Zm2.23-1.09a1.39,1.39,0,0,0-.29-.86.94.94,0,0,0-.75-.32,1.07,1.07,0,0,0-.84.31,1.44,1.44,0,0,0-.34.87Z" transform="translate(0 0.73)"/><path class="cls-18" d="M194.75,31.38h-1.31c0-.11,0-.22-.05-.34s0-.24,0-.36a3.63,3.63,0,0,1,.06-.67h2.92v5.81a2.46,2.46,0,0,1-.2,1,1.8,1.8,0,0,1-.52.69,2.14,2.14,0,0,1-.8.39,3.84,3.84,0,0,1-1,.12l-.47,0a4.15,4.15,0,0,1-.53-.1.77.77,0,0,1,0-.15V37.6a3,3,0,0,1,.18-1l.27,0a.92.92,0,0,0,.29,0l.4,0a.88.88,0,0,0,.38-.14.91.91,0,0,0,.29-.32,1.41,1.41,0,0,0,.11-.61Z" transform="translate(0 0.73)"/><path class="cls-18" d="M197.74,32.23a5.32,5.32,0,0,1,.78-.06,5.12,5.12,0,0,1,.78.06v3a3,3,0,0,0,.08.74,1,1,0,0,0,.22.46.68.68,0,0,0,.36.24,1.62,1.62,0,0,0,.52.08,2.59,2.59,0,0,0,.68-.08V32.23a5.19,5.19,0,0,1,.77-.06,5.12,5.12,0,0,1,.78.06V37.7a7.59,7.59,0,0,1-.93.24,6.61,6.61,0,0,1-1.2.11A6.38,6.38,0,0,1,199.5,38a2,2,0,0,1-.9-.37,1.93,1.93,0,0,1-.63-.83,4,4,0,0,1-.23-1.47Z" transform="translate(0 0.73)"/><path class="cls-18" d="M204.13,32.23l.32,0h.32a1.83,1.83,0,0,1,.33,0c.1,0,.21,0,.31.06a.77.77,0,0,1,.06.15c0,.07,0,.15.05.22s0,.16,0,.24,0,.14,0,.19a2.62,2.62,0,0,1,.59-.61,1.4,1.4,0,0,1,.88-.27h.25l.21,0a1,1,0,0,1,0,.25c0,.1,0,.2,0,.3s0,.26,0,.41a2.65,2.65,0,0,1-.06.42,1.12,1.12,0,0,0-.27,0H207a3.29,3.29,0,0,0-.42,0,1,1,0,0,0-.44.21,1.17,1.17,0,0,0-.35.49,2.55,2.55,0,0,0-.13.93v2.7l-.4,0h-.77l-.4,0Z" transform="translate(0 0.73)"/><path class="cls-18" d="M208.86,33.42h-.73a1.34,1.34,0,0,1,0-.3c0-.11,0-.21,0-.3a2.32,2.32,0,0,1,.07-.59h2.26v5.69a5.12,5.12,0,0,1-.77.07,5.24,5.24,0,0,1-.76-.07Zm-.23-2.14a4.71,4.71,0,0,1-.06-.74,4.91,4.91,0,0,1,.06-.74l.4-.05h.8l.41.05a2.46,2.46,0,0,1,0,.37c0,.12,0,.25,0,.37s0,.24,0,.36a2.45,2.45,0,0,1,0,.38l-.4,0H209Z" transform="translate(0 0.73)"/><path class="cls-18" d="M213,35.45a2.21,2.21,0,0,1-1-.53,1.4,1.4,0,0,1-.35-1,1.56,1.56,0,0,1,.6-1.3A2.56,2.56,0,0,1,214,32.1a4.69,4.69,0,0,1,.84.08,5.67,5.67,0,0,1,.85.23,2.54,2.54,0,0,1-.11.59,2.77,2.77,0,0,1-.21.54,5.65,5.65,0,0,0-.58-.19,2.93,2.93,0,0,0-.67-.08,1.35,1.35,0,0,0-.59.11.4.4,0,0,0-.2.37.37.37,0,0,0,.14.34,1.6,1.6,0,0,0,.43.19l.62.19a3.64,3.64,0,0,1,.56.21,1.51,1.51,0,0,1,.42.32,1.23,1.23,0,0,1,.28.46,2.1,2.1,0,0,1,.1.67,1.8,1.8,0,0,1-.17.76,1.82,1.82,0,0,1-.5.61,2.3,2.3,0,0,1-.78.4,3.41,3.41,0,0,1-1,.15h-.48a3,3,0,0,1-.43-.06l-.4-.09-.43-.14a3.16,3.16,0,0,1,.11-.6,3,3,0,0,1,.21-.59,5.35,5.35,0,0,0,.69.21,3,3,0,0,0,.68.07l.33,0a1.91,1.91,0,0,0,.34-.1.83.83,0,0,0,.26-.19.49.49,0,0,0,.1-.3.42.42,0,0,0-.16-.38,1.58,1.58,0,0,0-.45-.21Z" transform="translate(0 0.73)"/><path class="cls-18" d="M220.4,29.88a2.58,2.58,0,0,1,.39,0h.77a2.58,2.58,0,0,1,.39,0v7.85a6.15,6.15,0,0,1-1,.24,7.93,7.93,0,0,1-1.29.08,3.79,3.79,0,0,1-1.12-.16,2.51,2.51,0,0,1-.94-.5,2.41,2.41,0,0,1-.64-.9,3.34,3.34,0,0,1-.24-1.34,3.29,3.29,0,0,1,.21-1.18,2.88,2.88,0,0,1,.58-1,2.76,2.76,0,0,1,.92-.64,2.92,2.92,0,0,1,1.2-.24l.41,0a1.85,1.85,0,0,1,.41.07Zm0,3.53a2,2,0,0,0-.36-.07l-.34,0a1.28,1.28,0,0,0-.63.15,1.33,1.33,0,0,0-.45.4,1.71,1.71,0,0,0-.26.58,3.19,3.19,0,0,0-.08.7,2.39,2.39,0,0,0,.11.76,1.17,1.17,0,0,0,.3.5,1,1,0,0,0,.46.27,1.75,1.75,0,0,0,.57.09l.34,0a2.58,2.58,0,0,0,.34-.07Z" transform="translate(0 0.73)"/><path class="cls-18" d="M223.77,33.42H223a2.34,2.34,0,0,1-.05-.3c0-.11,0-.21,0-.3a2.88,2.88,0,0,1,.06-.59h2.27v5.69a5.24,5.24,0,0,1-.77.07,5.11,5.11,0,0,1-.76-.07Zm-.23-2.14a3.78,3.78,0,0,1-.07-.74,3.93,3.93,0,0,1,.07-.74l.4-.05h.8l.4.05a2.52,2.52,0,0,1,.05.37c0,.12,0,.25,0,.37s0,.24,0,.36a2.47,2.47,0,0,1-.05.38l-.4,0h-.8Z" transform="translate(0 0.73)"/><path class="cls-18" d="M228.61,38a2.82,2.82,0,0,1-.92-.37A2.51,2.51,0,0,1,227,37a2.68,2.68,0,0,1-.38-.86,3.9,3.9,0,0,1-.13-1,3.66,3.66,0,0,1,.17-1.16,2.66,2.66,0,0,1,.52-1,2.42,2.42,0,0,1,.86-.64,3,3,0,0,1,1.2-.23h.44a2.3,2.3,0,0,1,.39,0,2.62,2.62,0,0,1,.38.09l.42.14a3,3,0,0,1-.07.56,2.14,2.14,0,0,1-.21.6,3.21,3.21,0,0,0-.58-.14,3.13,3.13,0,0,0-.56,0,1.23,1.23,0,0,0-1,.44,2,2,0,0,0-.35,1.27,1.87,1.87,0,0,0,.38,1.3,1.3,1.3,0,0,0,1,.41h.3l.27,0,.27-.07.32-.11a2,2,0,0,1,.22.51,2.36,2.36,0,0,1,.09.69,4.12,4.12,0,0,1-.81.22,6.7,6.7,0,0,1-.79,0l-.18.45h.18a1.36,1.36,0,0,1,.9.27.85.85,0,0,1,.33.69.94.94,0,0,1-.48.85,2.33,2.33,0,0,1-1.23.28h-.38a2.4,2.4,0,0,1-.5-.09q0-.16.06-.39a1,1,0,0,1,.14-.38,3.34,3.34,0,0,0,.35.08,1.83,1.83,0,0,0,.33,0,1.19,1.19,0,0,0,.5-.08.28.28,0,0,0,0-.52,1.2,1.2,0,0,0-.46-.07l-.34,0a1.59,1.59,0,0,0-.33.08l-.08-.08Z" transform="translate(0 0.73)"/><path class="cls-18" d="M234.9,34.18a.91.91,0,0,0-.09-.43.75.75,0,0,0-.24-.26,1,1,0,0,0-.38-.12,2.6,2.6,0,0,0-.5,0,3.92,3.92,0,0,0-1.26.23,3.39,3.39,0,0,1-.24-.53,2.18,2.18,0,0,1-.07-.61,5.5,5.5,0,0,1,1-.24,5.88,5.88,0,0,1,.9-.08,2.72,2.72,0,0,1,1.79.55,2.24,2.24,0,0,1,.64,1.76v3.3a8.66,8.66,0,0,1-.94.23,5.83,5.83,0,0,1-1.24.11,4.74,4.74,0,0,1-1-.1,2,2,0,0,1-.8-.33,1.56,1.56,0,0,1-.52-.59,2,2,0,0,1-.18-.89,1.66,1.66,0,0,1,.23-.89,1.76,1.76,0,0,1,.58-.57,2.84,2.84,0,0,1,.8-.31,4.31,4.31,0,0,1,.88-.09l.7,0Zm-2.74-3.71a1.65,1.65,0,0,1,.49-.41,1.46,1.46,0,0,1,.71-.17,1.34,1.34,0,0,1,.4.06l.38.13.39.14a1.34,1.34,0,0,0,.4.06,1,1,0,0,0,.36-.06,1.07,1.07,0,0,0,.39-.29,2,2,0,0,1,.3.42,1.85,1.85,0,0,1,.17.46,1.41,1.41,0,0,1-.49.41,1.63,1.63,0,0,1-.72.16,1.39,1.39,0,0,1-.4-.06c-.14,0-.26-.09-.39-.14l-.39-.13a1.32,1.32,0,0,0-.39-.06,1,1,0,0,0-.36.06,1.62,1.62,0,0,0-.39.28c-.1-.13-.19-.27-.28-.41A1.25,1.25,0,0,1,232.16,30.47Zm2.74,4.84-.29,0a1.32,1.32,0,0,0-.27,0,1.6,1.6,0,0,0-.85.19.68.68,0,0,0-.32.62.7.7,0,0,0,.12.44.68.68,0,0,0,.3.23,1.06,1.06,0,0,0,.36.09h.33l.33,0,.29,0Z" transform="translate(0 0.73)"/><path class="cls-18" d="M240.21,38.05a3,3,0,0,1-1.2-.22,2.33,2.33,0,0,1-.85-.63,2.74,2.74,0,0,1-.5-.94,3.68,3.68,0,0,1-.18-1.17,3.72,3.72,0,0,1,.18-1.17,2.61,2.61,0,0,1,.5-1,2.48,2.48,0,0,1,.85-.64,3.27,3.27,0,0,1,2.41,0,2.42,2.42,0,0,1,.86.64,2.48,2.48,0,0,1,.51,1,4,4,0,0,1,.16,1.17,4,4,0,0,1-.16,1.17,2.6,2.6,0,0,1-.51.94,2.29,2.29,0,0,1-.86.63A3,3,0,0,1,240.21,38.05Zm0-1.18a1,1,0,0,0,.89-.46,2.63,2.63,0,0,0,.27-1.32,2.59,2.59,0,0,0-.27-1.31,1,1,0,0,0-.89-.46.94.94,0,0,0-.87.46,2.59,2.59,0,0,0-.27,1.31,2.63,2.63,0,0,0,.27,1.32A.94.94,0,0,0,240.21,36.87Z" transform="translate(0 0.73)"/><path class="cls-18" d="M119.5,44.58h-2a3.88,3.88,0,0,1-.06-.7,3.79,3.79,0,0,1,.06-.67h5.56a3.79,3.79,0,0,1,.06.67,3.88,3.88,0,0,1-.06.7h-2v6.54l-.4,0-.38,0h-.4l-.44-.05Z" transform="translate(0 0.73)"/><path class="cls-18" d="M124.28,43.21l.9-.09a9.06,9.06,0,0,1,.94,0,6.87,6.87,0,0,1,1.2.11,3.13,3.13,0,0,1,1.06.39,2.21,2.21,0,0,1,.76.76,2.24,2.24,0,0,1,.29,1.21,2.3,2.3,0,0,1-.11.78,2.15,2.15,0,0,1-.28.59,2,2,0,0,1-.37.43,3,3,0,0,1-.37.3l-.19.12L130,51.11l-.46,0a4.07,4.07,0,0,1-.5,0,5.55,5.55,0,0,1-.82-.07l-2.07-3.67.26-.14.38-.19a2.83,2.83,0,0,0,.42-.31,1.55,1.55,0,0,0,.35-.44,1.28,1.28,0,0,0,.14-.61,1.2,1.2,0,0,0-.4-1,1.53,1.53,0,0,0-1-.33,2.94,2.94,0,0,0-.44,0v6.68l-.4,0-.38,0h-.4l-.42-.05Z" transform="translate(0 0.73)"/><path class="cls-18" d="M132.24,44.58h-2a3.86,3.86,0,0,1-.07-.7,3.81,3.81,0,0,1,.07-.67h5.55a3.05,3.05,0,0,1,.07.67,3.14,3.14,0,0,1-.07.7h-2v6.54l-.4,0-.39,0h-.4l-.43-.05Z" transform="translate(0 0.73)"/><path class="cls-18" d="M142.77,43.08a2.58,2.58,0,0,1,.39,0h.76a2.85,2.85,0,0,1,.4,0v7.85a6.62,6.62,0,0,1-1,.24,8.14,8.14,0,0,1-1.3.08,3.68,3.68,0,0,1-1.11-.16,2.4,2.4,0,0,1-1.59-1.4,3.35,3.35,0,0,1-.23-1.34,3.29,3.29,0,0,1,.2-1.18,3.05,3.05,0,0,1,.58-1,2.87,2.87,0,0,1,.92-.64,2.92,2.92,0,0,1,1.2-.24l.41,0a2.83,2.83,0,0,1,.42.07Zm0,3.53a2.45,2.45,0,0,0-.36-.07l-.35,0a1.28,1.28,0,0,0-.63.15,1.33,1.33,0,0,0-.45.4,1.7,1.7,0,0,0-.25.58,2.69,2.69,0,0,0-.09.7,2.39,2.39,0,0,0,.11.76,1.29,1.29,0,0,0,.31.5,1,1,0,0,0,.45.27,1.79,1.79,0,0,0,.57.09l.34,0a1.67,1.67,0,0,0,.35-.07Z" transform="translate(0 0.73)"/><path class="cls-18" d="M148.66,47.38a.91.91,0,0,0-.09-.43.75.75,0,0,0-.24-.26,1,1,0,0,0-.38-.12,3.75,3.75,0,0,0-.5,0,4,4,0,0,0-1.26.23,3.39,3.39,0,0,1-.24-.53,2.18,2.18,0,0,1-.07-.61,5.5,5.5,0,0,1,1-.24,5.88,5.88,0,0,1,.9-.08,2.72,2.72,0,0,1,1.79.55,2.24,2.24,0,0,1,.64,1.76v3.3a8.66,8.66,0,0,1-.94.23,5.83,5.83,0,0,1-1.24.11,4.74,4.74,0,0,1-1-.1,2,2,0,0,1-.8-.33,1.56,1.56,0,0,1-.52-.59,2,2,0,0,1-.18-.89,1.66,1.66,0,0,1,.23-.89,1.76,1.76,0,0,1,.58-.57,2.84,2.84,0,0,1,.8-.31,4.31,4.31,0,0,1,.88-.09l.7,0Zm0,1.13-.29,0a1.32,1.32,0,0,0-.27,0,1.6,1.6,0,0,0-.85.19.68.68,0,0,0-.32.62.69.69,0,0,0,.42.67,1.06,1.06,0,0,0,.36.09h.34l.32,0,.29-.05Z" transform="translate(0 0.73)"/><path class="cls-18" d="M155.06,48l1.48-2.66h-2.42a3,3,0,0,1-.07-.66,3.08,3.08,0,0,1,.07-.68h4.59l.11.19-1.77,2.93h0a1.77,1.77,0,0,1,.77.17,1.83,1.83,0,0,1,.59.43,2.24,2.24,0,0,1,.36.62A2.28,2.28,0,0,1,159,49a3,3,0,0,1-.25,1.24,2.46,2.46,0,0,1-.67.89,2.8,2.8,0,0,1-1,.54,4.26,4.26,0,0,1-1.26.18l-.59,0a3.8,3.8,0,0,1-.5-.06l-.48-.11-.54-.17a3.35,3.35,0,0,1,.13-.69,3,3,0,0,1,.26-.6c.28.09.54.16.79.22a3.57,3.57,0,0,0,.85.09,2.34,2.34,0,0,0,.66-.09,1.63,1.63,0,0,0,.55-.25,1.28,1.28,0,0,0,.37-.43,1.41,1.41,0,0,0,.14-.64.93.93,0,0,0-.13-.48,1,1,0,0,0-.32-.34,1.48,1.48,0,0,0-.46-.19,2.44,2.44,0,0,0-.55-.06h-.38a1.78,1.78,0,0,0-.39.07Z" transform="translate(0 0.73)"/><path class="cls-18" d="M163,44.82a.5.5,0,0,0-.24-.5,1.68,1.68,0,0,0-.68-.11,4.23,4.23,0,0,0-.48,0,3.36,3.36,0,0,0-.5.13,1.55,1.55,0,0,1-.21-.43,1.75,1.75,0,0,1-.07-.49,5.49,5.49,0,0,1,.78-.18,4,4,0,0,1,.72-.07,2.1,2.1,0,0,1,1.41.43,1.68,1.68,0,0,1,.5,1.35v2.5a7.36,7.36,0,0,1-.74.18,4.43,4.43,0,0,1-1,.1,3.43,3.43,0,0,1-.82-.09,1.64,1.64,0,0,1-.63-.26,1.09,1.09,0,0,1-.4-.45,1.42,1.42,0,0,1-.14-.68,1.36,1.36,0,0,1,.17-.69,1.38,1.38,0,0,1,.46-.44,2.17,2.17,0,0,1,.63-.24,4.25,4.25,0,0,1,.69-.07h.26l.26,0Zm0,.86-.2,0h-.22a1.29,1.29,0,0,0-.64.14.49.49,0,0,0-.24.46.4.4,0,0,0,.1.3.6.6,0,0,0,.22.16.87.87,0,0,0,.28,0l.24,0,.26,0a.6.6,0,0,0,.2,0Z" transform="translate(0 0.73)"/><path class="cls-18" d="M168.58,43.21l.91-.09a8.93,8.93,0,0,1,.94,0,6.75,6.75,0,0,1,1.19.11,3.11,3.11,0,0,1,1.07.39,2.3,2.3,0,0,1,.76.76,2.33,2.33,0,0,1,.29,1.21,2.57,2.57,0,0,1-.11.78,2.48,2.48,0,0,1-.28.59,2.25,2.25,0,0,1-.37.43,3,3,0,0,1-.37.3l-.19.12,1.93,3.34-.47,0a3.91,3.91,0,0,1-.49,0,5.69,5.69,0,0,1-.83-.07l-2.06-3.67.26-.14.37-.19a2.45,2.45,0,0,0,.43-.31,1.52,1.52,0,0,0,.34-.44,1.17,1.17,0,0,0,.15-.61,1.23,1.23,0,0,0-.4-1,1.53,1.53,0,0,0-1-.33,2.94,2.94,0,0,0-.44,0v6.68l-.4,0-.38,0H169l-.43-.05Z" transform="translate(0 0.73)"/><path class="cls-18" d="M176.36,48.76a1.18,1.18,0,0,0,.46,1,1.86,1.86,0,0,0,1.1.3,4.16,4.16,0,0,0,.77-.07,6.21,6.21,0,0,0,.74-.2,2.55,2.55,0,0,1,.21.52,3.5,3.5,0,0,1,.1.66,5.41,5.41,0,0,1-1.94.33,3.69,3.69,0,0,1-1.36-.22,2.32,2.32,0,0,1-.92-.61,2.38,2.38,0,0,1-.53-.93,4,4,0,0,1-.17-1.17,4.1,4.1,0,0,1,.17-1.18,2.8,2.8,0,0,1,.53-1,2.48,2.48,0,0,1,.85-.64,2.82,2.82,0,0,1,1.2-.24,2.49,2.49,0,0,1,1.05.21A2.3,2.3,0,0,1,179.9,47a3.38,3.38,0,0,1,.17,1.07c0,.14,0,.28,0,.41a2.11,2.11,0,0,1,0,.33Zm2.23-1.09a1.39,1.39,0,0,0-.29-.86.94.94,0,0,0-.75-.32,1.07,1.07,0,0,0-.84.31,1.44,1.44,0,0,0-.34.87Z" transform="translate(0 0.73)"/><path class="cls-18" d="M184.49,50.17a2.28,2.28,0,0,1,1.47.45,1.52,1.52,0,0,1,.48,1.21,1.58,1.58,0,0,1-.25.84,2.13,2.13,0,0,1-.66.64,3.43,3.43,0,0,1-1,.41,5.32,5.32,0,0,1-1.23.14,5.17,5.17,0,0,1-1.12-.1,2.17,2.17,0,0,1-.75-.3A1,1,0,0,1,181,53a1.32,1.32,0,0,1-.13-.6,1.35,1.35,0,0,1,.24-.82,2.16,2.16,0,0,1,.63-.56,1.22,1.22,0,0,1-.4-.38,1,1,0,0,1-.15-.57,1.22,1.22,0,0,1,.18-.69,2,2,0,0,1,.51-.5,2.09,2.09,0,0,1-.59-.67,1.87,1.87,0,0,1-.21-.88,1.91,1.91,0,0,1,.16-.8,1.77,1.77,0,0,1,.48-.64,2.28,2.28,0,0,1,.77-.42,2.93,2.93,0,0,1,1-.16,3,3,0,0,1,1,.17,2.47,2.47,0,0,1,.77.44,1.3,1.3,0,0,1,.52-.41,1.91,1.91,0,0,1,.83-.14,2.7,2.7,0,0,1,0,.28,2.64,2.64,0,0,1,0,.29c0,.12,0,.23,0,.35a2.52,2.52,0,0,1,0,.37h-.89a1.28,1.28,0,0,1,.1.26,1.47,1.47,0,0,1,0,.41,2.06,2.06,0,0,1-.16.79,1.87,1.87,0,0,1-.47.64,2.46,2.46,0,0,1-.75.41,2.93,2.93,0,0,1-1,.16,3.15,3.15,0,0,1-.85-.1.55.55,0,0,0-.23.26.82.82,0,0,0,0,.26.39.39,0,0,0,.11.28.68.68,0,0,0,.47.12Zm-1.41,1.15a1,1,0,0,0-.4,0,.6.6,0,0,0-.25.18.49.49,0,0,0-.14.23,1,1,0,0,0,0,.24.57.57,0,0,0,.32.57,2,2,0,0,0,.84.15,2.43,2.43,0,0,0,1.12-.22.67.67,0,0,0,.42-.6.76.76,0,0,0,0-.21.54.54,0,0,0-.1-.18.58.58,0,0,0-.22-.13.92.92,0,0,0-.37-.06Zm.45-3a.79.79,0,0,0,.67-.27,1.18,1.18,0,0,0,.2-.72,1.25,1.25,0,0,0-.2-.74.82.82,0,0,0-.67-.26.84.84,0,0,0-.68.26,1.18,1.18,0,0,0-.21.74,1.12,1.12,0,0,0,.21.72A.81.81,0,0,0,183.53,48.32Z" transform="translate(0 0.73)"/><path class="cls-18" d="M187.83,46.62h-.74a2.43,2.43,0,0,1,0-.3,1.62,1.62,0,0,1,0-.3,3,3,0,0,1,.06-.59h2.27v5.69a4.08,4.08,0,0,1-.77.07,4.13,4.13,0,0,1-.76-.07Zm-.23-2.14a4.74,4.74,0,0,1-.07-.74,5,5,0,0,1,.07-.74l.4,0h.8l.41,0c0,.13,0,.25,0,.37s0,.25,0,.37,0,.24,0,.36,0,.25,0,.38l-.4,0H188Z" transform="translate(0 0.73)"/><path class="cls-18" d="M193.74,47.38a.91.91,0,0,0-.09-.43.75.75,0,0,0-.24-.26,1,1,0,0,0-.38-.12,3.75,3.75,0,0,0-.5,0,4,4,0,0,0-1.27.23,3.27,3.27,0,0,1-.23-.53,2.18,2.18,0,0,1-.07-.61,5.62,5.62,0,0,1,1-.24,6.12,6.12,0,0,1,.91-.08,2.69,2.69,0,0,1,1.78.55,2.21,2.21,0,0,1,.65,1.76v3.3a8.66,8.66,0,0,1-.94.23,5.9,5.9,0,0,1-1.24.11,4.67,4.67,0,0,1-1-.1,2,2,0,0,1-.8-.33,1.48,1.48,0,0,1-.52-.59,2,2,0,0,1-.18-.89,1.66,1.66,0,0,1,.22-.89,1.79,1.79,0,0,1,.59-.57,2.89,2.89,0,0,1,.79-.31,4.46,4.46,0,0,1,.88-.09l.71,0ZM191,43.67a1.67,1.67,0,0,1,.49-.41,1.46,1.46,0,0,1,.71-.17,1.34,1.34,0,0,1,.4.06l.38.13.38.14a1.45,1.45,0,0,0,.41.06,1,1,0,0,0,.35-.06,1.09,1.09,0,0,0,.4-.29,2,2,0,0,1,.3.42A1.85,1.85,0,0,1,195,44a1.41,1.41,0,0,1-.49.41,1.66,1.66,0,0,1-.72.16,1.34,1.34,0,0,1-.4-.06l-.4-.14-.38-.13a1.32,1.32,0,0,0-.39-.06,1,1,0,0,0-.36.06,1.45,1.45,0,0,0-.39.28,3.71,3.71,0,0,1-.28-.41A1.25,1.25,0,0,1,191,43.67Zm2.74,4.84-.29,0a1.32,1.32,0,0,0-.27,0,1.64,1.64,0,0,0-.86.19.81.81,0,0,0-.19,1.06.71.71,0,0,0,.29.23,1.18,1.18,0,0,0,.37.09h.33l.33,0,.29-.05Z" transform="translate(0 0.73)"/><path class="cls-18" d="M199.05,51.25a3,3,0,0,1-1.2-.22,2.25,2.25,0,0,1-.85-.63,2.94,2.94,0,0,1-.51-.94,4,4,0,0,1-.17-1.17,4,4,0,0,1,.17-1.17,2.79,2.79,0,0,1,.51-.95,2.39,2.39,0,0,1,.85-.64,3,3,0,0,1,1.2-.23,3,3,0,0,1,1.21.23,2.42,2.42,0,0,1,.86.64,2.48,2.48,0,0,1,.51.95,4.41,4.41,0,0,1,.16,1.17,4.35,4.35,0,0,1-.16,1.17,2.6,2.6,0,0,1-.51.94,2.29,2.29,0,0,1-.86.63A3,3,0,0,1,199.05,51.25Zm0-1.18a1,1,0,0,0,.89-.46,2.63,2.63,0,0,0,.27-1.32,2.59,2.59,0,0,0-.27-1.31,1,1,0,0,0-.89-.46.94.94,0,0,0-.87.46,2.59,2.59,0,0,0-.27,1.31,2.63,2.63,0,0,0,.27,1.32A.94.94,0,0,0,199.05,50.07Z" transform="translate(0 0.73)"/><path class="cls-18" d="M206.5,53A8,8,0,0,1,206,52a7.71,7.71,0,0,1-.4-1.15,10.66,10.66,0,0,1-.28-1.41,12.78,12.78,0,0,1-.11-1.7,12.56,12.56,0,0,1,.11-1.7,10.5,10.5,0,0,1,.28-1.42,7.71,7.71,0,0,1,.4-1.15,8.47,8.47,0,0,1,.49-.91.91.91,0,0,1,.3-.05,3,3,0,0,1,.43,0,3.39,3.39,0,0,1,.45,0,1.84,1.84,0,0,1,.37.05,6.94,6.94,0,0,0-.34.65,7.49,7.49,0,0,0-.41,1.08,13.64,13.64,0,0,0-.35,1.51,13.51,13.51,0,0,0,0,3.88,13.12,13.12,0,0,0,.35,1.51,7.49,7.49,0,0,0,.41,1.08c.14.29.25.51.34.66l-.37,0h-.88A1.3,1.3,0,0,1,206.5,53Z" transform="translate(0 0.73)"/><path class="cls-18" d="M209.59,43.21a6.18,6.18,0,0,1,.85-.06,5.93,5.93,0,0,1,.84.06l1.82,4.53L215,43.21a4.34,4.34,0,0,1,.76-.06,5.19,5.19,0,0,1,.8.06l.37,7.91a4.37,4.37,0,0,1-.79.07,3.71,3.71,0,0,1-.74-.07l-.19-5.37-1.61,3.72-.32,0-.33,0-.28,0a1.54,1.54,0,0,1-.3,0l-1.5-3.79-.15,5.44a3.27,3.27,0,0,1-.68.07,3.68,3.68,0,0,1-.73-.07Z" transform="translate(0 0.73)"/><path class="cls-18" d="M222.7,47a4.37,4.37,0,0,1,.79-.07,4.59,4.59,0,0,1,.81.07V50.9a5.38,5.38,0,0,1-1.2.28,9,9,0,0,1-1.08.07,4.45,4.45,0,0,1-1.7-.3,3.28,3.28,0,0,1-1.21-.85,3.54,3.54,0,0,1-.72-1.29,5.31,5.31,0,0,1-.24-1.63,5.06,5.06,0,0,1,.25-1.63,3.75,3.75,0,0,1,.73-1.3,3.19,3.19,0,0,1,1.18-.86,3.79,3.79,0,0,1,1.59-.31,6,6,0,0,1,1,.07,3.6,3.6,0,0,1,1,.27,2,2,0,0,1-.13.64c-.07.21-.15.42-.24.64a5.17,5.17,0,0,0-.68-.19,3.69,3.69,0,0,0-.71,0,2,2,0,0,0-1.62.68,3.14,3.14,0,0,0-.57,2,3,3,0,0,0,.57,2,2,2,0,0,0,1.65.67,1.69,1.69,0,0,0,.33,0l.27,0Z" transform="translate(0 0.73)"/><path class="cls-18" d="M225.48,53a6.31,6.31,0,0,0,.34-.66,7.49,7.49,0,0,0,.41-1.08,13.12,13.12,0,0,0,.35-1.51,12.62,12.62,0,0,0,0-3.88,13.64,13.64,0,0,0-.35-1.51,7.49,7.49,0,0,0-.41-1.08,5.14,5.14,0,0,0-.34-.65,2,2,0,0,1,.38-.05,3.17,3.17,0,0,1,.44,0,3,3,0,0,1,.43,0,.91.91,0,0,1,.3.05,8.47,8.47,0,0,1,.49.91,9,9,0,0,1,.41,1.15,12.31,12.31,0,0,1,.28,1.42,12.65,12.65,0,0,1,.1,1.7,12.86,12.86,0,0,1-.1,1.7,12.56,12.56,0,0,1-.28,1.41,9,9,0,0,1-.41,1.15A8,8,0,0,1,227,53a1.3,1.3,0,0,1-.3,0h-.87Z" transform="translate(0 0.73)"/></svg>