<svg id="Camada_1" data-name="Camada 1" xmlns="http://www.w3.org/2000/svg" xmlns:xlink="http://www.w3.org/1999/xlink" width="333.22" height="90.78" viewBox="0 0 333.22 90.78"><defs><style>.cls-1{fill:none;}.cls-2{clip-path:url(#clip-path);}.cls-3{fill:url(#radial-gradient);}.cls-4{clip-path:url(#clip-path-2);}.cls-5{fill:url(#linear-gradient);}.cls-6{clip-path:url(#clip-path-3);}.cls-7{fill:url(#linear-gradient-2);}.cls-8{clip-path:url(#clip-path-4);}.cls-9{fill:url(#linear-gradient-3);}.cls-10{clip-path:url(#clip-path-5);}.cls-11{fill:url(#linear-gradient-4);}.cls-12{clip-path:url(#clip-path-6);}.cls-13{fill:url(#linear-gradient-5);}.cls-14{clip-path:url(#clip-path-7);}.cls-15{fill:url(#linear-gradient-6);}.cls-16{clip-path:url(#clip-path-8);}.cls-17{fill:url(#linear-gradient-7);}.cls-18{clip-path:url(#clip-path-9);}.cls-19{fill:url(#linear-gradient-8);}.cls-20{clip-path:url(#clip-path-10);}.cls-21{fill:url(#linear-gradient-9);}.cls-22{clip-path:url(#clip-path-11);}.cls-23{fill:url(#linear-gradient-10);}.cls-24{clip-path:url(#clip-path-12);}.cls-25{fill:url(#linear-gradient-11);}.cls-26{clip-path:url(#clip-path-13);}.cls-27{fill:url(#linear-gradient-12);}.cls-28{clip-path:url(#clip-path-14);}.cls-29{fill:url(#linear-gradient-13);}.cls-30{clip-path:url(#clip-path-15);}.cls-31{fill:url(#linear-gradient-14);}.cls-32{clip-path:url(#clip-path-16);}.cls-33{fill:url(#linear-gradient-15);}.cls-34{clip-path:url(#clip-path-17);}.cls-35{fill:url(#linear-gradient-16);}.cls-36{clip-path:url(#clip-path-18);}.cls-37{fill:url(#linear-gradient-17);}.cls-38{clip-path:url(#clip-path-19);}.cls-39{fill:url(#linear-gradient-18);}.cls-40{clip-path:url(#clip-path-20);}.cls-41{fill:url(#linear-gradient-19);}.cls-42{clip-path:url(#clip-path-21);}.cls-43{fill:url(#linear-gradient-20);}.cls-44{clip-path:url(#clip-path-22);}.cls-45{fill:url(#linear-gradient-21);}.cls-46{clip-path:url(#clip-path-23);}.cls-47{fill:url(#linear-gradient-22);}.cls-48{clip-path:url(#clip-path-24);}.cls-49{fill:url(#linear-gradient-23);}.cls-50{clip-path:url(#clip-path-25);}.cls-51{fill:url(#linear-gradient-24);}.cls-52{clip-path:url(#clip-path-26);}.cls-53{fill:url(#linear-gradient-25);}.cls-54{clip-path:url(#clip-path-27);}.cls-55{fill:url(#linear-gradient-26);}.cls-56{clip-path:url(#clip-path-28);}.cls-57{fill:url(#linear-gradient-27);}.cls-58{clip-path:url(#clip-path-29);}.cls-59{fill:url(#linear-gradient-28);}.cls-60{clip-path:url(#clip-path-30);}.cls-61{fill:url(#linear-gradient-29);}.cls-62{clip-path:url(#clip-path-31);}.cls-63{fill:url(#linear-gradient-30);}.cls-64{clip-path:url(#clip-path-32);}.cls-65{fill:url(#linear-gradient-31);}.cls-66{clip-path:url(#clip-path-33);}.cls-67{fill:url(#linear-gradient-32);}.cls-68{clip-path:url(#clip-path-34);}.cls-69{fill:url(#linear-gradient-33);}.cls-70{clip-path:url(#clip-path-35);}.cls-71{fill:url(#linear-gradient-34);}.cls-72{clip-path:url(#clip-path-36);}.cls-73{fill:url(#linear-gradient-35);}.cls-74{clip-path:url(#clip-path-37);}.cls-75{fill:url(#linear-gradient-36);}.cls-76{clip-path:url(#clip-path-38);}.cls-77{fill:url(#linear-gradient-37);}.cls-78{clip-path:url(#clip-path-39);}.cls-79{fill:url(#linear-gradient-38);}.cls-80{clip-path:url(#clip-path-40);}.cls-81{fill:url(#linear-gradient-39);}.cls-82{clip-path:url(#clip-path-41);}.cls-83{fill:url(#linear-gradient-40);}</style><clipPath id="clip-path" transform="translate(0 7.78)"><path class="cls-1" d="M22.43,7.78a7.5,7.5,0,1,0,15,0,7.5,7.5,0,1,0-15,0"/></clipPath><radialGradient id="radial-gradient" cx="-709.85" cy="626.13" r="1" gradientTransform="matrix(5.3, 5.5, 5.3, -5.5, 470.01, 7363.71)" gradientUnits="userSpaceOnUse"><stop offset="0" stop-color="#0067a0"/><stop offset="1" stop-color="#01426a"/></radialGradient><clipPath id="clip-path-2" transform="translate(0 7.78)"><path class="cls-1" d="M5,18.16V28.53H15A10.2,10.2,0,0,1,25,38.91V64.85H35V38.91c0-11.46-9-20.75-20-20.75Z"/></clipPath><linearGradient id="linear-gradient" x1="-788.53" y1="597.73" x2="-787.49" y2="597.73" gradientTransform="matrix(0, 34.35, 34.35, 0, -20509.15, 27119.53)" xlink:href="#radial-gradient"/><clipPath id="clip-path-3" transform="translate(0 7.78)"><path class="cls-1" d="M5,18.16V28.53H15a8.77,8.77,0,0,1,1,.06c10.56.55,19,9.59,19,20.69V38.91c0-11.46-9-20.75-20-20.75Z"/></clipPath><linearGradient id="linear-gradient-2" x1="-803.59" y1="510.6" x2="-802.55" y2="510.6" gradientTransform="matrix(0, -10.35, -10.35, 0, 5307.11, -8284.2)" gradientUnits="userSpaceOnUse"><stop offset="0" stop-color="#01426a"/><stop offset="0.12" stop-color="#014670"/><stop offset="1" stop-color="#0067a0"/></linearGradient><clipPath id="clip-path-4" transform="translate(0 7.78)"><rect class="cls-1" y="33.72" width="19.99" height="10.38"/></clipPath><linearGradient id="linear-gradient-3" x1="-756.19" y1="571.32" x2="-755.19" y2="571.32" gradientTransform="matrix(19.35, 0, 0, -19.35, 14633.64, 11102.49)" gradientUnits="userSpaceOnUse"><stop offset="0" stop-color="#007b5f"/><stop offset="1" stop-color="#00b388"/></linearGradient><clipPath id="clip-path-5" transform="translate(0 7.78)"><rect class="cls-1" x="34.99" y="18.16" width="19.99" height="10.38"/></clipPath><linearGradient id="linear-gradient-4" x1="-756.96" y1="571.48" x2="-755.96" y2="571.48" gradientTransform="matrix(19.77, 0, 0, -19.77, 14999.66, 11328.86)" gradientUnits="userSpaceOnUse"><stop offset="0" stop-color="#fbdb65"/><stop offset="1" stop-color="#ffcd00"/></linearGradient><clipPath id="clip-path-6" transform="translate(0 7.78)"><path class="cls-1" d="M10,49.28v13A10.2,10.2,0,0,1,0,72.63V83c11,0,20-9.29,20-20.75v-13Z"/></clipPath><linearGradient id="linear-gradient-5" x1="-785.92" y1="612.64" x2="-784.88" y2="612.64" gradientTransform="matrix(0, 19.75, 19.75, 0, -12089.82, 15579.16)" gradientUnits="userSpaceOnUse"><stop offset="0" stop-color="#01426a"/><stop offset="1" stop-color="#0067a0"/></linearGradient><clipPath id="clip-path-7" transform="translate(0 7.78)"><path class="cls-1" d="M1,72.57a8.6,8.6,0,0,1-1,.06V83c11,0,20-9.29,20-20.75V51.88C20,63,11.59,72,1,72.57"/></clipPath><linearGradient id="linear-gradient-6" x1="-801.61" y1="523.14" x2="-800.57" y2="523.14" gradientTransform="matrix(0, -12.75, -12.75, 0, 6681.32, -10131.78)" gradientUnits="userSpaceOnUse"><stop offset="0" stop-color="#0067a0"/><stop offset="0.44" stop-color="#015180"/><stop offset="1" stop-color="#01426a"/></linearGradient><clipPath id="clip-path-8" transform="translate(0 7.78)"><path class="cls-1" d="M87,12.08V36c0,2.82-1.08,4.52-3.49,4.52S80,38.83,80,36V12.08H76.65V35.83c0,4.74,2.11,7.92,6.72,7.92s6.77-3.18,6.77-7.92V12.08Z"/></clipPath><linearGradient id="linear-gradient-7" x1="-795.99" y1="554.63" x2="-794.96" y2="554.63" gradientTransform="matrix(0, -30.25, -30.25, 0, 16859.81, -24025.9)" xlink:href="#linear-gradient-5"/><clipPath id="clip-path-9" transform="translate(0 7.78)"><path class="cls-1" d="M70.76,12.08v24c0,3.21-1.35,4.29-3.56,4.43-.53,0-1.14,0-1.7,0v3.2a16.66,16.66,0,0,0,2.13.05c3.65-.09,6.48-1.94,6.48-7.86V12.08Z"/></clipPath><linearGradient id="linear-gradient-8" x1="-795.99" y1="554.63" x2="-794.96" y2="554.63" gradientTransform="matrix(0, -30.25, -30.25, 0, 16846.2, -24025.9)" xlink:href="#linear-gradient-5"/><clipPath id="clip-path-10" transform="translate(0 7.78)"><path class="cls-1" d="M91.9,19.84c0,8.74,10,9.41,10,16.32,0,2.8-1.11,4.44-3.5,4.44S94.89,39,94.89,36.16V34.21H91.77V36c0,4.7,2.14,7.76,6.71,7.76s6.75-3.06,6.75-7.76c0-8.74-10-9.41-10-16.37,0-2.75,1-4.39,3.42-4.39S102,16.87,102,19.67v1h3.16v-.85c0-4.7-2.14-7.76-6.67-7.76s-6.62,3-6.62,7.76"/></clipPath><linearGradient id="linear-gradient-9" x1="-795.99" y1="554.63" x2="-794.96" y2="554.63" gradientTransform="matrix(0, -30.25, -30.25, 0, 16874.89, -24025.9)" xlink:href="#linear-gradient-5"/><clipPath id="clip-path-11" transform="translate(0 7.78)"><polygon class="cls-1" points="106.39 12.08 106.39 15.3 112.01 15.3 112.01 43.75 115.41 43.75 115.41 15.3 121.03 15.3 121.03 12.08 106.39 12.08"/></clipPath><linearGradient id="linear-gradient-10" x1="-795.99" y1="554.63" x2="-794.96" y2="554.63" gradientTransform="matrix(0, -30.25, -30.25, 0, 16890.11, -24025.9)" xlink:href="#linear-gradient-5"/><clipPath id="clip-path-12" transform="translate(0 7.78)"><rect class="cls-1" x="122.72" y="12.08" width="3.4" height="31.66"/></clipPath><linearGradient id="linear-gradient-11" x1="-795.99" y1="554.63" x2="-794.96" y2="554.63" gradientTransform="matrix(0, -30.25, -30.25, 0, 16900.83, -24025.9)" xlink:href="#linear-gradient-5"/><clipPath id="clip-path-13" transform="translate(0 7.78)"><path class="cls-1" d="M128.47,19.89v16c0,4.47,1.93,7.49,6.05,7.78v1.61h.37c1.26,0,2,.43,2,1.19s-.65,1.27-1.75,1.27-1.66-.52-1.66-1.15v-.28H131.4v.32c0,1.55,1.38,2.46,3.73,2.46s3.86-1,3.86-2.54c0-1.27-1.1-2-3-2v-.86c4-.35,5.93-3.35,5.93-7.77V32.08h-3.16v4c0,2.79-1.07,4.48-3.5,4.48s-3.51-1.69-3.51-4.48V19.71c0-2.79,1.12-4.48,3.51-4.48s3.5,1.69,3.5,4.48v3h3.16V19.89c0-4.7-2.13-7.81-6.75-7.81s-6.7,3.11-6.7,7.81"/></clipPath><linearGradient id="linear-gradient-12" x1="-795.99" y1="554.63" x2="-794.96" y2="554.63" gradientTransform="matrix(0, -30.25, -30.25, 0, 16911.61, -24025.9)" xlink:href="#linear-gradient-5"/><clipPath id="clip-path-14" transform="translate(0 7.78)"><path class="cls-1" d="M151.59,16.07,155,34.34h-6.8Zm-2.26-4-5.84,31.67h3.14l1.17-6.38h7.72l1.17,6.38h3.4l-5.84-31.67Z"/></clipPath><linearGradient id="linear-gradient-13" x1="-795.99" y1="554.63" x2="-794.96" y2="554.63" gradientTransform="matrix(0, -30.25, -30.25, 0, 16928.2, -24025.9)" xlink:href="#linear-gradient-5"/><clipPath id="clip-path-15" transform="translate(0 7.78)"><path class="cls-1" d="M170.27,15.3h3.66c2.49,0,3.66,1.58,3.66,4.47V36.06c0,2.89-1.17,4.48-3.61,4.48h-3.71Zm-3.4-3.22V43.75H174c4.75,0,6.93-3,6.93-7.83V20c0-4.88-2.18-7.87-6.93-7.87Z"/></clipPath><linearGradient id="linear-gradient-14" x1="-795.99" y1="554.63" x2="-794.96" y2="554.63" gradientTransform="matrix(0, -30.25, -30.25, 0, 16950.33, -24025.9)" xlink:href="#linear-gradient-5"/><clipPath id="clip-path-16" transform="translate(0 7.78)"><path class="cls-1" d="M186.49,36.12V19.71c0-2.79,1.15-4.48,3.55-4.48s3.54,1.69,3.54,4.48V36.12c0,2.84-1.11,4.48-3.54,4.48s-3.55-1.64-3.55-4.48M183.2,19.89v16c0,4.7,2.26,7.81,6.84,7.81s6.88-3.11,6.88-7.81v-16c0-4.75-2.27-7.81-6.88-7.81s-6.84,3.06-6.84,7.81"/></clipPath><linearGradient id="linear-gradient-15" x1="-795.99" y1="554.63" x2="-794.96" y2="554.63" gradientTransform="matrix(0, -30.25, -30.25, 0, 16966.49, -24025.9)" xlink:href="#linear-gradient-5"/><clipPath id="clip-path-17" transform="translate(0 7.78)"><polygon class="cls-1" points="202.34 12.08 202.34 15.3 207.96 15.3 207.96 43.75 211.36 43.75 211.36 15.3 216.98 15.3 216.98 12.08 202.34 12.08"/></clipPath><linearGradient id="linear-gradient-16" x1="-795.99" y1="554.63" x2="-794.96" y2="554.63" gradientTransform="matrix(0, -30.25, -30.25, 0, 16986.11, -24025.9)" xlink:href="#linear-gradient-5"/><clipPath id="clip-path-18" transform="translate(0 7.78)"><path class="cls-1" d="M223,15.3h3.32c2.52,0,3.52,1.49,3.52,4.34v3c0,3.44-1.61,4.34-4.31,4.34H223Zm-3.4-3.22V43.75H223V30.22h2.4c2.83,0,4.44,1.14,4.44,4.71v5a8.62,8.62,0,0,0,.57,3.85h3.44a8.3,8.3,0,0,1-.61-3.8V35c0-3.39-1-5.75-3.83-6.61,2.61-.86,3.79-3,3.79-6.51V19.32c0-4.7-2-7.24-6.8-7.24Z"/></clipPath><linearGradient id="linear-gradient-17" x1="-795.99" y1="554.63" x2="-794.96" y2="554.63" gradientTransform="matrix(0, -30.25, -30.25, 0, 17003.14, -24025.9)" xlink:href="#linear-gradient-5"/><clipPath id="clip-path-19" transform="translate(0 7.78)"><path class="cls-1" d="M243.75,16.07l3.44,18.27h-6.8Zm-2.27-4-5.84,31.67h3.14L240,37.37h7.71l1.18,6.38h3.4l-5.84-31.67Z"/></clipPath><linearGradient id="linear-gradient-18" x1="-795.99" y1="554.63" x2="-794.96" y2="554.63" gradientTransform="matrix(0, -30.25, -30.25, 0, 17020.39, -24025.9)" xlink:href="#linear-gradient-5"/><clipPath id="clip-path-20" transform="translate(0 7.78)"><path class="cls-1" d="M257.86,28.73h3c2.92,0,4.28,1.18,4.28,4.7v2.81c0,2.94-1.14,4.3-3.62,4.3h-3.62Zm0-13.43h3.36c2.44,0,3.35,1.35,3.35,4.16v1.85c0,3.3-1.39,4.21-4.09,4.21h-2.62Zm-3.4-3.22V43.75h7c4.75,0,7-2.67,7-7.42V33.66c0-3.48-1.13-5.93-4.1-6.78,2.66-.86,3.58-2.94,3.58-6.29V19.1c0-4.66-1.88-7-6.63-7Z"/></clipPath><linearGradient id="linear-gradient-19" x1="-795.99" y1="554.63" x2="-794.96" y2="554.63" gradientTransform="matrix(0, -30.25, -30.25, 0, 17037.92, -24025.9)" xlink:href="#linear-gradient-5"/><clipPath id="clip-path-21" transform="translate(0 7.78)"><path class="cls-1" d="M277.29,16.06l3.44,18.28h-6.8Zm-2.27-4-5.84,31.67h3.14l1.17-6.38h7.72l1.17,6.38h3.4l-5.84-31.67Z"/></clipPath><linearGradient id="linear-gradient-20" x1="-795.99" y1="554.63" x2="-794.96" y2="554.63" gradientTransform="matrix(0, -30.25, -30.25, 0, 17053.95, -24025.9)" xlink:href="#linear-gradient-5"/><clipPath id="clip-path-22" transform="translate(0 7.78)"><polygon class="cls-1" points="288.33 12.08 288.33 43.75 300.45 43.75 300.45 40.54 291.73 40.54 291.73 12.08 288.33 12.08"/></clipPath><linearGradient id="linear-gradient-21" x1="-795.99" y1="554.63" x2="-794.96" y2="554.63" gradientTransform="matrix(0, -30.25, -30.25, 0, 17070.86, -24025.9)" xlink:href="#linear-gradient-5"/><clipPath id="clip-path-23" transform="translate(0 7.78)"><polygon class="cls-1" points="313.5 12.08 313.5 26.33 306 26.33 306 12.08 302.6 12.08 302.6 43.75 306 43.75 306 29.5 313.5 29.5 313.5 43.75 316.9 43.75 316.9 12.08 313.5 12.08"/></clipPath><linearGradient id="linear-gradient-22" x1="-795.99" y1="554.64" x2="-794.96" y2="554.64" gradientTransform="matrix(0, -30.25, -30.25, 0, 17086.24, -24025.9)" xlink:href="#linear-gradient-5"/><clipPath id="clip-path-24" transform="translate(0 7.78)"><path class="cls-1" d="M322.8,36.12V19.71c0-2.79,1.15-4.48,3.54-4.48s3.55,1.69,3.55,4.48V36.12c0,2.84-1.11,4.48-3.55,4.48S322.8,39,322.8,36.12m-3.29-16.23v16c0,4.7,2.26,7.81,6.83,7.81s6.88-3.11,6.88-7.81v-16c0-4.75-2.26-7.81-6.88-7.81s-6.83,3.06-6.83,7.81"/></clipPath><linearGradient id="linear-gradient-23" x1="-795.99" y1="554.64" x2="-794.96" y2="554.64" gradientTransform="matrix(0, -30.25, -30.25, 0, 17102.86, -24025.9)" xlink:href="#linear-gradient-5"/><clipPath id="clip-path-25" transform="translate(0 7.78)"><path class="cls-1" d="M66.08,52A6.87,6.87,0,0,0,66,53.2a7,7,0,0,0,.11,1.23h3.37V66.05a6.36,6.36,0,0,0,.75.08c.24,0,.47,0,.68,0s.44,0,.66,0l.68-.07V54.43h3.37a6.12,6.12,0,0,0,.11-1.23,6,6,0,0,0-.11-1.2Z"/></clipPath><linearGradient id="linear-gradient-24" x1="-797.79" y1="549.08" x2="-796.75" y2="549.08" gradientTransform="matrix(0, -20.99, -20.99, 0, 11595.95, -16666.67)" xlink:href="#linear-gradient-5"/><clipPath id="clip-path-26" transform="translate(0 7.78)"><path class="cls-1" d="M79.18,51.84c-.49,0-1,.1-1.56.16v14a6.67,6.67,0,0,0,.74.08c.24,0,.46,0,.68,0l.65,0,.68-.07V54.19a4.42,4.42,0,0,1,.76-.06,2.64,2.64,0,0,1,1.75.58,2.69,2.69,0,0,1,.43,2.89,3,3,0,0,1-.59.79,4.35,4.35,0,0,1-.73.53l-.64.36-.45.23L84.44,66a9.36,9.36,0,0,0,1.41.11,7.94,7.94,0,0,0,.85,0l.79-.07-3.3-6,.33-.21a3.92,3.92,0,0,0,.63-.52,3.76,3.76,0,0,0,.63-.77,4.25,4.25,0,0,0,.49-1.05,4.69,4.69,0,0,0,.18-1.37A4.21,4.21,0,0,0,86,54a3.85,3.85,0,0,0-1.31-1.35,5.7,5.7,0,0,0-1.82-.7,11.55,11.55,0,0,0-2-.19,15.79,15.79,0,0,0-1.61.07"/></clipPath><linearGradient id="linear-gradient-25" x1="-797.79" y1="548.53" x2="-796.75" y2="548.53" gradientTransform="matrix(0, -20.99, -20.99, 0, 11595.95, -16666.67)" xlink:href="#linear-gradient-5"/><clipPath id="clip-path-27" transform="translate(0 7.78)"><path class="cls-1" d="M87.89,52a6,6,0,0,0-.12,1.2,6.11,6.11,0,0,0,.12,1.23h3.36V66.05a6.6,6.6,0,0,0,.75.08c.24,0,.47,0,.69,0l.65,0,.68-.07V54.43h3.37a6.11,6.11,0,0,0,.12-1.23,6,6,0,0,0-.12-1.2Z"/></clipPath><linearGradient id="linear-gradient-26" x1="-797.79" y1="548.05" x2="-796.75" y2="548.05" gradientTransform="matrix(0, -20.99, -20.99, 0, 11595.95, -16666.67)" xlink:href="#linear-gradient-5"/><clipPath id="clip-path-28" transform="translate(0 7.78)"><path class="cls-1" d="M107.12,63.86a2,2,0,0,1-.78-.48,2.2,2.2,0,0,1-.51-.89,4.17,4.17,0,0,1-.19-1.36,5.61,5.61,0,0,1,.14-1.24,3.05,3.05,0,0,1,.44-1,2.32,2.32,0,0,1,.76-.7,2.12,2.12,0,0,1,1.09-.26,4.91,4.91,0,0,1,.59,0,5.81,5.81,0,0,1,.61.12v5.81a3.76,3.76,0,0,1-.58.12,5.28,5.28,0,0,1-.59,0,3.46,3.46,0,0,1-1-.14m2.82-12.17c-.22,0-.44,0-.67.08v4.14a3.19,3.19,0,0,0-.71-.12l-.7,0a4.88,4.88,0,0,0-2,.42,4.64,4.64,0,0,0-1.57,1.14,4.86,4.86,0,0,0-1,1.71,6.09,6.09,0,0,0-.35,2.1,6.2,6.2,0,0,0,.4,2.38,4.17,4.17,0,0,0,1.11,1.6A4.33,4.33,0,0,0,106,66a6.3,6.3,0,0,0,1.91.28,13.94,13.94,0,0,0,2.21-.15,11.45,11.45,0,0,0,1.8-.42V51.77c-.23,0-.46-.06-.68-.08l-.66,0-.65,0"/></clipPath><linearGradient id="linear-gradient-27" x1="-797.79" y1="547.34" x2="-796.75" y2="547.34" gradientTransform="matrix(0, -20.99, -20.99, 0, 11595.95, -16666.67)" xlink:href="#linear-gradient-5"/><clipPath id="clip-path-29" transform="translate(0 7.78)"><path class="cls-1" d="M117.73,64.11a1.89,1.89,0,0,1-.62-.16,1.19,1.19,0,0,1-.5-.4,1.25,1.25,0,0,1-.2-.78,1.22,1.22,0,0,1,.53-1.1,2.7,2.7,0,0,1,1.46-.34l.47,0c.18,0,.34,0,.49.06V64l-.49.09a3.53,3.53,0,0,1-.56,0l-.58,0m-1.47-8.26a11,11,0,0,0-1.66.43,3.8,3.8,0,0,0,.13,1.08,5.32,5.32,0,0,0,.4,1,6.23,6.23,0,0,1,2.16-.41,5.71,5.71,0,0,1,.86.06,1.56,1.56,0,0,1,.65.22,1.15,1.15,0,0,1,.41.46,1.66,1.66,0,0,1,.15.76v.24q-.66-.06-1.2-.06a7,7,0,0,0-1.51.16,4.32,4.32,0,0,0-1.36.55,3,3,0,0,0-1,1,2.92,2.92,0,0,0-.39,1.57,3.74,3.74,0,0,0,.31,1.58,2.77,2.77,0,0,0,.89,1.06,3.62,3.62,0,0,0,1.37.58,8.07,8.07,0,0,0,1.76.18,10.57,10.57,0,0,0,2.13-.2,13.59,13.59,0,0,0,1.6-.41V59.82a4,4,0,0,0-1.1-3.13,4.46,4.46,0,0,0-3.06-1,9.5,9.5,0,0,0-1.54.13"/></clipPath><linearGradient id="linear-gradient-28" x1="-797.79" y1="546.84" x2="-796.75" y2="546.84" gradientTransform="matrix(0, -20.99, -20.99, 0, 11595.95, -16666.67)" xlink:href="#linear-gradient-5"/><clipPath id="clip-path-30" transform="translate(0 7.78)"><path class="cls-1" d="M128.7,53.31a6.09,6.09,0,0,0-.11,1.22,5.79,5.79,0,0,0,.11,1.17h4.14l-2.52,4.73.19.29a3.5,3.5,0,0,1,.66-.12l.66,0a4.17,4.17,0,0,1,.94.11,2.45,2.45,0,0,1,.79.34,1.83,1.83,0,0,1,.54.6,1.65,1.65,0,0,1,.21.85,2.59,2.59,0,0,1-.23,1.13,2.19,2.19,0,0,1-.64.77,2.37,2.37,0,0,1-.93.45,4.24,4.24,0,0,1-1.14.15,5.88,5.88,0,0,1-1.46-.16c-.42-.1-.86-.23-1.34-.39a5.07,5.07,0,0,0-.44,1.08,5.14,5.14,0,0,0-.22,1.21c.34.12.64.22.92.3a6.59,6.59,0,0,0,.82.21,7.29,7.29,0,0,0,.85.11l1,0a6.84,6.84,0,0,0,2.16-.32,4.72,4.72,0,0,0,1.73-1,4.28,4.28,0,0,0,1.15-1.58,5.36,5.36,0,0,0,.42-2.2,4,4,0,0,0-.22-1.27,3.4,3.4,0,0,0-.62-1.1,3,3,0,0,0-2.33-1.07h-.07l3-5.21-.19-.34Z"/></clipPath><linearGradient id="linear-gradient-29" x1="-797.79" y1="546.15" x2="-796.75" y2="546.15" gradientTransform="matrix(0, -20.99, -20.99, 0, 11595.95, -16666.67)" xlink:href="#linear-gradient-5"/><clipPath id="clip-path-31" transform="translate(0 7.78)"><path class="cls-1" d="M142.65,58.32a1.89,1.89,0,0,1-.47-.11,1.05,1.05,0,0,1-.39-.27,1,1,0,0,1,.25-1.35,2.06,2.06,0,0,1,1.1-.25h.37l.35,0v1.88l-.35.06h-.86m-1.18-6.2a10.08,10.08,0,0,0-1.34.33,2.78,2.78,0,0,0,.47,1.63,4.66,4.66,0,0,1,.87-.23,5.77,5.77,0,0,1,.8-.07,2.79,2.79,0,0,1,1.18.2c.27.13.41.42.41.88V55l-.45,0H143a6.16,6.16,0,0,0-1.19.12,3.68,3.68,0,0,0-1.08.42,2.26,2.26,0,0,0-1.08,2,2.73,2.73,0,0,0,.24,1.2,2.26,2.26,0,0,0,.69.81,3,3,0,0,0,1.08.46,6,6,0,0,0,1.4.14,8,8,0,0,0,1.65-.16c.53-.11,1-.22,1.28-.32V55.17a3,3,0,0,0-.86-2.41,3.57,3.57,0,0,0-2.41-.76,7,7,0,0,0-1.22.12"/></clipPath><linearGradient id="linear-gradient-30" x1="-797.79" y1="545.66" x2="-796.75" y2="545.66" gradientTransform="matrix(0, -20.99, -20.99, 0, 11595.95, -16666.67)" xlink:href="#linear-gradient-5"/><clipPath id="clip-path-32" transform="translate(0 7.78)"><path class="cls-1" d="M155,51.84l-1.55.16v14a6.26,6.26,0,0,0,.73.08c.24,0,.47,0,.68,0l.66,0,.68-.07V54.19a4.22,4.22,0,0,1,.75-.06,2.64,2.64,0,0,1,1.75.58,2.25,2.25,0,0,1,.68,1.81,2.16,2.16,0,0,1-.25,1.08,3,3,0,0,1-.59.79,4,4,0,0,1-.73.53l-.64.36-.45.23L160.27,66a9.57,9.57,0,0,0,1.41.11,7.81,7.81,0,0,0,.85,0l.79-.07-3.29-6,.32-.21a4.44,4.44,0,0,0,.64-.52,4.56,4.56,0,0,0,.63-.77,4.38,4.38,0,0,0,.67-2.42,4.21,4.21,0,0,0-.5-2.16,3.85,3.85,0,0,0-1.31-1.35,5.7,5.7,0,0,0-1.82-.7,11.55,11.55,0,0,0-2-.19,15.79,15.79,0,0,0-1.61.07"/></clipPath><linearGradient id="linear-gradient-31" x1="-797.79" y1="544.91" x2="-796.75" y2="544.91" gradientTransform="matrix(0, -20.99, -20.99, 0, 11595.95, -16666.67)" xlink:href="#linear-gradient-5"/><clipPath id="clip-path-33" transform="translate(0 7.78)"><path class="cls-1" d="M167.37,58.38a1.8,1.8,0,0,1,1.43-.55,1.57,1.57,0,0,1,1.29.57,2.56,2.56,0,0,1,.5,1.52h-3.8a2.54,2.54,0,0,1,.58-1.54m-.58-2.24a4.22,4.22,0,0,0-1.46,1.14,4.86,4.86,0,0,0-.9,1.7,7.09,7.09,0,0,0-.3,2.09,7.23,7.23,0,0,0,.29,2.09,4.42,4.42,0,0,0,.91,1.65,4,4,0,0,0,1.58,1.09,6.19,6.19,0,0,0,2.32.39,8.93,8.93,0,0,0,3.32-.59,5.5,5.5,0,0,0-.17-1.17,4.62,4.62,0,0,0-.36-.94,7.44,7.44,0,0,1-2.58.49,3,3,0,0,1-1.88-.53,2.13,2.13,0,0,1-.79-1.7H173q0-.21.06-.57c0-.24,0-.49,0-.74a6.19,6.19,0,0,0-.28-1.9A4.5,4.5,0,0,0,172,57.1a4,4,0,0,0-3.15-1.38,4.72,4.72,0,0,0-2.05.42"/></clipPath><linearGradient id="linear-gradient-32" x1="-797.79" y1="544.43" x2="-796.75" y2="544.43" gradientTransform="matrix(0, -20.99, -20.99, 0, 11595.95, -16666.67)" xlink:href="#linear-gradient-5"/><clipPath id="clip-path-34" transform="translate(0 7.78)"><path class="cls-1" d="M177.39,68.66a1,1,0,0,1-.53-1,1.67,1.67,0,0,1,.06-.44,1.11,1.11,0,0,1,.23-.41,1.16,1.16,0,0,1,.43-.31,1.59,1.59,0,0,1,.69-.09l2,0a1.83,1.83,0,0,1,.63.09,1,1,0,0,1,.36.25.73.73,0,0,1,.18.32,1.5,1.5,0,0,1,.05.37,1.18,1.18,0,0,1-.73,1.06,4,4,0,0,1-1.9.39,3.26,3.26,0,0,1-1.45-.27m.48-8.06a2.13,2.13,0,0,1-.35-1.29,2.2,2.2,0,0,1,.35-1.3,1.36,1.36,0,0,1,1.17-.47,1.3,1.3,0,0,1,1.14.47,2.2,2.2,0,0,1,.35,1.3,2.13,2.13,0,0,1-.35,1.29,1.3,1.3,0,0,1-1.14.47,1.36,1.36,0,0,1-1.17-.47M177.29,56a3.91,3.91,0,0,0-1.31.75,3.2,3.2,0,0,0-.82,1.14,3.48,3.48,0,0,0-.28,1.41,3.39,3.39,0,0,0,.36,1.57,3.49,3.49,0,0,0,1,1.19,3.71,3.71,0,0,0-.88.9,2.19,2.19,0,0,0-.3,1.21,1.84,1.84,0,0,0,.25,1,2.14,2.14,0,0,0,.69.68,3.86,3.86,0,0,0-1.08,1,2.41,2.41,0,0,0-.41,1.44,2.58,2.58,0,0,0,.22,1.08,1.91,1.91,0,0,0,.71.82,4,4,0,0,0,1.29.51,9.38,9.38,0,0,0,4-.06,5.49,5.49,0,0,0,1.7-.73,3.72,3.72,0,0,0,1.13-1.14,2.85,2.85,0,0,0,.41-1.49,2.77,2.77,0,0,0-.81-2.14,3.72,3.72,0,0,0-2.52-.8l-2.58,0a1.27,1.27,0,0,1-.8-.22.69.69,0,0,1-.2-.51,1.65,1.65,0,0,1,.08-.46,1,1,0,0,1,.39-.46,5.38,5.38,0,0,0,1.45.18,5.09,5.09,0,0,0,1.72-.27,3.88,3.88,0,0,0,1.29-.75,2.89,2.89,0,0,0,.8-1.12,3.53,3.53,0,0,0,.28-1.42,2.75,2.75,0,0,0-.08-.72,2.32,2.32,0,0,0-.17-.47h1.53a5,5,0,0,0,.07-.64c0-.21,0-.42,0-.63a4.41,4.41,0,0,0,0-.52l-.06-.49a3.48,3.48,0,0,0-1.43.24,2.32,2.32,0,0,0-.89.73,4.22,4.22,0,0,0-1.32-.77,4.8,4.8,0,0,0-1.73-.3,5.19,5.19,0,0,0-1.73.27"/></clipPath><linearGradient id="linear-gradient-33" x1="-797.79" y1="543.91" x2="-796.75" y2="543.91" gradientTransform="matrix(0, -20.99, -20.99, 0, 11595.95, -16666.67)" xlink:href="#linear-gradient-5"/><clipPath id="clip-path-35" transform="translate(0 7.78)"><path class="cls-1" d="M185.14,56a4.94,4.94,0,0,0-.08,1.58,3.08,3.08,0,0,0,.08.53h1.26v8a7.21,7.21,0,0,0,2.62,0V56Zm1.56-4.4a6.57,6.57,0,0,0-.69.08,7.69,7.69,0,0,0-.12,1.31,7.34,7.34,0,0,0,.12,1.31,4.67,4.67,0,0,0,.69.08l.68,0,.69,0a5,5,0,0,0,.69-.08c0-.22.06-.44.07-.66s0-.44,0-.65,0-.44,0-.65,0-.44-.07-.66c-.22,0-.45-.07-.7-.08l-.7,0-.66,0"/></clipPath><linearGradient id="linear-gradient-34" x1="-797.79" y1="543.55" x2="-796.75" y2="543.55" gradientTransform="matrix(0, -20.99, -20.99, 0, 11595.95, -16666.67)" xlink:href="#linear-gradient-5"/><clipPath id="clip-path-36" transform="translate(0 7.78)"><path class="cls-1" d="M194.89,64.11a1.89,1.89,0,0,1-.63-.16,1.19,1.19,0,0,1-.5-.4,1.32,1.32,0,0,1-.2-.78,1.22,1.22,0,0,1,.53-1.1,2.7,2.7,0,0,1,1.46-.34l.47,0c.18,0,.34,0,.49.06V64l-.49.09a3.53,3.53,0,0,1-.56,0l-.57,0m-1.48-8.26a11,11,0,0,0-1.66.43,3.8,3.8,0,0,0,.13,1.08,5.32,5.32,0,0,0,.4,1,6.23,6.23,0,0,1,2.16-.41,5.61,5.61,0,0,1,.86.06,1.56,1.56,0,0,1,.65.22,1.15,1.15,0,0,1,.41.46,1.66,1.66,0,0,1,.15.76v.24q-.66-.06-1.2-.06a7,7,0,0,0-1.51.16,4.32,4.32,0,0,0-1.36.55,3,3,0,0,0-1,1,2.92,2.92,0,0,0-.39,1.57,3.74,3.74,0,0,0,.31,1.58,2.77,2.77,0,0,0,.89,1.06,3.62,3.62,0,0,0,1.37.58,8.07,8.07,0,0,0,1.76.18,10.57,10.57,0,0,0,2.13-.2,13.59,13.59,0,0,0,1.6-.41V59.82a4,4,0,0,0-1.1-3.13,4.44,4.44,0,0,0-3.06-1,9.5,9.5,0,0,0-1.54.13m-.75-3.76a2.84,2.84,0,0,0-.83.74,2.47,2.47,0,0,0,.3.79,8.46,8.46,0,0,0,.49.73,2.18,2.18,0,0,1,.66-.5,1.65,1.65,0,0,1,.62-.1,2.11,2.11,0,0,1,.66.1q.33.1.66.24l.67.23a2.38,2.38,0,0,0,.7.11,2.53,2.53,0,0,0,1.22-.29,2.38,2.38,0,0,0,.85-.71,3.39,3.39,0,0,0-.3-.82,3.48,3.48,0,0,0-.51-.74,2,2,0,0,1-.68.51,2,2,0,0,1-.6.09,2.37,2.37,0,0,1-.7-.1l-.66-.24-.65-.23a2.15,2.15,0,0,0-.68-.11,2.4,2.4,0,0,0-1.22.3"/></clipPath><linearGradient id="linear-gradient-35" x1="-797.79" y1="543.16" x2="-796.75" y2="543.16" gradientTransform="matrix(0, -20.99, -20.99, 0, 11595.95, -16666.67)" xlink:href="#linear-gradient-5"/><clipPath id="clip-path-37" transform="translate(0 7.78)"><path class="cls-1" d="M204.11,63.37a6.16,6.16,0,0,1,0-4.67,1.8,1.8,0,0,1,3,0,6.16,6.16,0,0,1,0,4.67,1.8,1.8,0,0,1-3,0m-.57-7.24a4,4,0,0,0-1.44,1.12,4.76,4.76,0,0,0-.87,1.69,7.09,7.09,0,0,0-.29,2.09,6.93,6.93,0,0,0,.29,2.08,4.7,4.7,0,0,0,.87,1.66,3.9,3.9,0,0,0,1.44,1.12,5.56,5.56,0,0,0,4.14,0,4,4,0,0,0,1.47-1.12,4.85,4.85,0,0,0,.86-1.66,7.27,7.27,0,0,0,.28-2.08,7.43,7.43,0,0,0-.28-2.09,4.91,4.91,0,0,0-.86-1.69,4.11,4.11,0,0,0-1.47-1.12,5.43,5.43,0,0,0-4.14,0"/></clipPath><linearGradient id="linear-gradient-36" x1="-797.79" y1="542.66" x2="-796.75" y2="542.66" gradientTransform="matrix(0, -20.99, -20.99, 0, 11595.95, -16666.67)" xlink:href="#linear-gradient-5"/><clipPath id="clip-path-38" transform="translate(0 7.78)"><path class="cls-1" d="M218.87,50.8a2.26,2.26,0,0,0-.52.09,15.42,15.42,0,0,0-.83,1.63,14.89,14.89,0,0,0-.69,2,19.85,19.85,0,0,0-.48,2.5,25.42,25.42,0,0,0,0,6,20.2,20.2,0,0,0,.48,2.52,15.86,15.86,0,0,0,.69,2.05,14.7,14.7,0,0,0,.83,1.64,2.26,2.26,0,0,0,.52.09c.23,0,.48,0,.74,0l.76,0a4.69,4.69,0,0,0,.64-.09c-.16-.26-.35-.65-.59-1.16a13.52,13.52,0,0,1-.69-1.93,21.91,21.91,0,0,1-.6-2.69,21.15,21.15,0,0,1-.25-3.45,20.9,20.9,0,0,1,.25-3.43,22.15,22.15,0,0,1,.6-2.68,13.52,13.52,0,0,1,.69-1.93c.24-.51.43-.9.59-1.16a4.69,4.69,0,0,0-.64-.09l-.76,0c-.26,0-.51,0-.74,0"/></clipPath><linearGradient id="linear-gradient-37" x1="-797.79" y1="542.04" x2="-796.75" y2="542.04" gradientTransform="matrix(0, -20.99, -20.99, 0, 11595.95, -16666.67)" xlink:href="#linear-gradient-5"/><clipPath id="clip-path-39" transform="translate(0 7.78)"><path class="cls-1" d="M232.85,52l-3.2,8.06L226.54,52a10,10,0,0,0-1.45-.11,10.56,10.56,0,0,0-1.45.11l-.53,14a6.86,6.86,0,0,0,1.25.12,5.94,5.94,0,0,0,1.16-.12l.27-9.67,2.56,6.74a3,3,0,0,0,.51.08l.49,0,.56,0,.55-.07,2.75-6.6.33,9.53a6.75,6.75,0,0,0,1.27.12,8.24,8.24,0,0,0,1.35-.12l-.64-14a8.74,8.74,0,0,0-1.37-.11,7.33,7.33,0,0,0-1.3.11"/></clipPath><linearGradient id="linear-gradient-38" x1="-797.79" y1="541.52" x2="-796.75" y2="541.52" gradientTransform="matrix(0, -20.99, -20.99, 0, 11595.95, -16666.67)" xlink:href="#linear-gradient-5"/><clipPath id="clip-path-40" transform="translate(0 7.78)"><path class="cls-1" d="M242,52.32a5.65,5.65,0,0,0-2,1.52,6.89,6.89,0,0,0-1.25,2.32,9.33,9.33,0,0,0-.43,2.9A9.85,9.85,0,0,0,238.7,62a6.4,6.4,0,0,0,1.25,2.3,5.64,5.64,0,0,0,2.07,1.5,7.18,7.18,0,0,0,2.9.54,14.91,14.91,0,0,0,1.85-.13,8.23,8.23,0,0,0,2-.5V58.77a8.19,8.19,0,0,0-1.37-.12,8.07,8.07,0,0,0-1.36.12v4.94l-.46.08a4.78,4.78,0,0,1-.57,0,3.45,3.45,0,0,1-2.83-1.18,5.64,5.64,0,0,1-1-3.59,5.77,5.77,0,0,1,1-3.62A3.33,3.33,0,0,1,245,54.21a6.82,6.82,0,0,1,1.2.1,9.84,9.84,0,0,1,1.17.33c.15-.37.29-.75.42-1.12a4.43,4.43,0,0,0,.22-1.14,6,6,0,0,0-1.63-.49,11.06,11.06,0,0,0-1.68-.12,6.39,6.39,0,0,0-2.72.55"/></clipPath><linearGradient id="linear-gradient-39" x1="-797.79" y1="540.86" x2="-796.75" y2="540.86" gradientTransform="matrix(0, -20.99, -20.99, 0, 11595.95, -16666.67)" xlink:href="#linear-gradient-5"/><clipPath id="clip-path-41" transform="translate(0 7.78)"><path class="cls-1" d="M251.49,50.8a4.47,4.47,0,0,0-.64.09c.15.26.34.65.58,1.16a14.76,14.76,0,0,1,.7,1.93,24.39,24.39,0,0,1,.59,2.68,20.9,20.9,0,0,1,.25,3.43,21.15,21.15,0,0,1-.25,3.45,24.1,24.1,0,0,1-.59,2.69,14.76,14.76,0,0,1-.7,1.93c-.24.51-.43.9-.58,1.16a4.47,4.47,0,0,0,.64.09q.38,0,.75,0c.26,0,.51,0,.74,0a2.26,2.26,0,0,0,.52-.09,13.17,13.17,0,0,0,.83-1.64,17.5,17.5,0,0,0,.7-2.05,20.2,20.2,0,0,0,.48-2.52,25.16,25.16,0,0,0,.18-3,25.42,25.42,0,0,0-.18-3,19.85,19.85,0,0,0-.48-2.5,16.32,16.32,0,0,0-.7-2,13.73,13.73,0,0,0-.83-1.63,2.26,2.26,0,0,0-.52-.09c-.23,0-.48,0-.74,0l-.75,0"/></clipPath><linearGradient id="linear-gradient-40" x1="-797.79" y1="540.39" x2="-796.75" y2="540.39" gradientTransform="matrix(0, -20.99, -20.99, 0, 11595.95, -16666.67)" xlink:href="#linear-gradient-5"/></defs><title>Logo-TRT</title><g class="cls-2"><polygon class="cls-3" points="29.93 0 44.92 15.56 29.93 31.13 14.93 15.56 29.93 0"/></g><g class="cls-4"><rect class="cls-5" x="5" y="25.94" width="29.99" height="46.69"/></g><g class="cls-6"><rect class="cls-7" x="5" y="25.94" width="29.99" height="31.13"/></g><g class="cls-8"><rect class="cls-9" y="41.5" width="19.99" height="10.38"/></g><g class="cls-10"><rect class="cls-11" x="34.99" y="25.94" width="19.99" height="10.38"/></g><g class="cls-12"><rect class="cls-13" y="57.07" width="19.99" height="33.72"/></g><g class="cls-14"><rect class="cls-15" y="59.66" width="19.99" height="31.13"/></g><g class="cls-16"><rect class="cls-17" x="76.65" y="19.87" width="13.49" height="31.66"/></g><g class="cls-18"><rect class="cls-19" x="65.5" y="19.87" width="8.61" height="31.7"/></g><g class="cls-20"><rect class="cls-21" x="91.77" y="19.87" width="13.46" height="31.66"/></g><g class="cls-22"><rect class="cls-23" x="106.39" y="19.87" width="14.64" height="31.66"/></g><g class="cls-24"><rect class="cls-25" x="122.72" y="19.87" width="3.4" height="31.66"/></g><g class="cls-26"><rect class="cls-27" x="128.47" y="19.87" width="13.46" height="37.06"/></g><g class="cls-28"><rect class="cls-29" x="143.49" y="19.87" width="16.6" height="31.66"/></g><g class="cls-30"><rect class="cls-31" x="166.87" y="19.87" width="14.08" height="31.66"/></g><g class="cls-32"><rect class="cls-33" x="183.2" y="19.87" width="13.72" height="31.66"/></g><g class="cls-34"><rect class="cls-35" x="202.34" y="19.87" width="14.64" height="31.66"/></g><g class="cls-36"><rect class="cls-37" x="219.57" y="19.87" width="14.25" height="31.66"/></g><g class="cls-38"><rect class="cls-39" x="235.64" y="19.87" width="16.6" height="31.66"/></g><g class="cls-40"><rect class="cls-41" x="254.46" y="19.87" width="13.99" height="31.66"/></g><g class="cls-42"><rect class="cls-43" x="269.18" y="19.87" width="16.61" height="31.66"/></g><g class="cls-44"><rect class="cls-45" x="288.34" y="19.87" width="12.12" height="31.66"/></g><g class="cls-46"><rect class="cls-47" x="302.6" y="19.87" width="14.29" height="31.66"/></g><g class="cls-48"><rect class="cls-49" x="319.51" y="19.87" width="13.72" height="31.66"/></g><g class="cls-50"><rect class="cls-51" x="65.97" y="59.79" width="9.73" height="14.15"/></g><g class="cls-52"><rect class="cls-53" x="77.62" y="59.55" width="9.87" height="14.38"/></g><g class="cls-54"><rect class="cls-55" x="87.77" y="59.79" width="9.73" height="14.15"/></g><g class="cls-56"><rect class="cls-57" x="102.89" y="59.45" width="9.04" height="14.62"/></g><g class="cls-58"><rect class="cls-59" x="113.9" y="63.5" width="8.06" height="10.57"/></g><g class="cls-60"><rect class="cls-61" x="127.91" y="61.1" width="9.06" height="14.05"/></g><g class="cls-62"><rect class="cls-63" x="139.62" y="59.79" width="6.34" height="8.09"/></g><g class="cls-64"><rect class="cls-65" x="153.46" y="59.55" width="9.86" height="14.38"/></g><g class="cls-66"><rect class="cls-67" x="164.13" y="63.5" width="8.98" height="10.57"/></g><g class="cls-68"><rect class="cls-69" x="174.52" y="63.52" width="9.96" height="15.18"/></g><g class="cls-70"><rect class="cls-71" x="185.03" y="59.3" width="3.99" height="14.66"/></g><g class="cls-72"><rect class="cls-73" x="191.05" y="59.57" width="8.06" height="14.5"/></g><g class="cls-74"><rect class="cls-75" x="200.94" y="63.5" width="9.36" height="10.57"/></g><g class="cls-76"><rect class="cls-77" x="216.17" y="58.56" width="4.84" height="18.66"/></g><g class="cls-78"><rect class="cls-79" x="223.11" y="59.67" width="13.05" height="14.28"/></g><g class="cls-80"><rect class="cls-81" x="238.29" y="59.55" width="10.52" height="14.52"/></g><g class="cls-82"><rect class="cls-83" x="250.85" y="58.56" width="4.84" height="18.66"/></g></svg>